Truculenta-Regular.ufo
<glyph name="exclam" format="2">
  <advance width="286"/>
  <unicode hex="0021"/>
  <outline>
    <contour>
      <point x="113" y="238" type="curve"/>
      <point x="173" y="240" type="line"/>
      <point x="173" y="240"/>
      <point x="175" y="349"/>
      <point x="176" y="425" type="curve"/>
      <point x="178" y="500"/>
      <point x="186" y="709"/>
      <point x="186" y="709" type="curve"/>
      <point x="100" y="704" type="line"/>
      <point x="100" y="704"/>
      <point x="106" y="533"/>
      <point x="109" y="423" type="curve"/>
      <point x="111" y="315"/>
      <point x="113" y="238"/>
    </contour>
    <contour>
      <point x="185" y="0" type="line"/>
      <point x="178" y="135" type="line"/>
      <point x="108" y="133" type="line"/>
      <point x="104" y="0" type="line"/>
    </contour>
  </outline>
</glyph>
<glyph name="quotedbl" format="2">
  <advance width="460"/>
  <unicode hex="0022"/>
  <outline>
    <contour>
      <point x="265" y="493" type="curve"/>
      <point x="330" y="503" type="line"/>
      <point x="330" y="503"/>
      <point x="337" y="574"/>
      <point x="346" y="615" type="curve" smooth="yes"/>
      <point x="352" y="657"/>
      <point x="365" y="701"/>
      <point x="365" y="701" type="curve"/>
      <point x="271" y="702" type="line"/>
      <point x="271" y="702"/>
      <point x="272" y="654"/>
      <point x="269" y="604" type="curve" smooth="yes"/>
      <point x="268" y="551"/>
      <point x="265" y="493"/>
    </contour>
    <contour>
      <point x="107" y="490" type="curve"/>
      <point x="171" y="505" type="line"/>
      <point x="171" y="505"/>
      <point x="172" y="577"/>
      <point x="177" y="618" type="curve" smooth="yes"/>
      <point x="180" y="661"/>
      <point x="189" y="706"/>
      <point x="189" y="706" type="curve"/>
      <point x="95" y="698" type="line"/>
      <point x="95" y="698"/>
      <point x="100" y="651"/>
      <point x="102" y="601" type="curve" smooth="yes"/>
      <point x="105" y="548"/>
      <point x="107" y="490"/>
    </contour>
  </outline>
</glyph>
<glyph name="numbersign" format="2">
  <advance width="840"/>
  <unicode hex="0023"/>
  <outline>
    <contour>
      <point x="154" y="-1" type="line"/>
      <point x="227" y="3" type="line"/>
      <point x="309" y="374" type="line"/>
      <point x="390" y="700" type="line"/>
      <point x="319" y="696" type="line"/>
      <point x="254" y="385" type="line"/>
    </contour>
    <contour>
      <point x="75" y="175" type="line"/>
      <point x="75" y="175"/>
      <point x="293" y="180"/>
      <point x="414" y="179" type="curve" smooth="yes"/>
      <point x="539" y="178"/>
      <point x="719" y="177"/>
      <point x="719" y="177" type="curve"/>
      <point x="715" y="240" type="line"/>
      <point x="715" y="240"/>
      <point x="534" y="237"/>
      <point x="417" y="237" type="curve" smooth="yes"/>
      <point x="305" y="237"/>
      <point x="77" y="240"/>
      <point x="77" y="240" type="curve"/>
    </contour>
    <contour>
      <point x="445" y="-2" type="line"/>
      <point x="518" y="1" type="line"/>
      <point x="597" y="363" type="line"/>
      <point x="678" y="686" type="line"/>
      <point x="607" y="687" type="line"/>
      <point x="545" y="385" type="line"/>
    </contour>
    <contour>
      <point x="125" y="462" type="line"/>
      <point x="125" y="462"/>
      <point x="344" y="467"/>
      <point x="465" y="466" type="curve" smooth="yes"/>
      <point x="589" y="465"/>
      <point x="765" y="463"/>
      <point x="765" y="463" type="curve"/>
      <point x="765" y="527" type="line"/>
      <point x="765" y="527"/>
      <point x="584" y="524"/>
      <point x="467" y="524" type="curve" smooth="yes"/>
      <point x="355" y="524"/>
      <point x="117" y="527"/>
      <point x="117" y="527" type="curve"/>
    </contour>
  </outline>
</glyph>
<glyph name="percent" format="2">
  <advance width="800"/>
  <unicode hex="0025"/>
  <outline>
    <contour>
      <point x="171" y="0" type="curve"/>
      <point x="247" y="0" type="line"/>
      <point x="287" y="75"/>
      <point x="379" y="249"/>
      <point x="440" y="357" type="curve" smooth="yes"/>
      <point x="512" y="484"/>
      <point x="599" y="630"/>
      <point x="637" y="693" type="curve"/>
      <point x="561" y="693" type="line"/>
      <point x="523" y="622"/>
      <point x="443" y="478"/>
      <point x="375" y="356" type="curve" smooth="yes"/>
      <point x="320" y="257"/>
      <point x="221" y="85"/>
    </contour>
    <contour>
      <point x="191" y="369" type="curve" smooth="yes"/>
      <point x="289" y="369"/>
      <point x="332" y="436"/>
      <point x="332" y="534" type="curve" smooth="yes"/>
      <point x="332" y="642"/>
      <point x="294" y="701"/>
      <point x="207" y="701" type="curve" smooth="yes"/>
      <point x="109" y="701"/>
      <point x="68" y="633"/>
      <point x="68" y="536" type="curve" smooth="yes"/>
      <point x="68" y="448"/>
      <point x="99" y="369"/>
    </contour>
    <contour>
      <point x="197" y="421" type="curve" smooth="yes"/>
      <point x="152" y="421"/>
      <point x="128" y="454"/>
      <point x="128" y="531" type="curve" smooth="yes"/>
      <point x="128" y="591"/>
      <point x="135" y="646"/>
      <point x="203" y="646" type="curve" smooth="yes"/>
      <point x="246" y="646"/>
      <point x="271" y="618"/>
      <point x="271" y="536" type="curve" smooth="yes"/>
      <point x="271" y="466"/>
      <point x="252" y="421"/>
    </contour>
    <contour>
      <point x="591" y="-1" type="curve" smooth="yes"/>
      <point x="689" y="-1"/>
      <point x="732" y="66"/>
      <point x="732" y="164" type="curve" smooth="yes"/>
      <point x="732" y="272"/>
      <point x="694" y="331"/>
      <point x="607" y="331" type="curve" smooth="yes"/>
      <point x="509" y="331"/>
      <point x="468" y="263"/>
      <point x="468" y="166" type="curve" smooth="yes"/>
      <point x="468" y="78"/>
      <point x="499" y="-1"/>
    </contour>
    <contour>
      <point x="597" y="51" type="curve" smooth="yes"/>
      <point x="552" y="51"/>
      <point x="528" y="84"/>
      <point x="528" y="161" type="curve" smooth="yes"/>
      <point x="528" y="221"/>
      <point x="535" y="276"/>
      <point x="603" y="276" type="curve" smooth="yes"/>
      <point x="646" y="276"/>
      <point x="671" y="248"/>
      <point x="671" y="166" type="curve" smooth="yes"/>
      <point x="671" y="96"/>
      <point x="652" y="51"/>
    </contour>
  </outline>
</glyph>
<glyph name="quotesingle" format="2">
  <advance width="284"/>
  <unicode hex="0027"/>
  <outline>
    <contour>
      <point x="107" y="490" type="curve"/>
      <point x="171" y="505" type="line"/>
      <point x="171" y="505"/>
      <point x="172" y="577"/>
      <point x="177" y="618" type="curve"/>
      <point x="180" y="661"/>
      <point x="189" y="706"/>
      <point x="189" y="706" type="curve"/>
      <point x="95" y="698" type="line"/>
      <point x="95" y="698"/>
      <point x="100" y="651"/>
      <point x="102" y="601" type="curve"/>
      <point x="105" y="548"/>
      <point x="107" y="490"/>
    </contour>
  </outline>
</glyph>
<glyph name="parenleft" format="2">
  <advance width="394"/>
  <unicode hex="0028"/>
  <outline>
    <contour>
      <point x="277" y="-140" type="curve"/>
      <point x="294" y="-88" type="line"/>
      <point x="176" y="-26"/>
      <point x="163" y="136"/>
      <point x="163" y="281" type="curve" smooth="yes"/>
      <point x="163" y="427"/>
      <point x="172" y="587"/>
      <point x="294" y="651" type="curve"/>
      <point x="277" y="703" type="line"/>
      <point x="172" y="671"/>
      <point x="100" y="549"/>
      <point x="100" y="281" type="curve" smooth="yes"/>
      <point x="100" y="14"/>
      <point x="169" y="-110"/>
    </contour>
  </outline>
</glyph>
<glyph name="parenright" format="2">
  <advance width="394"/>
  <unicode hex="0029"/>
  <outline>
    <contour>
      <point x="117" y="703" type="curve"/>
      <point x="100" y="651" type="line"/>
      <point x="218" y="589"/>
      <point x="231" y="427"/>
      <point x="231" y="282" type="curve" smooth="yes"/>
      <point x="231" y="136"/>
      <point x="222" y="-24"/>
      <point x="100" y="-88" type="curve"/>
      <point x="117" y="-140" type="line"/>
      <point x="222" y="-108"/>
      <point x="294" y="14"/>
      <point x="294" y="282" type="curve" smooth="yes"/>
      <point x="294" y="549"/>
      <point x="225" y="673"/>
    </contour>
  </outline>
</glyph>
<glyph name="asterisk" format="2">
  <advance width="574"/>
  <unicode hex="002A"/>
  <outline>
    <contour>
      <point x="422" y="427" type="curve"/>
      <point x="474" y="473" type="line"/>
      <point x="474" y="473"/>
      <point x="338" y="551"/>
      <point x="291" y="578" type="curve"/>
      <point x="242" y="607"/>
      <point x="145" y="678"/>
      <point x="145" y="678" type="curve"/>
      <point x="100" y="623" type="line"/>
      <point x="100" y="623"/>
      <point x="219" y="564"/>
      <point x="272" y="533" type="curve"/>
      <point x="323" y="504"/>
      <point x="422" y="427"/>
    </contour>
    <contour>
      <point x="136" y="415" type="line"/>
      <point x="136" y="415"/>
      <point x="253" y="504"/>
      <point x="304" y="533" type="curve"/>
      <point x="357" y="564"/>
      <point x="465" y="623"/>
      <point x="465" y="623" type="curve"/>
      <point x="446" y="687" type="line"/>
      <point x="446" y="687"/>
      <point x="334" y="607"/>
      <point x="285" y="578" type="curve"/>
      <point x="238" y="551"/>
      <point x="111" y="473"/>
      <point x="111" y="473" type="curve"/>
    </contour>
    <contour>
      <point x="326" y="357" type="line"/>
      <point x="326" y="357"/>
      <point x="314" y="495"/>
      <point x="314" y="562" type="curve"/>
      <point x="314" y="631"/>
      <point x="324" y="736"/>
      <point x="324" y="736" type="curve"/>
      <point x="255" y="743" type="line"/>
      <point x="255" y="743"/>
      <point x="262" y="626"/>
      <point x="263" y="561" type="curve"/>
      <point x="265" y="499"/>
      <point x="256" y="364"/>
      <point x="256" y="364" type="curve"/>
    </contour>
  </outline>
</glyph>
<glyph name="plus" format="2">
  <advance width="500"/>
  <unicode hex="002B"/>
  <outline>
    <contour>
      <point x="285" y="118" type="line"/>
      <point x="285" y="118"/>
      <point x="276" y="235"/>
      <point x="276" y="302" type="curve"/>
      <point x="276" y="371"/>
      <point x="283" y="477"/>
      <point x="283" y="477" type="curve"/>
      <point x="214" y="473" type="line"/>
      <point x="214" y="473"/>
      <point x="218" y="366"/>
      <point x="219" y="301" type="curve"/>
      <point x="221" y="239"/>
      <point x="215" y="114"/>
      <point x="215" y="114" type="curve"/>
    </contour>
    <contour>
      <point x="75" y="258" type="line"/>
      <point x="75" y="258"/>
      <point x="202" y="264"/>
      <point x="261" y="264" type="curve"/>
      <point x="322" y="264"/>
      <point x="409" y="259"/>
      <point x="409" y="259" type="curve"/>
      <point x="425" y="324" type="line"/>
      <point x="425" y="324"/>
      <point x="317" y="321"/>
      <point x="260" y="320" type="curve"/>
      <point x="205" y="320"/>
      <point x="82" y="321"/>
      <point x="82" y="321" type="curve"/>
    </contour>
  </outline>
</glyph>
<glyph name="comma" format="2">
  <advance width="281"/>
  <unicode hex="002C"/>
  <outline>
    <contour>
      <point x="144" y="-134" type="line"/>
      <point x="167" y="-96"/>
      <point x="181" y="-50"/>
      <point x="181" y="1" type="curve" smooth="yes"/>
      <point x="181" y="125" type="line"/>
      <point x="100" y="118" type="line"/>
      <point x="102" y="0" type="line"/>
      <point x="141" y="-3" type="line"/>
      <point x="141" y="-44"/>
      <point x="131" y="-79"/>
      <point x="109" y="-117" type="curve"/>
    </contour>
  </outline>
</glyph>
<glyph name="hyphen" format="2">
  <advance width="399"/>
  <unicode hex="002D"/>
  <outline>
    <contour>
      <point x="75" y="259" type="line"/>
      <point x="75" y="259"/>
      <point x="136" y="261"/>
      <point x="195" y="261" type="curve"/>
      <point x="251" y="261"/>
      <point x="324" y="259"/>
      <point x="324" y="259" type="curve"/>
      <point x="321" y="321" type="line"/>
      <point x="321" y="321"/>
      <point x="263" y="317"/>
      <point x="201" y="318" type="curve"/>
      <point x="139" y="319"/>
      <point x="81" y="321"/>
      <point x="81" y="321" type="curve"/>
    </contour>
  </outline>
</glyph>
<glyph name="period" format="2">
  <advance width="277"/>
  <unicode hex="002E"/>
  <outline>
    <contour>
      <point x="174" y="0" type="line"/>
      <point x="177" y="132" type="line"/>
      <point x="100" y="126" type="line"/>
      <point x="102" y="0" type="line"/>
    </contour>
  </outline>
</glyph>
<glyph name="slash" format="2">
  <advance width="332"/>
  <unicode hex="002F"/>
  <outline>
    <contour>
      <point x="25" y="-1" type="curve"/>
      <point x="96" y="0" type="line"/>
      <point x="96" y="0"/>
      <point x="154" y="197"/>
      <point x="197" y="340" type="curve"/>
      <point x="240" y="484"/>
      <point x="307" y="695"/>
      <point x="307" y="695" type="curve"/>
      <point x="233" y="697" type="line"/>
      <point x="233" y="697"/>
      <point x="178" y="485"/>
      <point x="134" y="339" type="curve"/>
      <point x="91" y="193"/>
      <point x="25" y="-1"/>
    </contour>
  </outline>
</glyph>
<glyph name="zero" format="2">
  <advance width="522"/>
  <unicode hex="0030"/>
  <outline>
    <contour>
      <point x="254" y="-10" type="curve" smooth="yes"/>
      <point x="423" y="-10"/>
      <point x="445" y="157"/>
      <point x="445" y="342" type="curve" smooth="yes"/>
      <point x="445" y="538"/>
      <point x="432" y="707"/>
      <point x="268" y="707" type="curve" smooth="yes"/>
      <point x="104" y="707"/>
      <point x="77" y="535"/>
      <point x="77" y="343" type="curve" smooth="yes"/>
      <point x="77" y="144"/>
      <point x="93" y="-10"/>
    </contour>
    <contour>
      <point x="258" y="48" type="curve" smooth="yes"/>
      <point x="163" y="48"/>
      <point x="148" y="115"/>
      <point x="148" y="338" type="curve" smooth="yes"/>
      <point x="148" y="518"/>
      <point x="164" y="646"/>
      <point x="265" y="646" type="curve" smooth="yes"/>
      <point x="365" y="646"/>
      <point x="376" y="530"/>
      <point x="376" y="353" type="curve" smooth="yes"/>
      <point x="376" y="152"/>
      <point x="359" y="48"/>
    </contour>
  </outline>
</glyph>
<glyph name="one" format="2">
  <advance width="320"/>
  <unicode hex="0031"/>
  <outline>
    <contour>
      <point x="156" y="0" type="curve"/>
      <point x="237" y="0" type="line"/>
      <point x="233" y="99"/>
      <point x="232" y="176"/>
      <point x="232" y="341" type="curve" smooth="yes"/>
      <point x="232" y="503"/>
      <point x="235" y="592"/>
      <point x="238" y="694" type="curve"/>
      <point x="203" y="694" type="line"/>
      <point x="159" y="619" type="line"/>
      <point x="161" y="543"/>
      <point x="161" y="419"/>
      <point x="161" y="342" type="curve" smooth="yes"/>
      <point x="161" y="226"/>
      <point x="159" y="100"/>
    </contour>
    <contour>
      <point x="32" y="585" type="line"/>
      <point x="80" y="585"/>
      <point x="165" y="594"/>
      <point x="197" y="606" type="curve"/>
      <point x="203" y="694" type="line"/>
      <point x="173" y="668"/>
      <point x="77" y="652"/>
      <point x="28" y="645" type="curve"/>
    </contour>
  </outline>
</glyph>
<glyph name="two" format="2">
  <advance width="491"/>
  <unicode hex="0032"/>
  <outline>
    <contour>
      <point x="114" y="40" type="line"/>
      <point x="204" y="122"/>
      <point x="414" y="331"/>
      <point x="414" y="518" type="curve" smooth="yes"/>
      <point x="414" y="638"/>
      <point x="347" y="700"/>
      <point x="247" y="700" type="curve" smooth="yes"/>
      <point x="134" y="700"/>
      <point x="70" y="622"/>
      <point x="70" y="503" type="curve" smooth="yes"/>
      <point x="70" y="478"/>
      <point x="72" y="451"/>
      <point x="77" y="423" type="curve"/>
      <point x="143" y="424" type="line"/>
      <point x="138" y="451"/>
      <point x="136" y="479"/>
      <point x="136" y="503" type="curve" smooth="yes"/>
      <point x="136" y="582"/>
      <point x="167" y="636"/>
      <point x="243" y="636" type="curve" smooth="yes"/>
      <point x="308" y="636"/>
      <point x="341" y="602"/>
      <point x="341" y="506" type="curve" smooth="yes"/>
      <point x="341" y="340"/>
      <point x="158" y="174"/>
      <point x="53" y="62" type="curve"/>
    </contour>
    <contour>
      <point x="51" y="-4" type="line"/>
      <point x="89" y="-2"/>
      <point x="193" y="-1"/>
      <point x="239" y="0" type="curve" smooth="yes"/>
      <point x="250" y="0"/>
      <point x="391" y="0"/>
      <point x="421" y="0" type="curve"/>
      <point x="420" y="69" type="line"/>
      <point x="387" y="65"/>
      <point x="293" y="64"/>
      <point x="250" y="63" type="curve" smooth="yes"/>
      <point x="205" y="62"/>
      <point x="105" y="62"/>
      <point x="53" y="62" type="curve"/>
    </contour>
  </outline>
</glyph>
<glyph name="three" format="2">
  <advance width="455"/>
  <unicode hex="0033"/>
  <outline>
    <contour>
      <point x="222" y="-10" type="curve"/>
      <point x="347" y="-10"/>
      <point x="399" y="58"/>
      <point x="397" y="157" type="curve"/>
      <point x="396" y="241"/>
      <point x="343" y="288"/>
      <point x="279" y="300" type="curve"/>
      <point x="373" y="344"/>
      <point x="391" y="437"/>
      <point x="391" y="502" type="curve" smooth="yes"/>
      <point x="391" y="616"/>
      <point x="347" y="697"/>
      <point x="220" y="697" type="curve" smooth="yes"/>
      <point x="120" y="697"/>
      <point x="50" y="636"/>
      <point x="52" y="523" type="curve"/>
      <point x="121" y="523" type="line"/>
      <point x="120" y="591"/>
      <point x="143" y="636"/>
      <point x="218" y="636" type="curve"/>
      <point x="303" y="636"/>
      <point x="320" y="586"/>
      <point x="320" y="496" type="curve" smooth="yes"/>
      <point x="320" y="406"/>
      <point x="279" y="324"/>
      <point x="188" y="324" type="curve"/>
      <point x="171" y="324"/>
      <point x="127" y="325"/>
      <point x="114" y="326" type="curve"/>
      <point x="116" y="260" type="line"/>
      <point x="129" y="262"/>
      <point x="180" y="262"/>
      <point x="193" y="262" type="curve"/>
      <point x="278" y="262"/>
      <point x="326" y="240"/>
      <point x="328" y="149" type="curve"/>
      <point x="329" y="98"/>
      <point x="315" y="51"/>
      <point x="225" y="51" type="curve"/>
      <point x="153" y="51"/>
      <point x="120" y="87"/>
      <point x="119" y="125" type="curve"/>
      <point x="51" y="124" type="line"/>
      <point x="52" y="72"/>
      <point x="84" y="-10"/>
    </contour>
  </outline>
</glyph>
<glyph name="four" format="2">
  <advance width="494"/>
  <unicode hex="0034"/>
  <outline>
    <contour>
      <point x="99" y="177" type="line"/>
      <point x="115" y="215"/>
      <point x="155" y="304"/>
      <point x="196" y="394" type="curve" smooth="yes"/>
      <point x="243" y="494"/>
      <point x="290" y="595"/>
      <point x="304" y="624" type="curve"/>
      <point x="322" y="673"/>
      <point x="359" y="696"/>
      <point x="359" y="696" type="curve"/>
      <point x="259" y="700" type="line"/>
      <point x="222" y="617"/>
      <point x="178" y="519"/>
      <point x="136" y="425" type="curve" smooth="yes"/>
      <point x="101" y="348"/>
      <point x="67" y="273"/>
      <point x="36" y="209" type="curve"/>
    </contour>
    <contour>
      <point x="51" y="142" type="line"/>
      <point x="51" y="142"/>
      <point x="184" y="146"/>
      <point x="246" y="147" type="curve" smooth="yes"/>
      <point x="311" y="148"/>
      <point x="456" y="147"/>
      <point x="456" y="147" type="curve"/>
      <point x="456" y="216" type="line"/>
      <point x="456" y="216"/>
      <point x="314" y="210"/>
      <point x="245" y="207" type="curve" smooth="yes"/>
      <point x="178" y="205"/>
      <point x="36" y="209"/>
      <point x="36" y="209" type="curve"/>
    </contour>
    <contour>
      <point x="281" y="-3" type="curve"/>
      <point x="358" y="0" type="line"/>
      <point x="357" y="123"/>
      <point x="355" y="215"/>
      <point x="355" y="378" type="curve" smooth="yes"/>
      <point x="355" y="534"/>
      <point x="358" y="595"/>
      <point x="359" y="696" type="curve"/>
      <point x="282" y="687" type="line"/>
      <point x="282" y="576"/>
      <point x="285" y="495"/>
      <point x="285" y="380" type="curve" smooth="yes"/>
      <point x="285" y="264"/>
      <point x="281" y="102"/>
    </contour>
  </outline>
</glyph>
<glyph name="five" format="2">
  <advance width="477"/>
  <unicode hex="0035"/>
  <outline>
    <contour>
      <point x="230" y="-10" type="curve" smooth="yes"/>
      <point x="352" y="-10"/>
      <point x="426" y="70"/>
      <point x="426" y="223" type="curve" smooth="yes"/>
      <point x="426" y="314"/>
      <point x="397" y="444"/>
      <point x="253" y="444" type="curve" smooth="yes"/>
      <point x="198" y="444"/>
      <point x="150" y="415"/>
      <point x="125" y="373" type="curve"/>
      <point x="138" y="301" type="line"/>
      <point x="162" y="358"/>
      <point x="199" y="380"/>
      <point x="246" y="380" type="curve" smooth="yes"/>
      <point x="332" y="380"/>
      <point x="355" y="303"/>
      <point x="355" y="235" type="curve" smooth="yes"/>
      <point x="355" y="118"/>
      <point x="314" y="53"/>
      <point x="232" y="53" type="curve" smooth="yes"/>
      <point x="144" y="53"/>
      <point x="128" y="101"/>
      <point x="128" y="151" type="curve"/>
      <point x="58" y="147" type="line"/>
      <point x="58" y="57"/>
      <point x="114" y="-10"/>
    </contour>
    <contour>
      <point x="138" y="301" type="line"/>
      <point x="140" y="381"/>
      <point x="145" y="426"/>
      <point x="148" y="502" type="curve" smooth="yes"/>
      <point x="150" y="583"/>
      <point x="151" y="622"/>
      <point x="156" y="696" type="curve"/>
      <point x="79" y="702" type="line"/>
      <point x="79" y="702"/>
      <point x="81" y="590"/>
      <point x="79" y="505" type="curve" smooth="yes"/>
      <point x="77" y="427"/>
      <point x="71" y="363"/>
      <point x="69" y="297" type="curve"/>
    </contour>
    <contour>
      <point x="102" y="631" type="line"/>
      <point x="102" y="631"/>
      <point x="155" y="634"/>
      <point x="244" y="634" type="curve" smooth="yes"/>
      <point x="292" y="634"/>
      <point x="400" y="632"/>
      <point x="400" y="632" type="curve"/>
      <point x="404" y="697" type="line"/>
      <point x="404" y="697"/>
      <point x="295" y="697"/>
      <point x="242" y="698" type="curve" smooth="yes"/>
      <point x="199" y="697"/>
      <point x="79" y="701"/>
      <point x="79" y="701" type="curve"/>
    </contour>
  </outline>
</glyph>
<glyph name="six" format="2">
  <advance width="502"/>
  <unicode hex="0036"/>
  <outline>
    <contour>
      <point x="256" y="-10" type="curve" smooth="yes"/>
      <point x="356" y="-10"/>
      <point x="435" y="63"/>
      <point x="435" y="193" type="curve" smooth="yes"/>
      <point x="435" y="320"/>
      <point x="365" y="385"/>
      <point x="265" y="385" type="curve" smooth="yes"/>
      <point x="187" y="385"/>
      <point x="142" y="341"/>
      <point x="119" y="280" type="curve"/>
      <point x="143" y="203" type="line"/>
      <point x="146" y="285"/>
      <point x="194" y="321"/>
      <point x="263" y="321" type="curve" smooth="yes"/>
      <point x="331" y="321"/>
      <point x="365" y="278"/>
      <point x="365" y="191" type="curve" smooth="yes"/>
      <point x="365" y="108"/>
      <point x="320" y="53"/>
      <point x="259" y="53" type="curve" smooth="yes"/>
      <point x="145" y="53"/>
      <point x="141" y="171"/>
      <point x="141" y="279" type="curve" smooth="yes"/>
      <point x="141" y="516"/>
      <point x="159" y="652"/>
      <point x="271" y="652" type="curve" smooth="yes"/>
      <point x="339" y="652"/>
      <point x="358" y="589"/>
      <point x="358" y="525" type="curve" smooth="yes"/>
      <point x="358" y="507"/>
      <point x="356" y="489"/>
      <point x="354" y="472" type="curve"/>
      <point x="424" y="474" type="line"/>
      <point x="428" y="495"/>
      <point x="430" y="516"/>
      <point x="430" y="537" type="curve" smooth="yes"/>
      <point x="430" y="629"/>
      <point x="389" y="713"/>
      <point x="277" y="713" type="curve" smooth="yes"/>
      <point x="148" y="713"/>
      <point x="70" y="622"/>
      <point x="70" y="321" type="curve" smooth="yes"/>
      <point x="70" y="86"/>
      <point x="117" y="-10"/>
    </contour>
  </outline>
</glyph>
<glyph name="seven" format="2">
  <advance width="399"/>
  <unicode hex="0037"/>
  <outline>
    <contour>
      <point x="113" y="-1" type="curve"/>
      <point x="193" y="0" type="line"/>
      <point x="191" y="166"/>
      <point x="209" y="288"/>
      <point x="237" y="381" type="curve" smooth="yes"/>
      <point x="270" y="493"/>
      <point x="318" y="565"/>
      <point x="363" y="627" type="curve"/>
      <point x="363" y="700" type="line"/>
      <point x="296" y="645"/>
      <point x="225" y="545"/>
      <point x="176" y="407" type="curve" smooth="yes"/>
      <point x="136" y="295"/>
      <point x="111" y="157"/>
    </contour>
    <contour>
      <point x="30" y="629" type="line"/>
      <point x="66" y="630"/>
      <point x="131" y="631"/>
      <point x="178" y="631" type="curve" smooth="yes"/>
      <point x="224" y="631"/>
      <point x="319" y="634"/>
      <point x="356" y="633" type="curve"/>
      <point x="363" y="700" type="line"/>
      <point x="323" y="699"/>
      <point x="237" y="698"/>
      <point x="191" y="698" type="curve" smooth="yes"/>
      <point x="142" y="698"/>
      <point x="66" y="698"/>
      <point x="29" y="700" type="curve"/>
    </contour>
  </outline>
</glyph>
<glyph name="eight" format="2">
  <advance width="480"/>
  <unicode hex="0038"/>
  <outline>
    <contour>
      <point x="232" y="272" type="curve" smooth="yes"/>
      <point x="342" y="272"/>
      <point x="411" y="340"/>
      <point x="411" y="481" type="curve" smooth="yes"/>
      <point x="411" y="613"/>
      <point x="369" y="707"/>
      <point x="244" y="707" type="curve" smooth="yes"/>
      <point x="113" y="707"/>
      <point x="69" y="598"/>
      <point x="69" y="471" type="curve" smooth="yes"/>
      <point x="69" y="355"/>
      <point x="132" y="272"/>
    </contour>
    <contour>
      <point x="231" y="-10" type="curve" smooth="yes"/>
      <point x="357" y="-10"/>
      <point x="430" y="46"/>
      <point x="430" y="161" type="curve" smooth="yes"/>
      <point x="430" y="249"/>
      <point x="384" y="331"/>
      <point x="245" y="331" type="curve" smooth="yes"/>
      <point x="97" y="331"/>
      <point x="50" y="237"/>
      <point x="50" y="153" type="curve" smooth="yes"/>
      <point x="50" y="58"/>
      <point x="115" y="-10"/>
    </contour>
    <contour>
      <point x="240" y="48" type="curve" smooth="yes"/>
      <point x="151" y="48"/>
      <point x="119" y="88"/>
      <point x="119" y="160" type="curve" smooth="yes"/>
      <point x="119" y="230"/>
      <point x="159" y="272"/>
      <point x="240" y="272" type="curve" smooth="yes"/>
      <point x="321" y="274"/>
      <point x="359" y="239"/>
      <point x="361" y="154" type="curve" smooth="yes"/>
      <point x="361" y="88"/>
      <point x="334" y="48"/>
    </contour>
    <contour>
      <point x="240" y="331" type="curve" smooth="yes"/>
      <point x="167" y="331"/>
      <point x="140" y="395"/>
      <point x="140" y="483" type="curve" smooth="yes"/>
      <point x="140" y="591"/>
      <point x="168" y="643"/>
      <point x="243" y="643" type="curve" smooth="yes"/>
      <point x="318" y="643"/>
      <point x="341" y="601"/>
      <point x="341" y="476" type="curve" smooth="yes"/>
      <point x="341" y="395"/>
      <point x="313" y="331"/>
    </contour>
  </outline>
</glyph>
<glyph name="nine" format="2">
  <advance width="502"/>
  <unicode hex="0039"/>
  <outline>
    <contour>
      <point x="228" y="-10" type="curve" smooth="yes"/>
      <point x="357" y="-10"/>
      <point x="435" y="81"/>
      <point x="435" y="382" type="curve" smooth="yes"/>
      <point x="435" y="617"/>
      <point x="388" y="713"/>
      <point x="249" y="713" type="curve" smooth="yes"/>
      <point x="139" y="713"/>
      <point x="70" y="620"/>
      <point x="70" y="480" type="curve" smooth="yes"/>
      <point x="70" y="343"/>
      <point x="130" y="258"/>
      <point x="240" y="258" type="curve" smooth="yes"/>
      <point x="318" y="258"/>
      <point x="365" y="302"/>
      <point x="388" y="363" type="curve"/>
      <point x="364" y="440" type="line"/>
      <point x="361" y="358"/>
      <point x="311" y="322"/>
      <point x="242" y="322" type="curve" smooth="yes"/>
      <point x="164" y="322"/>
      <point x="140" y="385"/>
      <point x="140" y="482" type="curve" smooth="yes"/>
      <point x="140" y="575"/>
      <point x="175" y="650"/>
      <point x="246" y="650" type="curve" smooth="yes"/>
      <point x="360" y="650"/>
      <point x="364" y="532"/>
      <point x="364" y="424" type="curve" smooth="yes"/>
      <point x="364" y="187"/>
      <point x="346" y="51"/>
      <point x="234" y="51" type="curve" smooth="yes"/>
      <point x="176" y="51"/>
      <point x="150" y="84"/>
      <point x="150" y="147" type="curve" smooth="yes"/>
      <point x="150" y="154"/>
      <point x="150" y="162"/>
      <point x="151" y="171" type="curve"/>
      <point x="81" y="169" type="line"/>
      <point x="80" y="160"/>
      <point x="80" y="150"/>
      <point x="80" y="142" type="curve" smooth="yes"/>
      <point x="80" y="50"/>
      <point x="131" y="-10"/>
    </contour>
  </outline>
</glyph>
<glyph name="colon" format="2">
  <advance width="276"/>
  <unicode hex="003A"/>
  <outline>
    <contour>
      <point x="176" y="0" type="line"/>
      <point x="176" y="138" type="line"/>
      <point x="100" y="131" type="line"/>
      <point x="103" y="0" type="line"/>
    </contour>
    <contour>
      <point x="176" y="383" type="line"/>
      <point x="176" y="520" type="line"/>
      <point x="100" y="513" type="line"/>
      <point x="103" y="383" type="line"/>
    </contour>
  </outline>
</glyph>
<glyph name="semicolon" format="2">
  <advance width="281"/>
  <unicode hex="003B"/>
  <outline>
    <contour>
      <point x="144" y="-134" type="line"/>
      <point x="167" y="-96"/>
      <point x="181" y="-50"/>
      <point x="181" y="1" type="curve" smooth="yes"/>
      <point x="181" y="125" type="line"/>
      <point x="100" y="118" type="line"/>
      <point x="102" y="0" type="line"/>
      <point x="141" y="-3" type="line"/>
      <point x="141" y="-44"/>
      <point x="131" y="-79"/>
      <point x="109" y="-117" type="curve"/>
    </contour>
    <contour>
      <point x="179" y="383" type="line"/>
      <point x="179" y="520" type="line"/>
      <point x="103" y="513" type="line"/>
      <point x="106" y="383" type="line"/>
    </contour>
  </outline>
</glyph>
<glyph name="question" format="2">
  <advance width="546"/>
  <unicode hex="003F"/>
  <guideline x="461" y="767" angle="90"/>
  <guideline x="371" y="767" angle="90"/>
  <outline>
    <contour>
      <point x="305" y="215" type="line"/>
      <point x="301" y="235"/>
      <point x="298" y="251"/>
      <point x="298" y="276" type="curve" smooth="yes"/>
      <point x="298" y="326"/>
      <point x="325" y="355"/>
      <point x="357" y="385" type="curve" smooth="yes"/>
      <point x="398" y="425"/>
      <point x="446" y="466"/>
      <point x="446" y="563" type="curve" smooth="yes"/>
      <point x="446" y="663"/>
      <point x="375" y="716"/>
      <point x="281" y="716" type="curve" smooth="yes"/>
      <point x="187" y="716"/>
      <point x="100" y="658"/>
      <point x="100" y="542" type="curve" smooth="yes"/>
      <point x="100" y="515"/>
      <point x="104" y="486"/>
      <point x="113" y="456" type="curve"/>
      <point x="184" y="455" type="line"/>
      <point x="174" y="486"/>
      <point x="170" y="515"/>
      <point x="170" y="540" type="curve" smooth="yes"/>
      <point x="170" y="618"/>
      <point x="219" y="654"/>
      <point x="274" y="654" type="curve" smooth="yes"/>
      <point x="335" y="654"/>
      <point x="374" y="624"/>
      <point x="374" y="558" type="curve" smooth="yes"/>
      <point x="374" y="498"/>
      <point x="342" y="465"/>
      <point x="307" y="431" type="curve" smooth="yes"/>
      <point x="269" y="393"/>
      <point x="228" y="356"/>
      <point x="228" y="282" type="curve" smooth="yes"/>
      <point x="228" y="257"/>
      <point x="231" y="231"/>
      <point x="234" y="216" type="curve"/>
    </contour>
    <contour>
      <point x="314" y="-3" type="line"/>
      <point x="305" y="128" type="line"/>
      <point x="235" y="126" type="line"/>
      <point x="234" y="0" type="line"/>
    </contour>
  </outline>
</glyph>
<glyph name="at" format="2">
  <advance width="938"/>
  <unicode hex="0040"/>
  <outline>
    <contour>
      <point x="441" y="-164" type="curve" smooth="yes"/>
      <point x="542" y="-164"/>
      <point x="630" y="-148"/>
      <point x="702" y="-112" type="curve"/>
      <point x="678" y="-65" type="line"/>
      <point x="617" y="-96"/>
      <point x="533" y="-111"/>
      <point x="441" y="-111" type="curve" smooth="yes"/>
      <point x="226" y="-111"/>
      <point x="123" y="62"/>
      <point x="123" y="244" type="curve" smooth="yes"/>
      <point x="123" y="444"/>
      <point x="249" y="655"/>
      <point x="491" y="655" type="curve" smooth="yes"/>
      <point x="729" y="655"/>
      <point x="812" y="495"/>
      <point x="812" y="330" type="curve" smooth="yes"/>
      <point x="812" y="185"/>
      <point x="739" y="43"/>
      <point x="634" y="43" type="curve" smooth="yes"/>
      <point x="590" y="43"/>
      <point x="588" y="85"/>
      <point x="588" y="118" type="curve" smooth="yes"/>
      <point x="588" y="148"/>
      <point x="630" y="434"/>
      <point x="646" y="565" type="curve"/>
      <point x="572" y="555" type="line"/>
      <point x="564" y="500" type="line"/>
      <point x="542" y="539"/>
      <point x="504" y="560"/>
      <point x="463" y="560" type="curve" smooth="yes"/>
      <point x="359" y="560"/>
      <point x="254" y="450"/>
      <point x="254" y="187" type="curve" smooth="yes"/>
      <point x="254" y="59"/>
      <point x="302" y="-10"/>
      <point x="382" y="-10" type="curve" smooth="yes"/>
      <point x="436" y="-10"/>
      <point x="480" y="16"/>
      <point x="524" y="75" type="curve"/>
      <point x="531" y="35"/>
      <point x="561" y="-10"/>
      <point x="625" y="-10" type="curve" smooth="yes"/>
      <point x="776" y="-10"/>
      <point x="876" y="164"/>
      <point x="876" y="339" type="curve" smooth="yes"/>
      <point x="876" y="528"/>
      <point x="772" y="708"/>
      <point x="491" y="708" type="curve" smooth="yes"/>
      <point x="209" y="708"/>
      <point x="62" y="471"/>
      <point x="62" y="244" type="curve" smooth="yes"/>
      <point x="62" y="36"/>
      <point x="186" y="-164"/>
    </contour>
    <contour>
      <point x="397" y="50" type="curve" smooth="yes"/>
      <point x="345" y="50"/>
      <point x="319" y="94"/>
      <point x="319" y="197" type="curve" smooth="yes"/>
      <point x="319" y="407"/>
      <point x="389" y="500"/>
      <point x="464" y="500" type="curve" smooth="yes"/>
      <point x="539" y="500"/>
      <point x="557" y="422"/>
      <point x="546" y="334" type="curve" smooth="yes"/>
      <point x="534" y="242" type="line" smooth="yes"/>
      <point x="519" y="124"/>
      <point x="460" y="50"/>
    </contour>
  </outline>
</glyph>
<glyph name="A" format="2">
  <advance width="467"/>
  <unicode hex="0041"/>
  <anchor x="229" y="0" name="bottom"/>
  <anchor x="410" y="0" name="ogonek"/>
  <anchor x="234" y="693" name="top"/>
  <outline>
    <contour>
      <point x="360" y="-6" type="curve"/>
      <point x="436" y="-1" type="line"/>
      <point x="413" y="90"/>
      <point x="383" y="225"/>
      <point x="355" y="357" type="curve" smooth="yes"/>
      <point x="327" y="490"/>
      <point x="302" y="622"/>
      <point x="288" y="704" type="curve"/>
      <point x="180" y="702" type="line"/>
      <point x="229" y="642" type="line"/>
      <point x="247" y="546"/>
      <point x="268" y="444"/>
      <point x="289" y="342" type="curve" smooth="yes"/>
      <point x="314" y="222"/>
      <point x="339" y="103"/>
    </contour>
    <contour>
      <point x="101" y="161" type="line"/>
      <point x="357" y="169" type="line"/>
      <point x="357" y="225" type="line"/>
      <point x="101" y="230" type="line"/>
    </contour>
    <contour>
      <point x="101" y="5" type="line"/>
      <point x="124" y="110"/>
      <point x="148" y="229"/>
      <point x="173" y="349" type="curve" smooth="yes"/>
      <point x="193" y="447"/>
      <point x="214" y="545"/>
      <point x="235" y="636" type="curve"/>
      <point x="288" y="704" type="line"/>
      <point x="180" y="702" type="line"/>
      <point x="164" y="619"/>
      <point x="138" y="489"/>
      <point x="109" y="358" type="curve" smooth="yes"/>
      <point x="81" y="227"/>
      <point x="52" y="94"/>
      <point x="31" y="6" type="curve"/>
    </contour>
  </outline>
</glyph>
<glyph name="B" format="2">
  <advance width="462"/>
  <unicode hex="0042"/>
  <outline>
    <contour>
      <point x="133" y="211" type="line"/>
      <point x="301" y="211"/>
      <point x="406" y="288"/>
      <point x="406" y="472" type="curve" smooth="yes"/>
      <point x="406" y="666"/>
      <point x="344" y="719"/>
      <point x="191" y="719" type="curve" smooth="yes"/>
      <point x="158" y="719"/>
      <point x="121" y="717"/>
      <point x="80" y="713" type="curve"/>
      <point x="103" y="648" type="line"/>
      <point x="139" y="654"/>
      <point x="170" y="658"/>
      <point x="197" y="658" type="curve" smooth="yes"/>
      <point x="302" y="658"/>
      <point x="336" y="605"/>
      <point x="336" y="469" type="curve" smooth="yes"/>
      <point x="336" y="315"/>
      <point x="278" y="262"/>
      <point x="129" y="262" type="curve"/>
    </contour>
    <contour>
      <point x="189" y="-10" type="curve" smooth="yes"/>
      <point x="316" y="-10"/>
      <point x="413" y="14"/>
      <point x="413" y="124" type="curve" smooth="yes"/>
      <point x="413" y="217"/>
      <point x="345" y="265"/>
      <point x="129" y="262" type="curve"/>
      <point x="133" y="204" type="line"/>
      <point x="147" y="205"/>
      <point x="198" y="204"/>
      <point x="209" y="204" type="curve" smooth="yes"/>
      <point x="318" y="204"/>
      <point x="343" y="171"/>
      <point x="343" y="126" type="curve" smooth="yes"/>
      <point x="343" y="67"/>
      <point x="291" y="52"/>
      <point x="222" y="52" type="curve" smooth="yes"/>
      <point x="188" y="52"/>
      <point x="149" y="56"/>
      <point x="111" y="60" type="curve"/>
      <point x="77" y="-6" type="line"/>
      <point x="116" y="-8"/>
      <point x="154" y="-10"/>
    </contour>
    <contour>
      <point x="77" y="-6" type="curve"/>
      <point x="154" y="4" type="line"/>
      <point x="154" y="4"/>
      <point x="149" y="216"/>
      <point x="149" y="335" type="curve" smooth="yes"/>
      <point x="149" y="451"/>
      <point x="158" y="704"/>
      <point x="158" y="704" type="curve"/>
      <point x="80" y="713" type="line"/>
      <point x="80" y="713"/>
      <point x="81" y="504"/>
      <point x="81" y="333" type="curve" smooth="yes"/>
      <point x="81" y="162"/>
      <point x="77" y="-6"/>
    </contour>
  </outline>
</glyph>
<glyph name="C" format="2">
  <advance width="456"/>
  <unicode hex="0043"/>
  <anchor x="235" y="0" name="bottom"/>
  <anchor x="243" y="693" name="top"/>
  <outline>
    <contour>
      <point x="241" y="-10" type="curve"/>
      <point x="345" y="-10"/>
      <point x="397" y="59"/>
      <point x="397" y="155" type="curve" smooth="yes"/>
      <point x="397" y="172"/>
      <point x="395" y="190"/>
      <point x="392" y="208" type="curve"/>
      <point x="326" y="208" type="line"/>
      <point x="327" y="191"/>
      <point x="329" y="171"/>
      <point x="329" y="156" type="curve" smooth="yes"/>
      <point x="329" y="87"/>
      <point x="311" y="51"/>
      <point x="240" y="51" type="curve" smooth="yes"/>
      <point x="179" y="51"/>
      <point x="159" y="87"/>
      <point x="145" y="157" type="curve" smooth="yes"/>
      <point x="136" y="203"/>
      <point x="135" y="269"/>
      <point x="135" y="336" type="curve" smooth="yes"/>
      <point x="135" y="389"/>
      <point x="136" y="462"/>
      <point x="146" y="519" type="curve" smooth="yes"/>
      <point x="159" y="591"/>
      <point x="189" y="641"/>
      <point x="247" y="641" type="curve" smooth="yes"/>
      <point x="313" y="641"/>
      <point x="331" y="582"/>
      <point x="331" y="492" type="curve" smooth="yes"/>
      <point x="331" y="445"/>
      <point x="325" y="395"/>
      <point x="320" y="353" type="curve"/>
      <point x="389" y="352" type="line"/>
      <point x="397" y="405"/>
      <point x="403" y="457"/>
      <point x="403" y="505" type="curve" smooth="yes"/>
      <point x="403" y="616"/>
      <point x="370" y="701"/>
      <point x="251" y="701" type="curve" smooth="yes"/>
      <point x="150" y="701"/>
      <point x="103" y="634"/>
      <point x="81" y="541" type="curve" smooth="yes"/>
      <point x="66" y="481"/>
      <point x="63" y="410"/>
      <point x="63" y="340" type="curve" smooth="yes"/>
      <point x="63" y="266"/>
      <point x="65" y="198"/>
      <point x="77" y="142" type="curve" smooth="yes"/>
      <point x="96" y="49"/>
      <point x="140" y="-10"/>
    </contour>
  </outline>
</glyph>
<glyph name="D" format="2">
  <advance width="477"/>
  <unicode hex="0044"/>
  <anchor x="155" y="348" name="center"/>
  <anchor x="229" y="693" name="top"/>
  <outline>
    <contour>
      <point x="187" y="-10" type="curve" smooth="yes"/>
      <point x="378" y="-10"/>
      <point x="414" y="90"/>
      <point x="414" y="359" type="curve" smooth="yes"/>
      <point x="414" y="628"/>
      <point x="373" y="708"/>
      <point x="187" y="708" type="curve" smooth="yes"/>
      <point x="155" y="708"/>
      <point x="118" y="706"/>
      <point x="77" y="702" type="curve"/>
      <point x="100" y="636" type="line"/>
      <point x="138" y="644"/>
      <point x="170" y="647"/>
      <point x="197" y="647" type="curve" smooth="yes"/>
      <point x="333" y="647"/>
      <point x="344" y="545"/>
      <point x="344" y="354" type="curve" smooth="yes"/>
      <point x="344" y="146"/>
      <point x="326" y="57"/>
      <point x="200" y="57" type="curve" smooth="yes"/>
      <point x="178" y="57"/>
      <point x="153" y="59"/>
      <point x="125" y="64" type="curve"/>
      <point x="80" y="-3" type="line"/>
      <point x="120" y="-8"/>
      <point x="155" y="-10"/>
    </contour>
    <contour>
      <point x="80" y="-3" type="curve"/>
      <point x="155" y="-3" type="line"/>
      <point x="153" y="104"/>
      <point x="151" y="277"/>
      <point x="151" y="361" type="curve"/>
      <point x="152" y="459"/>
      <point x="153" y="616"/>
      <point x="154" y="692" type="curve"/>
      <point x="77" y="702" type="line"/>
      <point x="80" y="630"/>
      <point x="84" y="488"/>
      <point x="84" y="363" type="curve"/>
      <point x="84" y="238"/>
      <point x="82" y="81"/>
    </contour>
  </outline>
</glyph>
<glyph name="E" format="2">
  <advance width="423"/>
  <unicode hex="0045"/>
  <anchor x="226" y="0" name="bottom"/>
  <anchor x="329" y="-3" name="ogonek"/>
  <anchor x="228" y="693" name="top"/>
  <outline>
    <contour>
      <point x="77" y="-5" type="curve"/>
      <point x="155" y="5" type="line"/>
      <point x="155" y="5"/>
      <point x="151" y="277"/>
      <point x="151" y="393" type="curve"/>
      <point x="151" y="509"/>
      <point x="154" y="690"/>
      <point x="154" y="690" type="curve"/>
      <point x="77" y="699" type="line"/>
      <point x="77" y="699"/>
      <point x="80" y="562"/>
      <point x="80" y="391" type="curve"/>
      <point x="80" y="220"/>
      <point x="77" y="-5"/>
    </contour>
    <contour>
      <point x="77" y="-5" type="line"/>
      <point x="375" y="0" type="line"/>
      <point x="375" y="61" type="line"/>
      <point x="121" y="66" type="line"/>
    </contour>
    <contour>
      <point x="116" y="203" type="line"/>
      <point x="370" y="207" type="line"/>
      <point x="372" y="268" type="line"/>
      <point x="116" y="271" type="line"/>
    </contour>
    <contour>
      <point x="109" y="625" type="line"/>
      <point x="363" y="626" type="line"/>
      <point x="363" y="693" type="line"/>
      <point x="77" y="699" type="line"/>
    </contour>
  </outline>
</glyph>
<glyph name="F" format="2">
  <advance width="400"/>
  <unicode hex="0046"/>
  <outline>
    <contour>
      <point x="77" y="-3" type="curve"/>
      <point x="154" y="0" type="line"/>
      <point x="154" y="0"/>
      <point x="150" y="206"/>
      <point x="150" y="322" type="curve"/>
      <point x="150" y="438"/>
      <point x="154" y="699"/>
      <point x="154" y="699" type="curve"/>
      <point x="78" y="709" type="line"/>
      <point x="78" y="709"/>
      <point x="81" y="495"/>
      <point x="81" y="324" type="curve"/>
      <point x="81" y="153"/>
      <point x="77" y="-3"/>
    </contour>
    <contour>
      <point x="118" y="241" type="line"/>
      <point x="349" y="250" type="line"/>
      <point x="347" y="307" type="line"/>
      <point x="118" y="309" type="line"/>
    </contour>
    <contour>
      <point x="121" y="638" type="line"/>
      <point x="345" y="640" type="line"/>
      <point x="348" y="702" type="line"/>
      <point x="78" y="709" type="line"/>
    </contour>
  </outline>
</glyph>
<glyph name="G" format="2">
  <advance width="459"/>
  <unicode hex="0047"/>
  <anchor x="234" y="0" name="bottom"/>
  <anchor x="237" y="693" name="top"/>
  <outline>
    <contour>
      <point x="63" y="347" type="curve" smooth="yes"/>
      <point x="63" y="279"/>
      <point x="64" y="209"/>
      <point x="76" y="150" type="curve" smooth="yes"/>
      <point x="94" y="60"/>
      <point x="135" y="-7"/>
      <point x="229" y="-7" type="curve" smooth="yes"/>
      <point x="300" y="-7"/>
      <point x="329" y="16"/>
      <point x="353" y="39" type="curve"/>
      <point x="365" y="0" type="line"/>
      <point x="401" y="0" type="line"/>
      <point x="395" y="258" type="line"/>
      <point x="240" y="260" type="line"/>
      <point x="240" y="198" type="line"/>
      <point x="330" y="200" type="line"/>
      <point x="332" y="184"/>
      <point x="334" y="169"/>
      <point x="334" y="156" type="curve" smooth="yes"/>
      <point x="334" y="92"/>
      <point x="306" y="55"/>
      <point x="239" y="55" type="curve" smooth="yes"/>
      <point x="181" y="55"/>
      <point x="155" y="93"/>
      <point x="144" y="164" type="curve" smooth="yes"/>
      <point x="136" y="210"/>
      <point x="135" y="270"/>
      <point x="135" y="342" type="curve" smooth="yes"/>
      <point x="135" y="406"/>
      <point x="137" y="472"/>
      <point x="147" y="527" type="curve" smooth="yes"/>
      <point x="160" y="598"/>
      <point x="188" y="649"/>
      <point x="246" y="649" type="curve" smooth="yes"/>
      <point x="307" y="649"/>
      <point x="327" y="608"/>
      <point x="327" y="530" type="curve" smooth="yes"/>
      <point x="327" y="490"/>
      <point x="322" y="442"/>
      <point x="314" y="384" type="curve"/>
      <point x="384" y="384" type="line"/>
      <point x="391" y="434"/>
      <point x="395" y="481"/>
      <point x="395" y="522" type="curve" smooth="yes"/>
      <point x="395" y="637"/>
      <point x="361" y="710"/>
      <point x="248" y="710" type="curve" smooth="yes"/>
      <point x="154" y="710"/>
      <point x="105" y="650"/>
      <point x="82" y="552" type="curve" smooth="yes"/>
      <point x="68" y="495"/>
      <point x="63" y="425"/>
    </contour>
  </outline>
</glyph>
<glyph name="H" format="2">
  <advance width="502"/>
  <unicode hex="0048"/>
  <anchor x="249" y="0" name="bottom"/>
  <anchor x="248" y="459" name="center"/>
  <anchor x="248" y="693" name="top"/>
  <outline>
    <contour>
      <point x="336" y="0" type="curve"/>
      <point x="421" y="0" type="line"/>
      <point x="421" y="0"/>
      <point x="416" y="212"/>
      <point x="416" y="383" type="curve"/>
      <point x="416" y="554"/>
      <point x="425" y="708"/>
      <point x="425" y="708" type="curve"/>
      <point x="341" y="706" type="line"/>
      <point x="341" y="706"/>
      <point x="345" y="497"/>
      <point x="345" y="381" type="curve"/>
      <point x="345" y="269"/>
      <point x="336" y="0"/>
    </contour>
    <contour>
      <point x="129" y="251" type="line"/>
      <point x="129" y="191" type="line"/>
      <point x="384" y="187" type="line"/>
      <point x="384" y="258" type="line"/>
    </contour>
    <contour>
      <point x="81" y="2" type="curve"/>
      <point x="162" y="3" type="line"/>
      <point x="162" y="3"/>
      <point x="157" y="235"/>
      <point x="157" y="352" type="curve"/>
      <point x="157" y="468"/>
      <point x="161" y="698"/>
      <point x="161" y="698" type="curve"/>
      <point x="77" y="694" type="line"/>
      <point x="77" y="694"/>
      <point x="86" y="524"/>
      <point x="86" y="353" type="curve"/>
      <point x="86" y="183"/>
      <point x="81" y="2"/>
    </contour>
  </outline>
</glyph>
<glyph name="I" format="2">
  <advance width="239"/>
  <unicode hex="0049"/>
  <anchor x="117" y="0" name="bottom"/>
  <anchor x="122" y="-3" name="ogonek"/>
  <anchor x="119" y="693" name="top"/>
  <outline>
    <contour>
      <point x="81" y="699" type="line"/>
      <point x="83" y="657"/>
      <point x="82" y="487"/>
      <point x="82" y="328" type="curve"/>
      <point x="82" y="157"/>
      <point x="77" y="1"/>
      <point x="77" y="1" type="curve"/>
      <point x="157" y="-1" type="line"/>
      <point x="157" y="-1"/>
      <point x="152" y="213"/>
      <point x="152" y="330" type="curve"/>
      <point x="152" y="446"/>
      <point x="162" y="701"/>
      <point x="162" y="701" type="curve"/>
    </contour>
  </outline>
</glyph>
<glyph name="J" format="2">
  <advance width="418"/>
  <unicode hex="004A"/>
  <anchor x="302" y="693" name="top"/>
  <outline>
    <contour>
      <point x="187" y="-10" type="curve"/>
      <point x="305" y="-10"/>
      <point x="343" y="74"/>
      <point x="343" y="201" type="curve"/>
      <point x="343" y="271"/>
      <point x="343" y="334"/>
      <point x="343" y="402" type="curve"/>
      <point x="343" y="492"/>
      <point x="343" y="604"/>
      <point x="345" y="697" type="curve"/>
      <point x="267" y="695" type="line"/>
      <point x="271" y="608"/>
      <point x="272" y="464"/>
      <point x="272" y="396" type="curve"/>
      <point x="273" y="319"/>
      <point x="273" y="243"/>
      <point x="273" y="203" type="curve"/>
      <point x="273" y="120"/>
      <point x="259" y="48"/>
      <point x="189" y="48" type="curve"/>
      <point x="122" y="48"/>
      <point x="102" y="94"/>
      <point x="102" y="179" type="curve" smooth="yes"/>
      <point x="102" y="213"/>
      <point x="105" y="253"/>
      <point x="110" y="298" type="curve"/>
      <point x="46" y="299" type="line"/>
      <point x="41" y="259"/>
      <point x="36" y="219"/>
      <point x="36" y="181" type="curve" smooth="yes"/>
      <point x="36" y="77"/>
      <point x="67" y="-10"/>
    </contour>
  </outline>
</glyph>
<glyph name="K" format="2">
  <advance width="449"/>
  <unicode hex="004B"/>
  <anchor x="244" y="0" name="bottom"/>
  <outline>
    <contour>
      <point x="347" y="1" type="curve"/>
      <point x="443" y="5" type="line"/>
      <point x="357" y="104"/>
      <point x="271" y="207"/>
      <point x="197" y="301" type="curve"/>
      <point x="256" y="405"/>
      <point x="374" y="605"/>
      <point x="436" y="704" type="curve"/>
      <point x="354" y="702" type="line"/>
      <point x="307" y="609"/>
      <point x="211" y="435"/>
      <point x="121" y="281" type="curve"/>
      <point x="199" y="190"/>
      <point x="281" y="89"/>
    </contour>
    <contour>
      <point x="77" y="0" type="curve"/>
      <point x="157" y="0" type="line"/>
      <point x="157" y="0"/>
      <point x="153" y="212"/>
      <point x="153" y="357" type="curve"/>
      <point x="153" y="503"/>
      <point x="159" y="702"/>
      <point x="159" y="702" type="curve"/>
      <point x="80" y="703" type="line"/>
      <point x="80" y="703"/>
      <point x="83" y="499"/>
      <point x="83" y="356" type="curve"/>
      <point x="83" y="213"/>
      <point x="77" y="0"/>
    </contour>
  </outline>
</glyph>
<glyph name="M" format="2">
  <advance width="674"/>
  <unicode hex="004D"/>
  <outline>
    <contour>
      <point x="77" y="-1" type="curve"/>
      <point x="146" y="-1" type="line"/>
      <point x="145" y="123"/>
      <point x="144" y="252"/>
      <point x="143" y="357" type="curve" smooth="yes"/>
      <point x="143" y="474"/>
      <point x="142" y="563"/>
      <point x="142" y="584" type="curve"/>
      <point x="162" y="519"/>
      <point x="180" y="450"/>
      <point x="199" y="374" type="curve" smooth="yes"/>
      <point x="225" y="271"/>
      <point x="253" y="153"/>
      <point x="290" y="10" type="curve"/>
      <point x="377" y="7" type="line"/>
      <point x="418" y="163"/>
      <point x="446" y="274"/>
      <point x="469" y="368" type="curve" smooth="yes"/>
      <point x="489" y="447"/>
      <point x="505" y="514"/>
      <point x="525" y="587" type="curve"/>
      <point x="526" y="517"/>
      <point x="526" y="449"/>
      <point x="526" y="358" type="curve" smooth="yes"/>
      <point x="525" y="268"/>
      <point x="525" y="157"/>
      <point x="524" y="0" type="curve"/>
      <point x="597" y="-2" type="line"/>
      <point x="595" y="102"/>
      <point x="594" y="239"/>
      <point x="594" y="369" type="curve" smooth="yes"/>
      <point x="594" y="499"/>
      <point x="595" y="622"/>
      <point x="596" y="697" type="curve"/>
      <point x="485" y="697" type="line"/>
      <point x="466" y="620"/>
      <point x="436" y="492"/>
      <point x="406" y="365" type="curve" smooth="yes"/>
      <point x="380" y="256"/>
      <point x="354" y="149"/>
      <point x="334" y="75" type="curve"/>
      <point x="315" y="147"/>
      <point x="289" y="251"/>
      <point x="263" y="357" type="curve" smooth="yes"/>
      <point x="231" y="485"/>
      <point x="200" y="618"/>
      <point x="181" y="704" type="curve"/>
      <point x="78" y="702" type="line"/>
      <point x="80" y="610"/>
      <point x="80" y="476"/>
      <point x="80" y="344" type="curve" smooth="yes"/>
      <point x="80" y="215"/>
      <point x="79" y="87"/>
    </contour>
  </outline>
</glyph>
<glyph name="N" format="2">
  <advance width="509"/>
  <unicode hex="004E"/>
  <anchor x="257" y="0" name="bottom"/>
  <anchor x="260" y="693" name="top"/>
  <outline>
    <contour>
      <point x="77" y="704" type="line"/>
      <point x="80" y="614"/>
      <point x="82" y="481"/>
      <point x="82" y="349" type="curve" smooth="yes"/>
      <point x="82" y="220"/>
      <point x="81" y="91"/>
      <point x="80" y="1" type="curve"/>
      <point x="152" y="0" type="line"/>
      <point x="150" y="121"/>
      <point x="150" y="239"/>
      <point x="149" y="342" type="curve" smooth="yes"/>
      <point x="149" y="441"/>
      <point x="148" y="528"/>
      <point x="148" y="593" type="curve"/>
      <point x="169" y="530"/>
      <point x="194" y="445"/>
      <point x="220" y="355" type="curve" smooth="yes"/>
      <point x="255" y="233"/>
      <point x="291" y="101"/>
      <point x="318" y="1" type="curve"/>
      <point x="430" y="9" type="line"/>
      <point x="428" y="108"/>
      <point x="427" y="241"/>
      <point x="427" y="369" type="curve" smooth="yes"/>
      <point x="427" y="503"/>
      <point x="429" y="633"/>
      <point x="432" y="715" type="curve"/>
      <point x="357" y="715" type="line"/>
      <point x="359" y="598"/>
      <point x="359" y="482"/>
      <point x="360" y="374" type="curve" smooth="yes"/>
      <point x="360" y="280"/>
      <point x="361" y="191"/>
      <point x="361" y="110" type="curve"/>
      <point x="343" y="167"/>
      <point x="315" y="261"/>
      <point x="286" y="362" type="curve" smooth="yes"/>
      <point x="252" y="485"/>
      <point x="215" y="617"/>
      <point x="193" y="704" type="curve"/>
    </contour>
  </outline>
</glyph>
<glyph name="P" format="2">
  <advance width="437"/>
  <unicode hex="0050"/>
  <outline>
    <contour>
      <point x="131" y="211" type="line"/>
      <point x="297" y="211"/>
      <point x="402" y="270"/>
      <point x="402" y="457" type="curve"/>
      <point x="402" y="667"/>
      <point x="336" y="714"/>
      <point x="173" y="714" type="curve" smooth="yes"/>
      <point x="144" y="714"/>
      <point x="113" y="712"/>
      <point x="78" y="710" type="curve"/>
      <point x="100" y="646" type="line"/>
      <point x="135" y="650"/>
      <point x="164" y="652"/>
      <point x="190" y="652" type="curve" smooth="yes"/>
      <point x="302" y="652"/>
      <point x="332" y="607"/>
      <point x="332" y="454" type="curve"/>
      <point x="332" y="301"/>
      <point x="260" y="276"/>
      <point x="127" y="276" type="curve"/>
    </contour>
    <contour>
      <point x="77" y="-6" type="curve"/>
      <point x="156" y="-2" type="line"/>
      <point x="154" y="103"/>
      <point x="152" y="274"/>
      <point x="152" y="359" type="curve"/>
      <point x="152" y="457"/>
      <point x="156" y="608"/>
      <point x="158" y="703" type="curve"/>
      <point x="78" y="710" type="line"/>
      <point x="79" y="632"/>
      <point x="81" y="482"/>
      <point x="81" y="357" type="curve"/>
      <point x="81" y="232"/>
      <point x="79" y="77"/>
    </contour>
  </outline>
</glyph>
<glyph name="R" format="2">
  <advance width="463"/>
  <unicode hex="0052"/>
  <anchor x="239" y="0" name="bottom"/>
  <anchor x="226" y="693" name="top"/>
  <outline>
    <contour>
      <point x="131" y="221" type="line"/>
      <point x="297" y="221"/>
      <point x="402" y="280"/>
      <point x="402" y="462" type="curve"/>
      <point x="402" y="670"/>
      <point x="334" y="714"/>
      <point x="173" y="714" type="curve" smooth="yes"/>
      <point x="144" y="714"/>
      <point x="113" y="712"/>
      <point x="78" y="710" type="curve"/>
      <point x="100" y="646" type="line"/>
      <point x="135" y="650"/>
      <point x="164" y="652"/>
      <point x="190" y="652" type="curve" smooth="yes"/>
      <point x="300" y="652"/>
      <point x="332" y="610"/>
      <point x="332" y="459" type="curve"/>
      <point x="332" y="311"/>
      <point x="260" y="286"/>
      <point x="127" y="286" type="curve"/>
    </contour>
    <contour>
      <point x="77" y="-6" type="curve"/>
      <point x="156" y="-2" type="line"/>
      <point x="154" y="106"/>
      <point x="152" y="278"/>
      <point x="152" y="359" type="curve"/>
      <point x="152" y="457"/>
      <point x="156" y="608"/>
      <point x="158" y="703" type="curve"/>
      <point x="78" y="710" type="line"/>
      <point x="79" y="632"/>
      <point x="81" y="482"/>
      <point x="81" y="357" type="curve"/>
      <point x="81" y="232"/>
      <point x="79" y="77"/>
    </contour>
    <contour>
      <point x="346" y="-6" type="curve"/>
      <point x="439" y="-3" type="line"/>
      <point x="379" y="103"/>
      <point x="327" y="203"/>
      <point x="286" y="301" type="curve"/>
      <point x="215" y="271" type="line"/>
      <point x="267" y="173"/>
      <point x="308" y="85"/>
    </contour>
  </outline>
</glyph>
<glyph name="S" format="2">
  <advance width="452"/>
  <unicode hex="0053"/>
  <anchor x="221" y="0" name="bottom"/>
  <anchor x="237" y="693" name="top"/>
  <outline>
    <contour>
      <point x="225" y="-10" type="curve"/>
      <point x="334" y="-10"/>
      <point x="401" y="54"/>
      <point x="401" y="151" type="curve"/>
      <point x="401" y="255"/>
      <point x="313" y="293"/>
      <point x="236" y="342" type="curve" smooth="yes"/>
      <point x="178" y="380"/>
      <point x="127" y="424"/>
      <point x="127" y="510" type="curve"/>
      <point x="127" y="580"/>
      <point x="153" y="641"/>
      <point x="231" y="641" type="curve"/>
      <point x="312" y="641"/>
      <point x="331" y="578"/>
      <point x="331" y="507" type="curve" smooth="yes"/>
      <point x="331" y="468"/>
      <point x="326" y="428"/>
      <point x="321" y="394" type="curve"/>
      <point x="394" y="394" type="line"/>
      <point x="398" y="428"/>
      <point x="403" y="467"/>
      <point x="403" y="507" type="curve" smooth="yes"/>
      <point x="403" y="606"/>
      <point x="373" y="704"/>
      <point x="233" y="704" type="curve"/>
      <point x="123" y="704"/>
      <point x="55" y="624"/>
      <point x="55" y="513" type="curve"/>
      <point x="55" y="389"/>
      <point x="125" y="331"/>
      <point x="194" y="286" type="curve" smooth="yes"/>
      <point x="261" y="243"/>
      <point x="328" y="212"/>
      <point x="328" y="144" type="curve"/>
      <point x="328" y="94"/>
      <point x="300" y="51"/>
      <point x="221" y="51" type="curve"/>
      <point x="143" y="51"/>
      <point x="125" y="97"/>
      <point x="125" y="155" type="curve" smooth="yes"/>
      <point x="125" y="174"/>
      <point x="127" y="196"/>
      <point x="130" y="217" type="curve"/>
      <point x="62" y="217" type="line"/>
      <point x="58" y="196"/>
      <point x="56" y="176"/>
      <point x="56" y="156" type="curve" smooth="yes"/>
      <point x="56" y="67"/>
      <point x="99" y="-10"/>
    </contour>
  </outline>
</glyph>
<glyph name="V" format="2">
  <advance width="460"/>
  <unicode hex="0056"/>
  <outline>
    <contour>
      <point x="27" y="712" type="line"/>
      <point x="47" y="620"/>
      <point x="77" y="485"/>
      <point x="105" y="352" type="curve" smooth="yes"/>
      <point x="133" y="218"/>
      <point x="160" y="86"/>
      <point x="177" y="3" type="curve"/>
      <point x="285" y="0" type="line"/>
      <point x="303" y="89"/>
      <point x="331" y="226"/>
      <point x="359" y="363" type="curve" smooth="yes"/>
      <point x="386" y="491"/>
      <point x="414" y="620"/>
      <point x="433" y="708" type="curve"/>
      <point x="357" y="705" type="line"/>
      <point x="336" y="600"/>
      <point x="311" y="475"/>
      <point x="288" y="358" type="curve" smooth="yes"/>
      <point x="268" y="255"/>
      <point x="248" y="157"/>
      <point x="232" y="84" type="curve"/>
      <point x="214" y="172"/>
      <point x="197" y="259"/>
      <point x="179" y="350" type="curve" smooth="yes"/>
      <point x="157" y="463"/>
      <point x="134" y="582"/>
      <point x="108" y="713" type="curve"/>
    </contour>
  </outline>
</glyph>
<glyph name="W" format="2">
  <advance width="763"/>
  <unicode hex="0057"/>
  <anchor x="378" y="693" name="top"/>
  <outline>
    <contour>
      <point x="274" y="0" type="line"/>
      <point x="297" y="109"/>
      <point x="324" y="238"/>
      <point x="347" y="349" type="curve" smooth="yes"/>
      <point x="359" y="411"/>
      <point x="371" y="467"/>
      <point x="380" y="512" type="curve"/>
      <point x="392" y="462"/>
      <point x="404" y="403"/>
      <point x="416" y="340" type="curve" smooth="yes"/>
      <point x="439" y="228"/>
      <point x="461" y="104"/>
      <point x="481" y="1" type="curve"/>
      <point x="591" y="0" type="line"/>
      <point x="606" y="81"/>
      <point x="631" y="210"/>
      <point x="658" y="342" type="curve" smooth="yes"/>
      <point x="685" y="476"/>
      <point x="714" y="615"/>
      <point x="736" y="714" type="curve"/>
      <point x="663" y="713" type="line"/>
      <point x="641" y="599"/>
      <point x="615" y="470"/>
      <point x="591" y="352" type="curve" smooth="yes"/>
      <point x="571" y="249"/>
      <point x="551" y="154"/>
      <point x="537" y="85" type="curve"/>
      <point x="519" y="167"/>
      <point x="499" y="260"/>
      <point x="482" y="349" type="curve" smooth="yes"/>
      <point x="458" y="468"/>
      <point x="438" y="580"/>
      <point x="427" y="651" type="curve"/>
      <point x="338" y="650" type="line"/>
      <point x="325" y="573"/>
      <point x="305" y="463"/>
      <point x="283" y="353" type="curve" smooth="yes"/>
      <point x="264" y="254"/>
      <point x="243" y="156"/>
      <point x="226" y="83" type="curve"/>
      <point x="207" y="174"/>
      <point x="189" y="264"/>
      <point x="171" y="357" type="curve" smooth="yes"/>
      <point x="150" y="466"/>
      <point x="129" y="578"/>
      <point x="105" y="701" type="curve"/>
      <point x="27" y="701" type="line"/>
      <point x="45" y="613"/>
      <point x="73" y="479"/>
      <point x="100" y="347" type="curve" smooth="yes"/>
      <point x="127" y="214"/>
      <point x="154" y="83"/>
      <point x="169" y="0" type="curve"/>
    </contour>
  </outline>
</glyph>
<glyph name="X" format="2">
  <advance width="443"/>
  <unicode hex="0058"/>
  <outline>
    <contour>
      <point x="2" y="-2" type="curve"/>
      <point x="87" y="-1" type="line"/>
      <point x="87" y="-1"/>
      <point x="164" y="175"/>
      <point x="249" y="350" type="curve"/>
      <point x="332" y="521"/>
      <point x="424" y="691"/>
      <point x="424" y="691" type="curve"/>
      <point x="342" y="692" type="line"/>
      <point x="342" y="692"/>
      <point x="264" y="527"/>
      <point x="183" y="359" type="curve"/>
      <point x="98" y="184"/>
      <point x="2" y="-2"/>
    </contour>
    <contour>
      <point x="351" y="-11" type="curve"/>
      <point x="441" y="-7" type="line"/>
      <point x="441" y="-7"/>
      <point x="340" y="196"/>
      <point x="261" y="369" type="curve"/>
      <point x="183" y="536"/>
      <point x="116" y="688"/>
      <point x="116" y="688" type="curve"/>
      <point x="27" y="690" type="line"/>
      <point x="27" y="690"/>
      <point x="116" y="516"/>
      <point x="196" y="346" type="curve"/>
      <point x="276" y="173"/>
      <point x="351" y="-11"/>
    </contour>
  </outline>
</glyph>
<glyph name="Y" format="2">
  <advance width="409"/>
  <unicode hex="0059"/>
  <anchor x="201" y="0" name="bottom"/>
  <anchor x="203" y="693" name="top"/>
  <outline>
    <contour>
      <point x="163" y="0" type="curve"/>
      <point x="239" y="1" type="line"/>
      <point x="239" y="1"/>
      <point x="236" y="114"/>
      <point x="233" y="224" type="curve"/>
      <point x="164" y="233" type="line"/>
      <point x="167" y="71"/>
      <point x="163" y="0"/>
    </contour>
    <contour>
      <point x="5" y="704" type="line"/>
      <point x="27" y="636"/>
      <point x="58" y="534"/>
      <point x="88" y="429" type="curve" smooth="yes"/>
      <point x="119" y="326"/>
      <point x="149" y="220"/>
      <point x="170" y="141" type="curve"/>
      <point x="230" y="141" type="line"/>
      <point x="250" y="212"/>
      <point x="283" y="320"/>
      <point x="317" y="427" type="curve" smooth="yes"/>
      <point x="349" y="531"/>
      <point x="382" y="634"/>
      <point x="404" y="698" type="curve"/>
      <point x="324" y="696" type="line"/>
      <point x="300" y="613"/>
      <point x="274" y="518"/>
      <point x="250" y="435" type="curve" smooth="yes"/>
      <point x="232" y="371"/>
      <point x="215" y="314"/>
      <point x="201" y="274" type="curve"/>
      <point x="187" y="318"/>
      <point x="171" y="379"/>
      <point x="154" y="445" type="curve" smooth="yes"/>
      <point x="130" y="534"/>
      <point x="106" y="630"/>
      <point x="85" y="704" type="curve"/>
    </contour>
  </outline>
</glyph>
<glyph name="Z" format="2">
  <advance width="393"/>
  <unicode hex="005A"/>
  <anchor x="205" y="693" name="top"/>
  <outline>
    <contour>
      <point x="40" y="693" type="curve"/>
      <point x="39" y="623" type="line"/>
      <point x="39" y="623"/>
      <point x="111" y="626"/>
      <point x="183" y="626" type="curve" smooth="yes"/>
      <point x="213" y="626"/>
      <point x="248" y="625"/>
      <point x="278" y="625" type="curve"/>
      <point x="246" y="551"/>
      <point x="200" y="452"/>
      <point x="153" y="347" type="curve" smooth="yes"/>
      <point x="111" y="255"/>
      <point x="65" y="158"/>
      <point x="23" y="69" type="curve"/>
      <point x="27" y="1" type="line"/>
      <point x="27" y="1"/>
      <point x="124" y="3"/>
      <point x="197" y="3" type="curve" smooth="yes"/>
      <point x="260" y="2"/>
      <point x="308" y="1"/>
      <point x="370" y="0" type="curve"/>
      <point x="370" y="72" type="line"/>
      <point x="312" y="71"/>
      <point x="275" y="71"/>
      <point x="218" y="69" type="curve" smooth="yes"/>
      <point x="188" y="68"/>
      <point x="142" y="69"/>
      <point x="105" y="69" type="curve"/>
      <point x="142" y="155"/>
      <point x="183" y="244"/>
      <point x="223" y="330" type="curve" smooth="yes"/>
      <point x="271" y="433"/>
      <point x="318" y="533"/>
      <point x="362" y="623" type="curve"/>
      <point x="359" y="695" type="line"/>
      <point x="302" y="694"/>
      <point x="263" y="693"/>
      <point x="206" y="692" type="curve" smooth="yes"/>
      <point x="146" y="691"/>
      <point x="74" y="691"/>
    </contour>
  </outline>
</glyph>
<glyph name="bracketleft" format="2">
  <advance width="447"/>
  <unicode hex="005B"/>
  <outline>
    <contour>
      <point x="100" y="-137" type="curve"/>
      <point x="169" y="-130" type="line"/>
      <point x="169" y="-130"/>
      <point x="169" y="179"/>
      <point x="169" y="315" type="curve"/>
      <point x="169" y="452"/>
      <point x="169" y="671"/>
      <point x="169" y="671" type="curve"/>
      <point x="107" y="691" type="line"/>
      <point x="107" y="691"/>
      <point x="111" y="505"/>
      <point x="111" y="304" type="curve"/>
      <point x="111" y="104"/>
      <point x="100" y="-137"/>
    </contour>
    <contour>
      <point x="100" y="-137" type="line"/>
      <point x="150" y="-135"/>
      <point x="343" y="-130"/>
      <point x="343" y="-130" type="curve"/>
      <point x="346" y="-75" type="line"/>
      <point x="346" y="-75"/>
      <point x="175" y="-74"/>
      <point x="125" y="-71" type="curve"/>
    </contour>
    <contour>
      <point x="134" y="631" type="line"/>
      <point x="184" y="632"/>
      <point x="347" y="633"/>
      <point x="347" y="633" type="curve"/>
      <point x="340" y="693" type="line"/>
      <point x="340" y="693"/>
      <point x="155" y="691"/>
      <point x="107" y="691" type="curve"/>
    </contour>
  </outline>
</glyph>
<glyph name="backslash" format="2">
  <advance width="332"/>
  <unicode hex="005C"/>
  <outline>
    <contour>
      <point x="307" y="-1" type="line"/>
      <point x="307" y="-1"/>
      <point x="241" y="193"/>
      <point x="198" y="339" type="curve"/>
      <point x="154" y="485"/>
      <point x="99" y="697"/>
      <point x="99" y="697" type="curve"/>
      <point x="25" y="695" type="line"/>
      <point x="25" y="695"/>
      <point x="92" y="484"/>
      <point x="135" y="340" type="curve"/>
      <point x="178" y="197"/>
      <point x="236" y="0"/>
      <point x="236" y="0" type="curve"/>
    </contour>
  </outline>
</glyph>
<glyph name="bracketright" format="2">
  <advance width="447"/>
  <unicode hex="005D"/>
  <outline>
    <contour>
      <point x="340" y="-135" type="line"/>
      <point x="338" y="-55"/>
      <point x="336" y="105"/>
      <point x="336" y="252" type="curve"/>
      <point x="336" y="398"/>
      <point x="342" y="589"/>
      <point x="347" y="693" type="curve"/>
      <point x="278" y="686" type="line"/>
      <point x="278" y="553"/>
      <point x="278" y="340"/>
      <point x="278" y="241" type="curve"/>
      <point x="278" y="141"/>
      <point x="278" y="-21"/>
      <point x="278" y="-115" type="curve"/>
    </contour>
    <contour>
      <point x="107" y="-137" type="line"/>
      <point x="187" y="-136"/>
      <point x="305" y="-135"/>
      <point x="340" y="-135" type="curve"/>
      <point x="313" y="-75" type="line"/>
      <point x="277" y="-76"/>
      <point x="170" y="-77"/>
      <point x="100" y="-77" type="curve"/>
    </contour>
    <contour>
      <point x="101" y="631" type="line"/>
      <point x="175" y="631"/>
      <point x="286" y="629"/>
      <point x="322" y="627" type="curve"/>
      <point x="347" y="693" type="line"/>
      <point x="311" y="692"/>
      <point x="187" y="688"/>
      <point x="104" y="686" type="curve"/>
    </contour>
  </outline>
</glyph>
<glyph name="asciicircum" format="2">
  <advance width="472"/>
  <unicode hex="005E"/>
  <outline>
    <contour>
      <point x="327" y="370" type="curve"/>
      <point x="407" y="373" type="line"/>
      <point x="407" y="373"/>
      <point x="350" y="496"/>
      <point x="322" y="555" type="curve" smooth="yes"/>
      <point x="293" y="617"/>
      <point x="256" y="697"/>
      <point x="256" y="697" type="curve"/>
      <point x="192" y="693" type="line"/>
      <point x="192" y="693"/>
      <point x="241" y="586"/>
      <point x="268" y="518" type="curve" smooth="yes"/>
      <point x="295" y="451"/>
      <point x="327" y="370"/>
    </contour>
    <contour>
      <point x="140" y="373" type="line"/>
      <point x="140" y="373"/>
      <point x="172" y="466"/>
      <point x="194" y="528" type="curve" smooth="yes"/>
      <point x="216" y="592"/>
      <point x="256" y="697"/>
      <point x="256" y="697" type="curve"/>
      <point x="192" y="693" type="line"/>
      <point x="192" y="693"/>
      <point x="159" y="607"/>
      <point x="131" y="538" type="curve" smooth="yes"/>
      <point x="106" y="471"/>
      <point x="65" y="376"/>
      <point x="65" y="376" type="curve"/>
    </contour>
  </outline>
</glyph>
<glyph name="underscore" format="2">
  <advance width="434"/>
  <unicode hex="005F"/>
  <outline>
    <contour>
      <point x="47" y="-115" type="line"/>
      <point x="47" y="-115"/>
      <point x="151" y="-112"/>
      <point x="218" y="-111" type="curve" smooth="yes"/>
      <point x="290" y="-110"/>
      <point x="387" y="-112"/>
      <point x="387" y="-112" type="curve"/>
      <point x="389" y="-46" type="line"/>
      <point x="389" y="-46"/>
      <point x="287" y="-49"/>
      <point x="212" y="-50" type="curve" smooth="yes"/>
      <point x="138" y="-52"/>
      <point x="45" y="-48"/>
      <point x="45" y="-48" type="curve"/>
    </contour>
  </outline>
</glyph>
<glyph name="grave" format="2">
  <advance width="212"/>
  <unicode hex="0060"/>
  <anchor x="120" y="555" name="_top"/>
  <outline>
    <contour>
      <point x="182" y="613" type="curve"/>
      <point x="204" y="651" type="line"/>
      <point x="182" y="663"/>
      <point x="157" y="678"/>
      <point x="131" y="693" type="curve" smooth="yes"/>
      <point x="105" y="709"/>
      <point x="78" y="727"/>
      <point x="55" y="743" type="curve"/>
      <point x="19" y="686" type="line"/>
      <point x="47" y="673"/>
      <point x="77" y="661"/>
      <point x="105" y="648" type="curve" smooth="yes"/>
      <point x="133" y="636"/>
      <point x="160" y="623"/>
    </contour>
  </outline>
</glyph>
<glyph name="a" format="2">
  <advance width="388"/>
  <unicode hex="0061"/>
  <anchor x="188" y="0" name="bottom"/>
  <anchor x="309" y="-3" name="ogonek"/>
  <anchor x="188" y="515" name="top"/>
  <outline>
    <contour>
      <point x="265" y="0" type="line"/>
      <point x="327" y="0" type="line"/>
      <point x="322" y="257" type="line"/>
      <point x="323" y="344" type="line" smooth="yes"/>
      <point x="324" y="433"/>
      <point x="302" y="525"/>
      <point x="190" y="525" type="curve" smooth="yes"/>
      <point x="107" y="525"/>
      <point x="63" y="472"/>
      <point x="63" y="393" type="curve" smooth="yes"/>
      <point x="63" y="373"/>
      <point x="65" y="352"/>
      <point x="71" y="329" type="curve"/>
      <point x="129" y="332" type="line"/>
      <point x="124" y="350"/>
      <point x="121" y="369"/>
      <point x="121" y="386" type="curve" smooth="yes"/>
      <point x="121" y="435"/>
      <point x="142" y="476"/>
      <point x="188" y="476" type="curve" smooth="yes"/>
      <point x="228" y="476"/>
      <point x="260" y="445"/>
      <point x="261" y="366" type="curve" smooth="yes"/>
      <point x="265" y="113" type="line"/>
    </contour>
    <contour>
      <point x="154" y="-7" type="curve" smooth="yes"/>
      <point x="265" y="-7"/>
      <point x="296" y="90"/>
      <point x="296" y="284" type="curve"/>
      <point x="264" y="221" type="line"/>
      <point x="264" y="120"/>
      <point x="225" y="50"/>
      <point x="162" y="50" type="curve" smooth="yes"/>
      <point x="123" y="50"/>
      <point x="109" y="79"/>
      <point x="109" y="123" type="curve" smooth="yes"/>
      <point x="109" y="179"/>
      <point x="152" y="208"/>
      <point x="197" y="236" type="curve" smooth="yes"/>
      <point x="246" y="266"/>
      <point x="297" y="295"/>
      <point x="297" y="359" type="curve"/>
      <point x="261" y="366" type="line"/>
      <point x="261" y="323"/>
      <point x="208" y="300"/>
      <point x="155" y="269" type="curve" smooth="yes"/>
      <point x="102" y="237"/>
      <point x="47" y="197"/>
      <point x="47" y="120" type="curve" smooth="yes"/>
      <point x="47" y="46"/>
      <point x="88" y="-7"/>
    </contour>
  </outline>
</glyph>
<glyph name="b" format="2">
  <advance width="430"/>
  <unicode hex="0062"/>
  <outline>
    <contour>
      <point x="229" y="-7" type="curve" smooth="yes"/>
      <point x="299" y="-7"/>
      <point x="346" y="49"/>
      <point x="359" y="136" type="curve" smooth="yes"/>
      <point x="370" y="207"/>
      <point x="371" y="259"/>
      <point x="371" y="351" type="curve" smooth="yes"/>
      <point x="371" y="455"/>
      <point x="334" y="523"/>
      <point x="249" y="524" type="curve" smooth="yes"/>
      <point x="135" y="525"/>
      <point x="103" y="365"/>
      <point x="105" y="251" type="curve"/>
      <point x="139" y="299" type="line"/>
      <point x="139" y="405"/>
      <point x="189" y="464"/>
      <point x="244" y="464" type="curve" smooth="yes"/>
      <point x="294" y="464"/>
      <point x="311" y="422"/>
      <point x="311" y="334" type="curve" smooth="yes"/>
      <point x="311" y="258"/>
      <point x="309" y="217"/>
      <point x="300" y="151" type="curve" smooth="yes"/>
      <point x="292" y="93"/>
      <point x="266" y="54"/>
      <point x="224" y="54" type="curve" smooth="yes"/>
      <point x="176" y="54"/>
      <point x="138" y="104"/>
      <point x="138" y="218" type="curve"/>
      <point x="104" y="257" type="line"/>
      <point x="102" y="107"/>
      <point x="127" y="-7"/>
    </contour>
    <contour>
      <point x="134" y="-1" type="line"/>
      <point x="137" y="96" type="line"/>
      <point x="137" y="176"/>
      <point x="139" y="276"/>
      <point x="139" y="344" type="curve"/>
      <point x="139" y="490"/>
      <point x="144" y="701"/>
      <point x="144" y="701" type="curve"/>
      <point x="68" y="696" type="line"/>
      <point x="68" y="696"/>
      <point x="77" y="489"/>
      <point x="77" y="345" type="curve"/>
      <point x="77" y="202"/>
      <point x="72" y="1"/>
      <point x="72" y="1" type="curve"/>
    </contour>
  </outline>
</glyph>
<glyph name="c" format="2">
  <advance width="403"/>
  <unicode hex="0063"/>
  <anchor x="217" y="0" name="bottom"/>
  <anchor x="210" y="515" name="top"/>
  <outline>
    <contour>
      <point x="205" y="-13" type="curve" smooth="yes"/>
      <point x="306" y="-13"/>
      <point x="349" y="50"/>
      <point x="349" y="136" type="curve" smooth="yes"/>
      <point x="349" y="146"/>
      <point x="348" y="156"/>
      <point x="347" y="167" type="curve"/>
      <point x="285" y="165" type="line"/>
      <point x="287" y="153"/>
      <point x="288" y="142"/>
      <point x="288" y="131" type="curve" smooth="yes"/>
      <point x="288" y="83"/>
      <point x="267" y="44"/>
      <point x="212" y="44" type="curve" smooth="yes"/>
      <point x="166" y="44"/>
      <point x="144" y="80"/>
      <point x="134" y="130" type="curve" smooth="yes"/>
      <point x="127" y="165"/>
      <point x="125" y="207"/>
      <point x="125" y="250" type="curve" smooth="yes"/>
      <point x="125" y="299"/>
      <point x="127" y="352"/>
      <point x="138" y="393" type="curve" smooth="yes"/>
      <point x="150" y="438"/>
      <point x="173" y="469"/>
      <point x="216" y="469" type="curve" smooth="yes"/>
      <point x="269" y="469"/>
      <point x="283" y="428"/>
      <point x="283" y="372" type="curve" smooth="yes"/>
      <point x="283" y="346"/>
      <point x="280" y="316"/>
      <point x="277" y="286" type="curve"/>
      <point x="340" y="285" type="line"/>
      <point x="344" y="310"/>
      <point x="347" y="336"/>
      <point x="347" y="360" type="curve" smooth="yes"/>
      <point x="347" y="450"/>
      <point x="313" y="523"/>
      <point x="224" y="523" type="curve" smooth="yes"/>
      <point x="149" y="523"/>
      <point x="107" y="485"/>
      <point x="84" y="427" type="curve" smooth="yes"/>
      <point x="65" y="379"/>
      <point x="59" y="318"/>
      <point x="59" y="252" type="curve" smooth="yes"/>
      <point x="59" y="198"/>
      <point x="64" y="142"/>
      <point x="78" y="96" type="curve" smooth="yes"/>
      <point x="98" y="33"/>
      <point x="136" y="-13"/>
    </contour>
  </outline>
</glyph>
<glyph name="d" format="2">
  <advance width="424"/>
  <unicode hex="0064"/>
  <anchor x="303" y="605" name="center"/>
  <anchor x="379" y="463" name="topright"/>
  <outline>
    <contour>
      <point x="59" y="256" type="curve" smooth="yes"/>
      <point x="59" y="197"/>
      <point x="61" y="138"/>
      <point x="74" y="91" type="curve" smooth="yes"/>
      <point x="89" y="31"/>
      <point x="121" y="-10"/>
      <point x="185" y="-10" type="curve" smooth="yes"/>
      <point x="244" y="-10"/>
      <point x="279" y="29"/>
      <point x="299" y="67" type="curve"/>
      <point x="299" y="0" type="line"/>
      <point x="364" y="0" type="line"/>
      <point x="361" y="132"/>
      <point x="360" y="222"/>
      <point x="360" y="333" type="curve" smooth="yes"/>
      <point x="360" y="408"/>
      <point x="362" y="511"/>
      <point x="366" y="693" type="curve"/>
      <point x="295" y="694" type="line"/>
      <point x="296" y="637"/>
      <point x="297" y="528"/>
      <point x="298" y="472" type="curve"/>
      <point x="281" y="500"/>
      <point x="255" y="526"/>
      <point x="204" y="526" type="curve" smooth="yes"/>
      <point x="139" y="526"/>
      <point x="102" y="484"/>
      <point x="81" y="422" type="curve" smooth="yes"/>
      <point x="65" y="375"/>
      <point x="59" y="316"/>
    </contour>
    <contour>
      <point x="124" y="252" type="curve" smooth="yes"/>
      <point x="124" y="299"/>
      <point x="126" y="352"/>
      <point x="138" y="395" type="curve" smooth="yes"/>
      <point x="150" y="438"/>
      <point x="172" y="470"/>
      <point x="211" y="470" type="curve" smooth="yes"/>
      <point x="253" y="470"/>
      <point x="276" y="431"/>
      <point x="287" y="382" type="curve" smooth="yes"/>
      <point x="295" y="348"/>
      <point x="298" y="308"/>
      <point x="298" y="273" type="curve" smooth="yes"/>
      <point x="298" y="232"/>
      <point x="294" y="183"/>
      <point x="283" y="142" type="curve" smooth="yes"/>
      <point x="269" y="88"/>
      <point x="243" y="46"/>
      <point x="197" y="46" type="curve" smooth="yes"/>
      <point x="154" y="46"/>
      <point x="136" y="76"/>
      <point x="129" y="122" type="curve" smooth="yes"/>
      <point x="123" y="158"/>
      <point x="124" y="204"/>
    </contour>
  </outline>
</glyph>
<glyph name="e" format="2">
  <advance width="405"/>
  <unicode hex="0065"/>
  <anchor x="211" y="0" name="bottom"/>
  <anchor x="249" y="-5" name="ogonek"/>
  <anchor x="216" y="515" name="top"/>
  <outline>
    <contour>
      <point x="210" y="-12" type="curve" smooth="yes"/>
      <point x="301" y="-12"/>
      <point x="348" y="46"/>
      <point x="348" y="125" type="curve" smooth="yes"/>
      <point x="348" y="138"/>
      <point x="347" y="151"/>
      <point x="344" y="165" type="curve"/>
      <point x="285" y="165" type="line"/>
      <point x="287" y="154"/>
      <point x="288" y="143"/>
      <point x="288" y="133" type="curve" smooth="yes"/>
      <point x="288" y="87"/>
      <point x="269" y="44"/>
      <point x="214" y="44" type="curve" smooth="yes"/>
      <point x="167" y="44"/>
      <point x="145" y="78"/>
      <point x="134" y="129" type="curve" smooth="yes"/>
      <point x="126" y="168"/>
      <point x="125" y="218"/>
      <point x="125" y="268" type="curve" smooth="yes"/>
      <point x="125" y="313"/>
      <point x="129" y="362"/>
      <point x="141" y="400" type="curve" smooth="yes"/>
      <point x="154" y="440"/>
      <point x="177" y="469"/>
      <point x="215" y="469" type="curve" smooth="yes"/>
      <point x="268" y="469"/>
      <point x="283" y="430"/>
      <point x="283" y="375" type="curve" smooth="yes"/>
      <point x="283" y="351"/>
      <point x="280" y="323"/>
      <point x="276" y="294" type="curve"/>
      <point x="334" y="243" type="line"/>
      <point x="341" y="283"/>
      <point x="346" y="322"/>
      <point x="346" y="359" type="curve" smooth="yes"/>
      <point x="346" y="451"/>
      <point x="316" y="524"/>
      <point x="221" y="524" type="curve" smooth="yes"/>
      <point x="144" y="524"/>
      <point x="100" y="479"/>
      <point x="78" y="414" type="curve" smooth="yes"/>
      <point x="64" y="372"/>
      <point x="59" y="322"/>
      <point x="59" y="269" type="curve" smooth="yes"/>
      <point x="59" y="205"/>
      <point x="63" y="145"/>
      <point x="78" y="96" type="curve" smooth="yes"/>
      <point x="98" y="31"/>
      <point x="137" y="-12"/>
    </contour>
    <contour>
      <point x="86" y="236" type="line"/>
      <point x="193" y="241"/>
      <point x="334" y="243"/>
      <point x="334" y="243" type="curve"/>
      <point x="334" y="297" type="line"/>
      <point x="85" y="295" type="line"/>
    </contour>
  </outline>
</glyph>
<glyph name="g" format="2">
  <advance width="426"/>
  <unicode hex="0067"/>
  <anchor x="202" y="515" name="top"/>
  <outline>
    <contour>
      <point x="198" y="-166" type="curve" smooth="yes"/>
      <point x="296" y="-166"/>
      <point x="357" y="-115"/>
      <point x="357" y="14" type="curve" smooth="yes"/>
      <point x="357" y="51"/>
      <point x="356" y="125"/>
      <point x="356" y="278" type="curve"/>
      <point x="356" y="355"/>
      <point x="363" y="458"/>
      <point x="369" y="515" type="curve"/>
      <point x="303" y="515" type="line"/>
      <point x="293" y="428"/>
      <point x="293" y="362"/>
      <point x="293" y="276" type="curve"/>
      <point x="293" y="144"/>
      <point x="291" y="46"/>
      <point x="291" y="-2" type="curve" smooth="yes"/>
      <point x="291" y="-94"/>
      <point x="247" y="-109"/>
      <point x="204" y="-109" type="curve" smooth="yes"/>
      <point x="163" y="-109"/>
      <point x="134" y="-91"/>
      <point x="134" y="-61" type="curve" smooth="yes"/>
      <point x="134" y="-57"/>
      <point x="135" y="-53"/>
      <point x="136" y="-49" type="curve"/>
      <point x="81" y="-58" type="line"/>
      <point x="80" y="-64"/>
      <point x="80" y="-69"/>
      <point x="80" y="-75" type="curve" smooth="yes"/>
      <point x="80" y="-129"/>
      <point x="124" y="-166"/>
    </contour>
    <contour>
      <point x="191" y="-10" type="curve" smooth="yes"/>
      <point x="328" y="-10"/>
      <point x="326" y="179"/>
      <point x="326" y="249" type="curve"/>
      <point x="293" y="213" type="line"/>
      <point x="293" y="112"/>
      <point x="249" y="47"/>
      <point x="200" y="47" type="curve" smooth="yes"/>
      <point x="164" y="47"/>
      <point x="145" y="81"/>
      <point x="135" y="126" type="curve" smooth="yes"/>
      <point x="126" y="168"/>
      <point x="124" y="218"/>
      <point x="124" y="262" type="curve" smooth="yes"/>
      <point x="124" y="309"/>
      <point x="128" y="361"/>
      <point x="141" y="401" type="curve" smooth="yes"/>
      <point x="154" y="440"/>
      <point x="176" y="467"/>
      <point x="213" y="467" type="curve" smooth="yes"/>
      <point x="267" y="467"/>
      <point x="293" y="392"/>
      <point x="293" y="291" type="curve"/>
      <point x="326" y="249" type="line"/>
      <point x="326" y="452"/>
      <point x="290" y="523"/>
      <point x="204" y="523" type="curve" smooth="yes"/>
      <point x="139" y="523"/>
      <point x="101" y="478"/>
      <point x="80" y="416" type="curve" smooth="yes"/>
      <point x="65" y="370"/>
      <point x="59" y="315"/>
      <point x="59" y="261" type="curve" smooth="yes"/>
      <point x="59" y="208"/>
      <point x="64" y="149"/>
      <point x="78" y="100" type="curve" smooth="yes"/>
      <point x="96" y="37"/>
      <point x="130" y="-10"/>
    </contour>
  </outline>
</glyph>
<glyph name="h" format="2">
  <advance width="435"/>
  <unicode hex="0068"/>
  <anchor x="215" y="0" name="bottom"/>
  <anchor x="172" y="616" name="center"/>
  <anchor x="109" y="669" name="top"/>
  <outline>
    <contour>
      <point x="75" y="0" type="curve"/>
      <point x="146" y="0" type="line"/>
      <point x="146" y="0"/>
      <point x="140" y="114"/>
      <point x="140" y="258" type="curve"/>
      <point x="140" y="401"/>
      <point x="147" y="703"/>
      <point x="147" y="703" type="curve"/>
      <point x="75" y="703" type="line"/>
      <point x="75" y="703"/>
      <point x="78" y="491"/>
      <point x="78" y="346" type="curve"/>
      <point x="78" y="200"/>
      <point x="75" y="0"/>
    </contour>
    <contour>
      <point x="368" y="-3" type="line"/>
      <point x="366" y="48"/>
      <point x="359" y="117"/>
      <point x="359" y="263" type="curve" smooth="yes"/>
      <point x="359" y="300"/>
      <point x="359" y="294"/>
      <point x="359" y="370" type="curve" smooth="yes"/>
      <point x="359" y="480"/>
      <point x="316" y="522"/>
      <point x="255" y="522" type="curve" smooth="yes"/>
      <point x="121" y="522"/>
      <point x="102" y="333"/>
      <point x="102" y="211" type="curve"/>
      <point x="140" y="258" type="line"/>
      <point x="140" y="413"/>
      <point x="194" y="464"/>
      <point x="241" y="464" type="curve" smooth="yes"/>
      <point x="275" y="464"/>
      <point x="297" y="440"/>
      <point x="297" y="365" type="curve" smooth="yes"/>
      <point x="297" y="321"/>
      <point x="297" y="282"/>
      <point x="297" y="256" type="curve" smooth="yes"/>
      <point x="297" y="131"/>
      <point x="291" y="46"/>
      <point x="288" y="1" type="curve"/>
    </contour>
  </outline>
</glyph>
<glyph name="i" format="2">
  <advance width="234"/>
  <unicode hex="0069"/>
  <anchor x="117" y="0" name="bottom"/>
  <anchor x="126" y="-2" name="ogonek"/>
  <outline>
    <contour>
      <point x="159" y="0" type="line"/>
      <point x="159" y="0"/>
      <point x="150" y="121"/>
      <point x="150" y="265" type="curve"/>
      <point x="150" y="408"/>
      <point x="155" y="517"/>
      <point x="155" y="517" type="curve"/>
      <point x="79" y="516" type="line"/>
      <point x="79" y="516"/>
      <point x="88" y="412"/>
      <point x="88" y="266" type="curve"/>
      <point x="88" y="120"/>
      <point x="79" y="1"/>
      <point x="79" y="1" type="curve"/>
    </contour>
    <contour>
      <point x="153" y="597" type="line"/>
      <point x="157" y="682" type="line"/>
      <point x="79" y="678" type="line"/>
      <point x="81" y="593" type="line"/>
    </contour>
  </outline>
</glyph>
<glyph name="j" format="2">
  <advance width="218"/>
  <unicode hex="006A"/>
  <outline>
    <contour>
      <point x="-6" y="-166" type="line"/>
      <point x="81" y="-166"/>
      <point x="138" y="-120"/>
      <point x="142" y="-7" type="curve" smooth="yes"/>
      <point x="145" y="84"/>
      <point x="144" y="117"/>
      <point x="144" y="263" type="curve"/>
      <point x="144" y="409"/>
      <point x="152" y="514"/>
      <point x="152" y="514" type="curve"/>
      <point x="76" y="515" type="line"/>
      <point x="76" y="515"/>
      <point x="80" y="405"/>
      <point x="80" y="262" type="curve"/>
      <point x="80" y="118"/>
      <point x="81" y="38"/>
      <point x="78" y="-27" type="curve" smooth="yes"/>
      <point x="75" y="-97"/>
      <point x="35" y="-114"/>
      <point x="-8" y="-114" type="curve"/>
    </contour>
    <contour>
      <point x="78" y="593" type="line"/>
      <point x="147" y="596" type="line"/>
      <point x="150" y="682" type="line"/>
      <point x="76" y="679" type="line"/>
    </contour>
  </outline>
</glyph>
<glyph name="k" format="2">
  <advance width="418"/>
  <unicode hex="006B"/>
  <anchor x="228" y="0" name="bottom"/>
  <outline>
    <contour>
      <point x="344" y="0" type="curve"/>
      <point x="423" y="3" type="line"/>
      <point x="333" y="103"/>
      <point x="264" y="184"/>
      <point x="189" y="275" type="curve"/>
      <point x="270" y="371"/>
      <point x="325" y="438"/>
      <point x="395" y="519" type="curve"/>
      <point x="323" y="521" type="line"/>
      <point x="265" y="445"/>
      <point x="216" y="384"/>
      <point x="120" y="269" type="curve"/>
      <point x="199" y="177"/>
      <point x="274" y="88"/>
    </contour>
    <contour>
      <point x="75" y="0" type="curve"/>
      <point x="150" y="1" type="line"/>
      <point x="150" y="1"/>
      <point x="143" y="213"/>
      <point x="143" y="359" type="curve"/>
      <point x="143" y="504"/>
      <point x="150" y="698"/>
      <point x="150" y="698" type="curve"/>
      <point x="78" y="700" type="line"/>
      <point x="78" y="700"/>
      <point x="81" y="501"/>
      <point x="81" y="357" type="curve"/>
      <point x="81" y="214"/>
      <point x="75" y="0"/>
    </contour>
  </outline>
</glyph>
<glyph name="m" format="2">
  <advance width="643"/>
  <unicode hex="006D"/>
  <outline>
    <contour>
      <point x="288" y="1" type="curve"/>
      <point x="365" y="1" type="line"/>
      <point x="361" y="52"/>
      <point x="355" y="140"/>
      <point x="357" y="272" type="curve" smooth="yes"/>
      <point x="359" y="443"/>
      <point x="331" y="520"/>
      <point x="253" y="520" type="curve" smooth="yes"/>
      <point x="138" y="520"/>
      <point x="108" y="362"/>
      <point x="106" y="229" type="curve"/>
      <point x="145" y="273" type="line"/>
      <point x="145" y="389"/>
      <point x="187" y="462"/>
      <point x="241" y="462" type="curve" smooth="yes"/>
      <point x="279" y="462"/>
      <point x="297" y="431"/>
      <point x="297" y="357" type="curve" smooth="yes"/>
      <point x="297" y="313"/>
      <point x="297" y="277"/>
      <point x="297" y="219" type="curve" smooth="yes"/>
      <point x="297" y="128"/>
      <point x="292" y="59"/>
    </contour>
    <contour>
      <point x="74" y="1" type="curve"/>
      <point x="149" y="1" type="line"/>
      <point x="147" y="57"/>
      <point x="144" y="148"/>
      <point x="145" y="273" type="curve"/>
      <point x="143" y="380"/>
      <point x="144" y="475"/>
      <point x="145" y="519" type="curve"/>
      <point x="79" y="516" type="line"/>
      <point x="79" y="516"/>
      <point x="83" y="392"/>
      <point x="83" y="246" type="curve" smooth="yes"/>
      <point x="83" y="117"/>
      <point x="78" y="59"/>
    </contour>
    <contour>
      <point x="564" y="0" type="line"/>
      <point x="566" y="70"/>
      <point x="567" y="127"/>
      <point x="570" y="196" type="curve" smooth="yes"/>
      <point x="572" y="248"/>
      <point x="573" y="311"/>
      <point x="573" y="349" type="curve" smooth="yes"/>
      <point x="573" y="457"/>
      <point x="548" y="525"/>
      <point x="466" y="525" type="curve" smooth="yes"/>
      <point x="338" y="525"/>
      <point x="316" y="380"/>
      <point x="318" y="209" type="curve"/>
      <point x="357" y="272" type="line"/>
      <point x="357" y="398"/>
      <point x="388" y="472"/>
      <point x="456" y="472" type="curve" smooth="yes"/>
      <point x="494" y="472"/>
      <point x="511" y="430"/>
      <point x="511" y="366" type="curve" smooth="yes"/>
      <point x="511" y="306"/>
      <point x="509" y="242"/>
      <point x="507" y="193" type="curve" smooth="yes"/>
      <point x="504" y="129"/>
      <point x="501" y="80"/>
      <point x="497" y="8" type="curve"/>
    </contour>
  </outline>
</glyph>
<glyph name="n" format="2">
  <advance width="440"/>
  <unicode hex="006E"/>
  <anchor x="221" y="0" name="bottom"/>
  <anchor x="231" y="515" name="top"/>
  <anchor x="134" y="515" name="topright"/>
  <outline>
    <contour>
      <point x="373" y="-3" type="line"/>
      <point x="371" y="48"/>
      <point x="364" y="117"/>
      <point x="364" y="263" type="curve" smooth="yes"/>
      <point x="364" y="300"/>
      <point x="364" y="294"/>
      <point x="364" y="370" type="curve" smooth="yes"/>
      <point x="364" y="480"/>
      <point x="321" y="522"/>
      <point x="260" y="522" type="curve" smooth="yes"/>
      <point x="126" y="522"/>
      <point x="107" y="333"/>
      <point x="107" y="211" type="curve"/>
      <point x="145" y="258" type="line"/>
      <point x="145" y="413"/>
      <point x="199" y="464"/>
      <point x="246" y="464" type="curve" smooth="yes"/>
      <point x="280" y="464"/>
      <point x="302" y="440"/>
      <point x="302" y="365" type="curve" smooth="yes"/>
      <point x="302" y="321"/>
      <point x="302" y="282"/>
      <point x="302" y="256" type="curve" smooth="yes"/>
      <point x="302" y="131"/>
      <point x="296" y="46"/>
      <point x="293" y="1" type="curve"/>
    </contour>
    <contour>
      <point x="74" y="1" type="curve"/>
      <point x="149" y="1" type="line"/>
      <point x="148" y="58"/>
      <point x="145" y="103"/>
      <point x="145" y="258" type="curve"/>
      <point x="143" y="365"/>
      <point x="145" y="475"/>
      <point x="146" y="519" type="curve"/>
      <point x="79" y="516" type="line"/>
      <point x="79" y="516"/>
      <point x="83" y="392"/>
      <point x="83" y="246" type="curve" smooth="yes"/>
      <point x="83" y="103"/>
      <point x="77" y="57"/>
    </contour>
  </outline>
</glyph>
<glyph name="p" format="2">
  <advance width="444"/>
  <unicode hex="0070"/>
  <outline>
    <contour>
      <point x="75" y="-146" type="curve"/>
      <point x="150" y="-145" type="line"/>
      <point x="148" y="38" type="line"/>
      <point x="163" y="12"/>
      <point x="191" y="-14"/>
      <point x="240" y="-14" type="curve" smooth="yes"/>
      <point x="302" y="-14"/>
      <point x="339" y="25"/>
      <point x="360" y="82" type="curve" smooth="yes"/>
      <point x="378" y="131"/>
      <point x="385" y="193"/>
      <point x="385" y="256" type="curve" smooth="yes"/>
      <point x="385" y="304"/>
      <point x="384" y="353"/>
      <point x="376" y="395" type="curve" smooth="yes"/>
      <point x="363" y="468"/>
      <point x="332" y="522"/>
      <point x="259" y="522" type="curve" smooth="yes"/>
      <point x="200" y="522"/>
      <point x="165" y="481"/>
      <point x="148" y="445" type="curve"/>
      <point x="148" y="517" type="line"/>
      <point x="76" y="515" type="line"/>
      <point x="83" y="469"/>
      <point x="84" y="316"/>
      <point x="84" y="211" type="curve" smooth="yes"/>
      <point x="84" y="67"/>
      <point x="75" y="-146"/>
    </contour>
    <contour>
      <point x="147" y="213" type="curve" smooth="yes"/>
      <point x="148" y="284" type="line" smooth="yes"/>
      <point x="149" y="378"/>
      <point x="181" y="466"/>
      <point x="249" y="466" type="curve" smooth="yes"/>
      <point x="295" y="466"/>
      <point x="311" y="429"/>
      <point x="317" y="376" type="curve" smooth="yes"/>
      <point x="321" y="342"/>
      <point x="320" y="302"/>
      <point x="320" y="260" type="curve" smooth="yes"/>
      <point x="320" y="207"/>
      <point x="317" y="149"/>
      <point x="303" y="107" type="curve" smooth="yes"/>
      <point x="291" y="68"/>
      <point x="270" y="42"/>
      <point x="235" y="42" type="curve" smooth="yes"/>
      <point x="170" y="42"/>
      <point x="146" y="120"/>
    </contour>
  </outline>
</glyph>
<glyph name="q" format="2">
  <advance width="423"/>
  <unicode hex="0071"/>
  <outline>
    <contour>
      <point x="59" y="261" type="curve" smooth="yes"/>
      <point x="59" y="207"/>
      <point x="63" y="151"/>
      <point x="77" y="105" type="curve" smooth="yes"/>
      <point x="96" y="39"/>
      <point x="132" y="-9"/>
      <point x="199" y="-9" type="curve" smooth="yes"/>
      <point x="250" y="-9"/>
      <point x="279" y="22"/>
      <point x="297" y="49" type="curve"/>
      <point x="293" y="-146" type="line"/>
      <point x="365" y="-147" type="line"/>
      <point x="365" y="-147"/>
      <point x="360" y="59"/>
      <point x="360" y="185" type="curve" smooth="yes"/>
      <point x="360" y="311"/>
      <point x="371" y="524"/>
      <point x="371" y="524" type="curve"/>
      <point x="299" y="522" type="line"/>
      <point x="299" y="450" type="line"/>
      <point x="284" y="488"/>
      <point x="254" y="527"/>
      <point x="199" y="527" type="curve" smooth="yes"/>
      <point x="139" y="527"/>
      <point x="103" y="492"/>
      <point x="83" y="439" type="curve" smooth="yes"/>
      <point x="65" y="390"/>
      <point x="59" y="326"/>
    </contour>
    <contour>
      <point x="124" y="265" type="curve" smooth="yes"/>
      <point x="124" y="310"/>
      <point x="124" y="358"/>
      <point x="133" y="396" type="curve" smooth="yes"/>
      <point x="142" y="440"/>
      <point x="163" y="471"/>
      <point x="205" y="471" type="curve" smooth="yes"/>
      <point x="247" y="471"/>
      <point x="271" y="426"/>
      <point x="285" y="370" type="curve" smooth="yes"/>
      <point x="294" y="330"/>
      <point x="298" y="284"/>
      <point x="298" y="245" type="curve" smooth="yes"/>
      <point x="298" y="212"/>
      <point x="296" y="173"/>
      <point x="288" y="139" type="curve" smooth="yes"/>
      <point x="276" y="88"/>
      <point x="253" y="47"/>
      <point x="209" y="47" type="curve" smooth="yes"/>
      <point x="165" y="47"/>
      <point x="144" y="87"/>
      <point x="133" y="141" type="curve" smooth="yes"/>
      <point x="126" y="179"/>
      <point x="124" y="224"/>
    </contour>
  </outline>
</glyph>
<glyph name="r" format="2">
  <advance width="366"/>
  <unicode hex="0072"/>
  <anchor x="111" y="0" name="bottom"/>
  <anchor x="213" y="515" name="top"/>
  <outline>
    <contour>
      <point x="264" y="231" type="curve"/>
      <point x="326" y="231" type="line"/>
      <point x="337" y="288"/>
      <point x="344" y="343"/>
      <point x="344" y="389" type="curve" smooth="yes"/>
      <point x="344" y="473"/>
      <point x="317" y="531"/>
      <point x="248" y="531" type="curve" smooth="yes"/>
      <point x="121" y="531"/>
      <point x="109" y="329"/>
      <point x="106" y="244" type="curve"/>
      <point x="145" y="286" type="line"/>
      <point x="145" y="439"/>
      <point x="200" y="472"/>
      <point x="236" y="472" type="curve" smooth="yes"/>
      <point x="273" y="472"/>
      <point x="287" y="442"/>
      <point x="287" y="393" type="curve" smooth="yes"/>
      <point x="287" y="351"/>
      <point x="277" y="295"/>
    </contour>
    <contour>
      <point x="74" y="1" type="curve"/>
      <point x="149" y="1" type="line"/>
      <point x="147" y="57"/>
      <point x="144" y="161"/>
      <point x="145" y="286" type="curve"/>
      <point x="141" y="393"/>
      <point x="143" y="475"/>
      <point x="143" y="519" type="curve"/>
      <point x="75" y="516" type="line"/>
      <point x="80" y="458"/>
      <point x="83" y="369"/>
      <point x="83" y="246" type="curve" smooth="yes"/>
      <point x="83" y="117"/>
      <point x="78" y="59"/>
    </contour>
  </outline>
</glyph>
<glyph name="s" format="2">
  <advance width="379"/>
  <unicode hex="0073"/>
  <anchor x="191" y="0" name="bottom"/>
  <anchor x="200" y="515" name="top"/>
  <outline>
    <contour>
      <point x="190" y="-10" type="curve" smooth="yes"/>
      <point x="270" y="-10"/>
      <point x="332" y="43"/>
      <point x="332" y="129" type="curve" smooth="yes"/>
      <point x="332" y="213"/>
      <point x="251" y="237"/>
      <point x="188" y="273" type="curve" smooth="yes"/>
      <point x="147" y="296"/>
      <point x="113" y="325"/>
      <point x="113" y="379" type="curve" smooth="yes"/>
      <point x="113" y="440"/>
      <point x="142" y="474"/>
      <point x="193" y="474" type="curve" smooth="yes"/>
      <point x="246" y="474"/>
      <point x="263" y="432"/>
      <point x="263" y="374" type="curve" smooth="yes"/>
      <point x="263" y="351"/>
      <point x="260" y="326"/>
      <point x="256" y="300" type="curve"/>
      <point x="324" y="300" type="line"/>
      <point x="328" y="326"/>
      <point x="330" y="351"/>
      <point x="330" y="374" type="curve" smooth="yes"/>
      <point x="330" y="468"/>
      <point x="295" y="532"/>
      <point x="193" y="532" type="curve" smooth="yes"/>
      <point x="114" y="532"/>
      <point x="48" y="477"/>
      <point x="48" y="375" type="curve" smooth="yes"/>
      <point x="48" y="291"/>
      <point x="104" y="251"/>
      <point x="160" y="222" type="curve" smooth="yes"/>
      <point x="214" y="192"/>
      <point x="268" y="172"/>
      <point x="268" y="127" type="curve" smooth="yes"/>
      <point x="268" y="80"/>
      <point x="244" y="44"/>
      <point x="191" y="44" type="curve" smooth="yes"/>
      <point x="129" y="44"/>
      <point x="112" y="79"/>
      <point x="112" y="127" type="curve" smooth="yes"/>
      <point x="112" y="137"/>
      <point x="113" y="147"/>
      <point x="114" y="157" type="curve"/>
      <point x="54" y="157" type="line"/>
      <point x="50" y="142"/>
      <point x="48" y="128"/>
      <point x="48" y="114" type="curve" smooth="yes"/>
      <point x="48" y="46"/>
      <point x="96" y="-10"/>
    </contour>
  </outline>
</glyph>
<glyph name="t" format="2">
  <advance width="387"/>
  <unicode hex="0074"/>
  <anchor x="190" y="0" name="bottom"/>
  <anchor x="171" y="378" name="center"/>
  <anchor x="235" y="555" name="topright"/>
  <outline>
    <contour>
      <point x="197" y="-10" type="curve"/>
      <point x="298" y="-10"/>
      <point x="331" y="64"/>
      <point x="331" y="166" type="curve" smooth="yes"/>
      <point x="331" y="196"/>
      <point x="328" y="229"/>
      <point x="323" y="263" type="curve"/>
      <point x="263" y="263" type="line"/>
      <point x="268" y="227"/>
      <point x="272" y="192"/>
      <point x="272" y="160" type="curve" smooth="yes"/>
      <point x="272" y="94"/>
      <point x="255" y="44"/>
      <point x="197" y="44" type="curve" smooth="yes"/>
      <point x="143" y="44"/>
      <point x="133" y="90"/>
      <point x="133" y="173" type="curve" smooth="yes"/>
      <point x="133" y="207"/>
      <point x="135" y="247"/>
      <point x="138" y="294" type="curve" smooth="yes"/>
      <point x="142" y="356"/>
      <point x="154" y="500"/>
      <point x="166" y="617" type="curve"/>
      <point x="86" y="616" type="line"/>
      <point x="91" y="539"/>
      <point x="85" y="555"/>
      <point x="75" y="300" type="curve" smooth="yes"/>
      <point x="73" y="246"/>
      <point x="69" y="197"/>
      <point x="69" y="155" type="curve" smooth="yes"/>
      <point x="69" y="65"/>
      <point x="94" y="-10"/>
    </contour>
    <contour>
      <point x="27" y="456" type="line"/>
      <point x="27" y="456"/>
      <point x="117" y="461"/>
      <point x="182" y="462" type="curve"/>
      <point x="247" y="463"/>
      <point x="331" y="465"/>
      <point x="331" y="465" type="curve"/>
      <point x="337" y="516" type="line"/>
      <point x="337" y="516"/>
      <point x="227" y="513"/>
      <point x="164" y="513" type="curve"/>
      <point x="152" y="513"/>
      <point x="27" y="514"/>
      <point x="33" y="514" type="curve"/>
    </contour>
  </outline>
</glyph>
<glyph name="u" format="2">
  <advance width="423"/>
  <unicode hex="0075"/>
  <anchor x="215" y="0" name="bottom"/>
  <anchor x="336" y="0" name="ogonek"/>
  <anchor x="214" y="515" name="top"/>
  <anchor x="292" y="535" name="topright"/>
  <outline>
    <contour>
      <point x="167" y="-10" type="curve" smooth="yes"/>
      <point x="288" y="-10"/>
      <point x="314" y="130"/>
      <point x="314" y="288" type="curve"/>
      <point x="290" y="281" type="line"/>
      <point x="290" y="136"/>
      <point x="234" y="43"/>
      <point x="174" y="43" type="curve" smooth="yes"/>
      <point x="137" y="43"/>
      <point x="128" y="81"/>
      <point x="128" y="138" type="curve" smooth="yes"/>
      <point x="128" y="160"/>
      <point x="130" y="216"/>
      <point x="133" y="283" type="curve" smooth="yes"/>
      <point x="137" y="375"/>
      <point x="143" y="456"/>
      <point x="147" y="524" type="curve"/>
      <point x="78" y="518" type="line"/>
      <point x="78" y="506"/>
      <point x="75" y="409"/>
      <point x="72" y="302" type="curve" smooth="yes"/>
      <point x="70" y="231"/>
      <point x="68" y="169"/>
      <point x="68" y="159" type="curve" smooth="yes"/>
      <point x="68" y="60"/>
      <point x="80" y="-10"/>
    </contour>
    <contour>
      <point x="294" y="0" type="line"/>
      <point x="360" y="0" type="line"/>
      <point x="357" y="95"/>
      <point x="355" y="189"/>
      <point x="352" y="284" type="curve" smooth="yes"/>
      <point x="351" y="314"/>
      <point x="354" y="459"/>
      <point x="356" y="524" type="curve"/>
      <point x="285" y="525" type="line"/>
      <point x="287" y="434"/>
      <point x="290" y="343"/>
      <point x="290" y="281" type="curve" smooth="yes"/>
      <point x="290" y="222"/>
      <point x="290" y="164"/>
      <point x="288" y="105" type="curve"/>
    </contour>
  </outline>
</glyph>
<glyph name="v" format="2">
  <advance width="394"/>
  <unicode hex="0076"/>
  <outline>
    <contour>
      <point x="26" y="519" type="line"/>
      <point x="26" y="519"/>
      <point x="59" y="398"/>
      <point x="92" y="254" type="curve" smooth="yes"/>
      <point x="121" y="127"/>
      <point x="134" y="84"/>
      <point x="149" y="-3" type="curve"/>
      <point x="246" y="-6" type="line"/>
      <point x="263" y="77"/>
      <point x="277" y="137"/>
      <point x="304" y="254" type="curve" smooth="yes"/>
      <point x="337" y="398"/>
      <point x="366" y="517"/>
      <point x="366" y="517" type="curve"/>
      <point x="297" y="514" type="line"/>
      <point x="285" y="447"/>
      <point x="272" y="381"/>
      <point x="246" y="262" type="curve" smooth="yes"/>
      <point x="233" y="204"/>
      <point x="209" y="114"/>
      <point x="197" y="45" type="curve"/>
      <point x="184" y="114"/>
      <point x="162" y="204"/>
      <point x="150" y="262" type="curve" smooth="yes"/>
      <point x="125" y="382"/>
      <point x="111" y="455"/>
      <point x="100" y="519" type="curve"/>
    </contour>
  </outline>
</glyph>
<glyph name="w" format="2">
  <advance width="618"/>
  <unicode hex="0077"/>
  <anchor x="306" y="515" name="top"/>
  <outline>
    <contour>
      <point x="147" y="-3" type="curve"/>
      <point x="237" y="0" type="line"/>
      <point x="255" y="97"/>
      <point x="270" y="176"/>
      <point x="286" y="263" type="curve" smooth="yes"/>
      <point x="293" y="303"/>
      <point x="301" y="344"/>
      <point x="308" y="389" type="curve"/>
      <point x="317" y="344"/>
      <point x="325" y="300"/>
      <point x="333" y="255" type="curve" smooth="yes"/>
      <point x="346" y="177"/>
      <point x="359" y="96"/>
      <point x="375" y="-3" type="curve"/>
      <point x="465" y="-6" type="line"/>
      <point x="488" y="98"/>
      <point x="510" y="191"/>
      <point x="532" y="282" type="curve" smooth="yes"/>
      <point x="552" y="359"/>
      <point x="571" y="436"/>
      <point x="593" y="517" type="curve"/>
      <point x="520" y="518" type="line"/>
      <point x="507" y="446"/>
      <point x="492" y="371"/>
      <point x="476" y="296" type="curve" smooth="yes"/>
      <point x="458" y="213"/>
      <point x="439" y="131"/>
      <point x="421" y="53" type="curve"/>
      <point x="416" y="86"/>
      <point x="401" y="171"/>
      <point x="385" y="274" type="curve" smooth="yes"/>
      <point x="375" y="339"/>
      <point x="364" y="412"/>
      <point x="354" y="484" type="curve"/>
      <point x="265" y="484" type="line"/>
      <point x="255" y="418"/>
      <point x="243" y="346"/>
      <point x="231" y="277" type="curve" smooth="yes"/>
      <point x="216" y="193"/>
      <point x="201" y="113"/>
      <point x="190" y="53" type="curve"/>
      <point x="171" y="141"/>
      <point x="157" y="212"/>
      <point x="142" y="291" type="curve" smooth="yes"/>
      <point x="130" y="356"/>
      <point x="118" y="426"/>
      <point x="102" y="515" type="curve"/>
      <point x="25" y="515" type="line"/>
      <point x="44" y="436"/>
      <point x="66" y="348"/>
      <point x="86" y="263" type="curve" smooth="yes"/>
      <point x="110" y="160"/>
      <point x="133" y="63"/>
    </contour>
  </outline>
</glyph>
<glyph name="x" format="2">
  <advance width="346"/>
  <unicode hex="0078"/>
  <outline>
    <contour>
      <point x="79" y="-4" type="line"/>
      <point x="79" y="-4"/>
      <point x="133" y="120"/>
      <point x="202" y="261" type="curve" smooth="yes"/>
      <point x="269" y="398"/>
      <point x="335" y="518"/>
      <point x="335" y="518" type="curve"/>
      <point x="262" y="518" type="line"/>
      <point x="262" y="518"/>
      <point x="208" y="414"/>
      <point x="145" y="279" type="curve" smooth="yes"/>
      <point x="79" y="138"/>
      <point x="3" y="-2"/>
      <point x="3" y="-2" type="curve"/>
    </contour>
    <contour>
      <point x="273" y="0" type="curve"/>
      <point x="347" y="3" type="line"/>
      <point x="347" y="3"/>
      <point x="275" y="138"/>
      <point x="207" y="279" type="curve" smooth="yes"/>
      <point x="141" y="416"/>
      <point x="94" y="518"/>
      <point x="94" y="518" type="curve"/>
      <point x="15" y="518" type="line"/>
      <point x="15" y="518"/>
      <point x="83" y="398"/>
      <point x="151" y="261" type="curve" smooth="yes"/>
      <point x="221" y="120"/>
      <point x="273" y="0"/>
    </contour>
  </outline>
</glyph>
<glyph name="y" format="2">
  <advance width="399"/>
  <unicode hex="0079"/>
  <anchor x="319" y="30" name="bottom"/>
  <anchor x="195" y="555" name="top"/>
  <outline>
    <contour>
      <point x="204" y="-148" type="line"/>
      <point x="233" y="-24"/>
      <point x="264" y="124"/>
      <point x="298" y="265" type="curve" smooth="yes"/>
      <point x="323" y="370"/>
      <point x="340" y="431"/>
      <point x="363" y="516" type="curve"/>
      <point x="288" y="516" type="line"/>
      <point x="270" y="415"/>
      <point x="258" y="362"/>
      <point x="238" y="272" type="curve" smooth="yes"/>
      <point x="206" y="129"/>
      <point x="173" y="-5"/>
      <point x="130" y="-146" type="curve"/>
    </contour>
    <contour>
      <point x="176" y="-9" type="curve"/>
      <point x="229" y="38" type="line"/>
      <point x="204" y="120"/>
      <point x="184" y="198"/>
      <point x="163" y="281" type="curve" smooth="yes"/>
      <point x="142" y="363"/>
      <point x="130" y="410"/>
      <point x="109" y="513" type="curve"/>
      <point x="32" y="510" type="line"/>
      <point x="59" y="415"/>
      <point x="75" y="360"/>
      <point x="100" y="270" type="curve" smooth="yes"/>
      <point x="128" y="169"/>
      <point x="155" y="73"/>
    </contour>
  </outline>
</glyph>
<glyph name="z" format="2">
  <advance width="317"/>
  <unicode hex="007A"/>
  <anchor x="156" y="515" name="top"/>
  <outline>
    <contour>
      <point x="70" y="10" type="line"/>
      <point x="109" y="98"/>
      <point x="142" y="161"/>
      <point x="184" y="242" type="curve" smooth="yes"/>
      <point x="224" y="319"/>
      <point x="253" y="373"/>
      <point x="295" y="449" type="curve"/>
      <point x="242" y="495" type="line"/>
      <point x="196" y="397"/>
      <point x="165" y="334"/>
      <point x="128" y="263" type="curve" smooth="yes"/>
      <point x="84" y="180"/>
      <point x="58" y="129"/>
      <point x="22" y="62" type="curve"/>
    </contour>
    <contour>
      <point x="23" y="-4" type="line"/>
      <point x="23" y="-4"/>
      <point x="112" y="0"/>
      <point x="162" y="0" type="curve"/>
      <point x="212" y="-1"/>
      <point x="303" y="0"/>
      <point x="303" y="0" type="curve"/>
      <point x="304" y="64" type="line"/>
      <point x="304" y="64"/>
      <point x="225" y="62"/>
      <point x="177" y="61" type="curve"/>
      <point x="128" y="61"/>
      <point x="22" y="62"/>
      <point x="22" y="62" type="curve"/>
    </contour>
    <contour>
      <point x="31" y="449" type="line"/>
      <point x="31" y="449"/>
      <point x="104" y="451"/>
      <point x="153" y="451" type="curve"/>
      <point x="201" y="451"/>
      <point x="295" y="449"/>
      <point x="295" y="449" type="curve"/>
      <point x="292" y="515" type="line"/>
      <point x="292" y="515"/>
      <point x="229" y="512"/>
      <point x="169" y="512" type="curve"/>
      <point x="119" y="511"/>
      <point x="32" y="512"/>
      <point x="32" y="512" type="curve"/>
    </contour>
  </outline>
</glyph>
<glyph name="braceleft" format="2">
  <advance width="525"/>
  <unicode hex="007B"/>
  <outline>
    <contour>
      <point x="317" y="-130" type="curve" smooth="yes"/>
      <point x="349" y="-130"/>
      <point x="386" y="-122"/>
      <point x="425" y="-106" type="curve"/>
      <point x="412" y="-57" type="line"/>
      <point x="377" y="-70"/>
      <point x="347" y="-77"/>
      <point x="323" y="-77" type="curve" smooth="yes"/>
      <point x="276" y="-77"/>
      <point x="251" y="-50"/>
      <point x="251" y="8" type="curve" smooth="yes"/>
      <point x="251" y="42"/>
      <point x="272" y="130"/>
      <point x="272" y="177" type="curve" smooth="yes"/>
      <point x="272" y="227"/>
      <point x="240" y="271"/>
      <point x="187" y="278" type="curve"/>
      <point x="240" y="285"/>
      <point x="270" y="324"/>
      <point x="270" y="374" type="curve" smooth="yes"/>
      <point x="270" y="421"/>
      <point x="239" y="530"/>
      <point x="239" y="564" type="curve" smooth="yes"/>
      <point x="239" y="620"/>
      <point x="263" y="648"/>
      <point x="310" y="648" type="curve" smooth="yes"/>
      <point x="333" y="648"/>
      <point x="361" y="641"/>
      <point x="394" y="629" type="curve"/>
      <point x="411" y="679" type="line"/>
      <point x="371" y="695"/>
      <point x="335" y="703"/>
      <point x="303" y="703" type="curve" smooth="yes"/>
      <point x="228" y="703"/>
      <point x="181" y="658"/>
      <point x="181" y="572" type="curve" smooth="yes"/>
      <point x="181" y="516"/>
      <point x="213" y="438"/>
      <point x="213" y="384" type="curve" smooth="yes"/>
      <point x="213" y="311"/>
      <point x="137" y="302"/>
      <point x="100" y="302" type="curve"/>
      <point x="107" y="243" type="line"/>
      <point x="144" y="243"/>
      <point x="213" y="235"/>
      <point x="213" y="161" type="curve" smooth="yes"/>
      <point x="213" y="107"/>
      <point x="191" y="57"/>
      <point x="191" y="1" type="curve" smooth="yes"/>
      <point x="191" y="-84"/>
      <point x="241" y="-130"/>
    </contour>
  </outline>
</glyph>
<glyph name="braceright" format="2">
  <advance width="525"/>
  <unicode hex="007D"/>
  <outline>
    <contour>
      <point x="222" y="-130" type="curve" smooth="yes"/>
      <point x="297" y="-130"/>
      <point x="344" y="-85"/>
      <point x="344" y="1" type="curve" smooth="yes"/>
      <point x="344" y="57"/>
      <point x="312" y="135"/>
      <point x="312" y="189" type="curve" smooth="yes"/>
      <point x="312" y="262"/>
      <point x="388" y="271"/>
      <point x="425" y="271" type="curve"/>
      <point x="418" y="330" type="line"/>
      <point x="381" y="330"/>
      <point x="312" y="338"/>
      <point x="312" y="412" type="curve" smooth="yes"/>
      <point x="312" y="466"/>
      <point x="334" y="516"/>
      <point x="334" y="572" type="curve" smooth="yes"/>
      <point x="334" y="657"/>
      <point x="284" y="703"/>
      <point x="208" y="703" type="curve" smooth="yes"/>
      <point x="176" y="703"/>
      <point x="139" y="695"/>
      <point x="100" y="679" type="curve"/>
      <point x="113" y="630" type="line"/>
      <point x="148" y="643"/>
      <point x="178" y="650"/>
      <point x="202" y="650" type="curve" smooth="yes"/>
      <point x="249" y="650"/>
      <point x="274" y="623"/>
      <point x="274" y="565" type="curve" smooth="yes"/>
      <point x="274" y="531"/>
      <point x="253" y="443"/>
      <point x="253" y="396" type="curve" smooth="yes"/>
      <point x="253" y="346"/>
      <point x="285" y="302"/>
      <point x="338" y="295" type="curve"/>
      <point x="285" y="288"/>
      <point x="255" y="249"/>
      <point x="255" y="199" type="curve" smooth="yes"/>
      <point x="255" y="152"/>
      <point x="286" y="43"/>
      <point x="286" y="9" type="curve" smooth="yes"/>
      <point x="286" y="-47"/>
      <point x="262" y="-75"/>
      <point x="215" y="-75" type="curve" smooth="yes"/>
      <point x="192" y="-75"/>
      <point x="164" y="-68"/>
      <point x="131" y="-56" type="curve"/>
      <point x="114" y="-106" type="line"/>
      <point x="154" y="-122"/>
      <point x="190" y="-130"/>
    </contour>
  </outline>
</glyph>
<glyph name="asciitilde" format="2">
  <advance width="500"/>
  <unicode hex="007E"/>
  <outline>
    <contour>
      <point x="79" y="247" type="line"/>
      <point x="99" y="257"/>
      <point x="138" y="265"/>
      <point x="169" y="265" type="curve" smooth="yes"/>
      <point x="213" y="265"/>
      <point x="268" y="249"/>
      <point x="315" y="249" type="curve" smooth="yes"/>
      <point x="364" y="249"/>
      <point x="399" y="263"/>
      <point x="417" y="273" type="curve"/>
      <point x="415" y="326" type="line"/>
      <point x="386" y="314"/>
      <point x="358" y="301"/>
      <point x="306" y="301" type="curve" smooth="yes"/>
      <point x="254" y="301"/>
      <point x="224" y="318"/>
      <point x="160" y="318" type="curve" smooth="yes"/>
      <point x="133" y="318"/>
      <point x="100" y="311"/>
      <point x="76" y="298" type="curve"/>
    </contour>
  </outline>
</glyph>
<glyph name="exclamdown" format="2">
  <advance width="285"/>
  <unicode hex="00A1"/>
  <outline>
    <contour>
      <point x="101" y="-146" type="curve"/>
      <point x="185" y="-145" type="line"/>
      <point x="185" y="-145"/>
      <point x="179" y="23"/>
      <point x="176" y="133" type="curve"/>
      <point x="173" y="242"/>
      <point x="172" y="323"/>
      <point x="172" y="323" type="curve"/>
      <point x="111" y="321" type="line"/>
      <point x="111" y="321"/>
      <point x="110" y="208"/>
      <point x="108" y="132" type="curve"/>
      <point x="107" y="57"/>
      <point x="101" y="-146"/>
    </contour>
    <contour>
      <point x="104" y="423" type="line"/>
      <point x="173" y="422" type="line"/>
      <point x="180" y="557" type="line"/>
      <point x="100" y="552" type="line"/>
    </contour>
  </outline>
</glyph>
<glyph name="sterling" format="2">
  <advance width="500"/>
  <unicode hex="00A3"/>
  <outline>
    <contour>
      <point x="187" y="54" type="line"/>
      <point x="220" y="94"/>
      <point x="232" y="135"/>
      <point x="232" y="176" type="curve" smooth="yes"/>
      <point x="232" y="278"/>
      <point x="160" y="388"/>
      <point x="160" y="524" type="curve" smooth="yes"/>
      <point x="160" y="596"/>
      <point x="192" y="647"/>
      <point x="270" y="647" type="curve" smooth="yes"/>
      <point x="342" y="647"/>
      <point x="367" y="587"/>
      <point x="367" y="521" type="curve" smooth="yes"/>
      <point x="367" y="492"/>
      <point x="362" y="462"/>
      <point x="355" y="436" type="curve"/>
      <point x="420" y="437" type="line"/>
      <point x="428" y="467"/>
      <point x="433" y="499"/>
      <point x="433" y="530" type="curve" smooth="yes"/>
      <point x="433" y="622"/>
      <point x="391" y="706"/>
      <point x="265" y="706" type="curve" smooth="yes"/>
      <point x="152" y="706"/>
      <point x="93" y="627"/>
      <point x="93" y="523" type="curve" smooth="yes"/>
      <point x="93" y="413"/>
      <point x="167" y="262"/>
      <point x="167" y="163" type="curve" smooth="yes"/>
      <point x="167" y="110"/>
      <point x="146" y="72"/>
      <point x="80" y="64" type="curve"/>
    </contour>
    <contour>
      <point x="91" y="-4" type="line"/>
      <point x="91" y="-4"/>
      <point x="167" y="0"/>
      <point x="265" y="0" type="curve"/>
      <point x="275" y="0"/>
      <point x="379" y="0"/>
      <point x="434" y="-1" type="curve"/>
      <point x="440" y="67" type="line"/>
      <point x="371" y="64"/>
      <point x="307" y="61"/>
      <point x="264" y="62" type="curve"/>
      <point x="162" y="62"/>
      <point x="80" y="64"/>
      <point x="80" y="64" type="curve"/>
    </contour>
    <contour>
      <point x="75" y="262" type="line"/>
      <point x="75" y="262"/>
      <point x="188" y="269"/>
      <point x="237" y="269" type="curve"/>
      <point x="288" y="269"/>
      <point x="368" y="265"/>
      <point x="368" y="265" type="curve"/>
      <point x="379" y="330" type="line"/>
      <point x="379" y="330"/>
      <point x="282" y="326"/>
      <point x="234" y="325" type="curve"/>
      <point x="224" y="325"/>
      <point x="82" y="325"/>
      <point x="78" y="325" type="curve"/>
    </contour>
  </outline>
</glyph>
<glyph name="section" format="2">
  <advance width="448"/>
  <unicode hex="00A7"/>
  <outline>
    <contour>
      <point x="225" y="702" type="curve"/>
      <point x="137" y="702"/>
      <point x="82" y="639"/>
      <point x="82" y="550" type="curve" smooth="yes"/>
      <point x="82" y="453"/>
      <point x="144" y="410"/>
      <point x="201" y="379" type="curve" smooth="yes"/>
      <point x="252" y="351"/>
      <point x="300" y="332"/>
      <point x="300" y="291" type="curve" smooth="yes"/>
      <point x="300" y="234"/>
      <point x="252" y="219"/>
      <point x="221" y="221" type="curve"/>
      <point x="226" y="163" type="line"/>
      <point x="288" y="163"/>
      <point x="365" y="203"/>
      <point x="365" y="297" type="curve" smooth="yes"/>
      <point x="365" y="380"/>
      <point x="293" y="408"/>
      <point x="232" y="442" type="curve" smooth="yes"/>
      <point x="188" y="467"/>
      <point x="149" y="496"/>
      <point x="149" y="551" type="curve" smooth="yes"/>
      <point x="149" y="609"/>
      <point x="171" y="647"/>
      <point x="222" y="647" type="curve" smooth="yes"/>
      <point x="283" y="647"/>
      <point x="298" y="598"/>
      <point x="298" y="544" type="curve" smooth="yes"/>
      <point x="298" y="519"/>
      <point x="294" y="492"/>
      <point x="291" y="469" type="curve"/>
      <point x="359" y="469" type="line"/>
      <point x="362" y="493"/>
      <point x="364" y="518"/>
      <point x="364" y="542" type="curve" smooth="yes"/>
      <point x="364" y="625"/>
      <point x="338" y="702"/>
    </contour>
    <contour>
      <point x="222" y="-110" type="curve"/>
      <point x="310" y="-110"/>
      <point x="365" y="-47"/>
      <point x="365" y="42" type="curve" smooth="yes"/>
      <point x="365" y="139"/>
      <point x="303" y="182"/>
      <point x="246" y="213" type="curve" smooth="yes"/>
      <point x="195" y="241"/>
      <point x="147" y="260"/>
      <point x="147" y="301" type="curve" smooth="yes"/>
      <point x="147" y="358"/>
      <point x="195" y="373"/>
      <point x="226" y="371" type="curve"/>
      <point x="221" y="429" type="line"/>
      <point x="159" y="429"/>
      <point x="82" y="389"/>
      <point x="82" y="295" type="curve" smooth="yes"/>
      <point x="82" y="212"/>
      <point x="154" y="184"/>
      <point x="215" y="150" type="curve" smooth="yes"/>
      <point x="259" y="125"/>
      <point x="298" y="96"/>
      <point x="298" y="41" type="curve" smooth="yes"/>
      <point x="298" y="-17"/>
      <point x="276" y="-55"/>
      <point x="225" y="-55" type="curve" smooth="yes"/>
      <point x="164" y="-55"/>
      <point x="149" y="-6"/>
      <point x="149" y="48" type="curve" smooth="yes"/>
      <point x="149" y="73"/>
      <point x="153" y="100"/>
      <point x="156" y="123" type="curve"/>
      <point x="88" y="123" type="line"/>
      <point x="85" y="99"/>
      <point x="83" y="74"/>
      <point x="83" y="50" type="curve" smooth="yes"/>
      <point x="83" y="-33"/>
      <point x="109" y="-110"/>
    </contour>
  </outline>
</glyph>
<glyph name="copyright" format="2">
  <advance width="727"/>
  <unicode hex="00A9"/>
  <outline>
    <contour>
      <point x="353" y="68" type="curve" smooth="yes"/>
      <point x="561" y="68"/>
      <point x="647" y="224"/>
      <point x="647" y="381" type="curve" smooth="yes"/>
      <point x="647" y="541"/>
      <point x="570" y="703"/>
      <point x="366" y="703" type="curve" smooth="yes"/>
      <point x="166" y="703"/>
      <point x="80" y="544"/>
      <point x="80" y="384" type="curve" smooth="yes"/>
      <point x="80" y="226"/>
      <point x="152" y="68"/>
    </contour>
    <contour>
      <point x="354" y="191" type="curve" smooth="yes"/>
      <point x="423" y="191"/>
      <point x="453" y="235"/>
      <point x="453" y="303" type="curve" smooth="yes"/>
      <point x="453" y="311"/>
      <point x="452" y="320"/>
      <point x="451" y="329" type="curve"/>
      <point x="406" y="327" type="line"/>
      <point x="407" y="317"/>
      <point x="408" y="307"/>
      <point x="408" y="298" type="curve" smooth="yes"/>
      <point x="408" y="260"/>
      <point x="395" y="233"/>
      <point x="358" y="233" type="curve" smooth="yes"/>
      <point x="330" y="233"/>
      <point x="316" y="254"/>
      <point x="309" y="288" type="curve" smooth="yes"/>
      <point x="304" y="314"/>
      <point x="302" y="348"/>
      <point x="302" y="386" type="curve" smooth="yes"/>
      <point x="302" y="425"/>
      <point x="303" y="461"/>
      <point x="309" y="490" type="curve" smooth="yes"/>
      <point x="316" y="524"/>
      <point x="332" y="547"/>
      <point x="361" y="547" type="curve" smooth="yes"/>
      <point x="395" y="547"/>
      <point x="404" y="521"/>
      <point x="404" y="480" type="curve" smooth="yes"/>
      <point x="404" y="460"/>
      <point x="402" y="436"/>
      <point x="400" y="410" type="curve"/>
      <point x="446" y="410" type="line"/>
      <point x="449" y="429"/>
      <point x="451" y="449"/>
      <point x="451" y="467" type="curve" smooth="yes"/>
      <point x="451" y="535"/>
      <point x="429" y="587"/>
      <point x="367" y="587" type="curve" smooth="yes"/>
      <point x="310" y="587"/>
      <point x="279" y="555"/>
      <point x="265" y="504" type="curve" smooth="yes"/>
      <point x="256" y="472"/>
      <point x="253" y="432"/>
      <point x="253" y="387" type="curve" smooth="yes"/>
      <point x="253" y="339"/>
      <point x="257" y="294"/>
      <point x="270" y="258" type="curve" smooth="yes"/>
      <point x="284" y="218"/>
      <point x="310" y="191"/>
    </contour>
    <contour>
      <point x="359" y="122" type="curve" smooth="yes"/>
      <point x="194" y="122"/>
      <point x="139" y="261"/>
      <point x="139" y="384" type="curve" smooth="yes"/>
      <point x="139" y="509"/>
      <point x="199" y="649"/>
      <point x="362" y="649" type="curve" smooth="yes"/>
      <point x="530" y="649"/>
      <point x="588" y="507"/>
      <point x="588" y="382" type="curve" smooth="yes"/>
      <point x="588" y="260"/>
      <point x="529" y="122"/>
    </contour>
  </outline>
</glyph>
<glyph name="ordfeminine" format="2">
  <advance width="377"/>
  <unicode hex="00AA"/>
  <outline>
    <contour>
      <point x="80" y="518" type="curve" smooth="yes"/>
      <point x="80" y="480"/>
      <point x="111" y="461"/>
      <point x="150" y="461" type="curve" smooth="yes"/>
      <point x="179" y="461"/>
      <point x="211" y="472"/>
      <point x="234" y="495" type="curve"/>
      <point x="236" y="480"/>
      <point x="245" y="468"/>
      <point x="254" y="461" type="curve"/>
      <point x="294" y="481" type="line"/>
      <point x="286" y="490"/>
      <point x="275" y="503"/>
      <point x="276" y="524" type="curve" smooth="yes"/>
      <point x="279" y="624" type="line" smooth="yes"/>
      <point x="280" y="654"/>
      <point x="265" y="703"/>
      <point x="186" y="703" type="curve" smooth="yes"/>
      <point x="125" y="703"/>
      <point x="89" y="673"/>
      <point x="89" y="627" type="curve"/>
      <point x="133" y="621" type="line"/>
      <point x="133" y="653"/>
      <point x="158" y="666"/>
      <point x="186" y="666" type="curve" smooth="yes"/>
      <point x="221" y="666"/>
      <point x="232" y="649"/>
      <point x="232" y="632" type="curve" smooth="yes"/>
      <point x="232" y="606"/>
      <point x="195" y="602"/>
      <point x="158" y="589" type="curve" smooth="yes"/>
      <point x="119" y="577"/>
      <point x="80" y="563"/>
    </contour>
    <contour>
      <point x="126" y="521" type="curve" smooth="yes"/>
      <point x="126" y="540"/>
      <point x="145" y="547"/>
      <point x="168" y="555" type="curve" smooth="yes"/>
      <point x="192" y="563"/>
      <point x="221" y="568"/>
      <point x="234" y="578" type="curve"/>
      <point x="233" y="554" type="line" smooth="yes"/>
      <point x="232" y="518"/>
      <point x="190" y="499"/>
      <point x="155" y="499" type="curve" smooth="yes"/>
      <point x="136" y="499"/>
      <point x="126" y="506"/>
    </contour>
  </outline>
</glyph>
<glyph name="guillemetleft" format="2">
  <advance width="746"/>
  <unicode hex="00AB"/>
  <outline>
    <contour>
      <point x="107" y="249" type="line"/>
      <point x="107" y="249"/>
      <point x="175" y="302"/>
      <point x="241" y="344" type="curve" smooth="yes"/>
      <point x="300" y="382"/>
      <point x="372" y="423"/>
      <point x="372" y="423" type="curve"/>
      <point x="339" y="477" type="line"/>
      <point x="302" y="449"/>
      <point x="260" y="420"/>
      <point x="215" y="388" type="curve" smooth="yes"/>
      <point x="164" y="352"/>
      <point x="100" y="313"/>
      <point x="100" y="313" type="curve"/>
    </contour>
    <contour>
      <point x="349" y="117" type="curve"/>
      <point x="376" y="176" type="line"/>
      <point x="376" y="176"/>
      <point x="317" y="205"/>
      <point x="255" y="236" type="curve" smooth="yes"/>
      <point x="199" y="264"/>
      <point x="100" y="315"/>
      <point x="100" y="313" type="curve"/>
      <point x="107" y="249" type="line"/>
      <point x="107" y="249"/>
      <point x="168" y="219"/>
      <point x="225" y="189" type="curve" smooth="yes"/>
      <point x="286" y="157"/>
      <point x="329" y="131"/>
    </contour>
    <contour>
      <point x="377" y="249" type="line"/>
      <point x="377" y="249"/>
      <point x="445" y="302"/>
      <point x="511" y="344" type="curve" smooth="yes"/>
      <point x="570" y="382"/>
      <point x="642" y="423"/>
      <point x="642" y="423" type="curve"/>
      <point x="609" y="477" type="line"/>
      <point x="572" y="449"/>
      <point x="530" y="420"/>
      <point x="485" y="388" type="curve" smooth="yes"/>
      <point x="434" y="352"/>
      <point x="370" y="313"/>
      <point x="370" y="313" type="curve"/>
    </contour>
    <contour>
      <point x="619" y="117" type="curve"/>
      <point x="646" y="176" type="line"/>
      <point x="646" y="176"/>
      <point x="587" y="205"/>
      <point x="525" y="236" type="curve" smooth="yes"/>
      <point x="469" y="264"/>
      <point x="370" y="315"/>
      <point x="370" y="313" type="curve"/>
      <point x="377" y="249" type="line"/>
      <point x="377" y="249"/>
      <point x="438" y="219"/>
      <point x="495" y="189" type="curve" smooth="yes"/>
      <point x="556" y="157"/>
      <point x="599" y="131"/>
    </contour>
  </outline>
</glyph>
<glyph name="logicalnot" format="2">
  <advance width="550"/>
  <unicode hex="00AC"/>
  <outline>
    <contour>
      <point x="32" y="313" type="line"/>
      <point x="88" y="313"/>
      <point x="222" y="316"/>
      <point x="274" y="317" type="curve" smooth="yes"/>
      <point x="329" y="318"/>
      <point x="508" y="316"/>
      <point x="508" y="316" type="curve"/>
      <point x="512" y="379" type="line"/>
      <point x="415" y="374"/>
      <point x="297" y="375"/>
      <point x="266" y="374" type="curve" smooth="yes"/>
      <point x="214" y="372"/>
      <point x="55" y="375"/>
      <point x="28" y="376" type="curve"/>
    </contour>
    <contour>
      <point x="452" y="139" type="curve"/>
      <point x="515" y="143" type="line"/>
      <point x="513" y="197"/>
      <point x="511" y="224"/>
      <point x="511" y="275" type="curve" smooth="yes"/>
      <point x="511" y="330"/>
      <point x="512" y="379"/>
      <point x="512" y="379" type="curve"/>
      <point x="450" y="358" type="line"/>
      <point x="451" y="330"/>
      <point x="453" y="304"/>
      <point x="454" y="267" type="curve" smooth="yes"/>
      <point x="456" y="210"/>
      <point x="452" y="181"/>
    </contour>
  </outline>
</glyph>
<glyph name="registered" format="2">
  <advance width="470"/>
  <unicode hex="00AE"/>
  <outline>
    <contour>
      <point x="228" y="229" type="curve" smooth="yes"/>
      <point x="381" y="229"/>
      <point x="437" y="348"/>
      <point x="437" y="462" type="curve" smooth="yes"/>
      <point x="437" y="579"/>
      <point x="388" y="702"/>
      <point x="237" y="702" type="curve" smooth="yes"/>
      <point x="91" y="702"/>
      <point x="34" y="581"/>
      <point x="34" y="464" type="curve" smooth="yes"/>
      <point x="34" y="349"/>
      <point x="81" y="229"/>
    </contour>
    <contour>
      <point x="231" y="274" type="curve" smooth="yes"/>
      <point x="114" y="274"/>
      <point x="81" y="378"/>
      <point x="81" y="464" type="curve" smooth="yes"/>
      <point x="81" y="552"/>
      <point x="118" y="657"/>
      <point x="234" y="657" type="curve" smooth="yes"/>
      <point x="355" y="657"/>
      <point x="390" y="551"/>
      <point x="390" y="463" type="curve" smooth="yes"/>
      <point x="390" y="377"/>
      <point x="353" y="274"/>
    </contour>
    <contour>
      <point x="274" y="322" type="curve"/>
      <point x="319" y="323" type="line"/>
      <point x="299" y="359"/>
      <point x="280" y="394"/>
      <point x="266" y="427" type="curve"/>
      <point x="290" y="441"/>
      <point x="304" y="467"/>
      <point x="304" y="509" type="curve" smooth="yes"/>
      <point x="304" y="593"/>
      <point x="277" y="611"/>
      <point x="212" y="611" type="curve" smooth="yes"/>
      <point x="201" y="611"/>
      <point x="188" y="610"/>
      <point x="174" y="609" type="curve"/>
      <point x="175" y="578"/>
      <point x="175" y="517"/>
      <point x="175" y="467" type="curve" smooth="yes"/>
      <point x="175" y="417"/>
      <point x="174" y="355"/>
      <point x="174" y="322" type="curve"/>
      <point x="214" y="323" type="line"/>
      <point x="213" y="348"/>
      <point x="213" y="383"/>
      <point x="212" y="414" type="curve"/>
      <point x="218" y="414"/>
      <point x="223" y="414"/>
      <point x="230" y="416" type="curve"/>
      <point x="247" y="383"/>
      <point x="261" y="353"/>
    </contour>
    <contour>
      <point x="212" y="448" type="curve"/>
      <point x="212" y="455"/>
      <point x="212" y="461"/>
      <point x="212" y="468" type="curve" smooth="yes"/>
      <point x="212" y="498"/>
      <point x="213" y="542"/>
      <point x="214" y="578" type="curve"/>
      <point x="216" y="578"/>
      <point x="217" y="578"/>
      <point x="219" y="578" type="curve" smooth="yes"/>
      <point x="263" y="578"/>
      <point x="268" y="561"/>
      <point x="268" y="508" type="curve" smooth="yes"/>
      <point x="268" y="463"/>
      <point x="252" y="450"/>
    </contour>
  </outline>
</glyph>
<glyph name="macron" format="2">
  <advance width="305"/>
  <unicode hex="00AF"/>
  <anchor x="153" y="555" name="_top"/>
  <outline>
    <contour>
      <point x="40" y="646" type="line"/>
      <point x="266" y="649" type="line"/>
      <point x="261" y="696" type="line"/>
      <point x="40" y="699" type="line"/>
    </contour>
  </outline>
</glyph>
<glyph name="degree" format="2">
  <advance width="359"/>
  <unicode hex="00B0"/>
  <outline>
    <contour>
      <point x="182" y="501" type="curve"/>
      <point x="245" y="501"/>
      <point x="289" y="546"/>
      <point x="289" y="609" type="curve"/>
      <point x="289" y="664"/>
      <point x="245" y="703"/>
      <point x="179" y="703" type="curve"/>
      <point x="112" y="703"/>
      <point x="70" y="660"/>
      <point x="70" y="594" type="curve"/>
      <point x="70" y="572"/>
      <point x="79" y="501"/>
    </contour>
    <contour>
      <point x="183" y="530" type="curve"/>
      <point x="122" y="530"/>
      <point x="108" y="569"/>
      <point x="108" y="603" type="curve" smooth="yes"/>
      <point x="108" y="638"/>
      <point x="134" y="674"/>
      <point x="179" y="674" type="curve"/>
      <point x="212" y="674"/>
      <point x="251" y="653"/>
      <point x="251" y="611" type="curve" smooth="yes"/>
      <point x="251" y="566"/>
      <point x="232" y="530"/>
    </contour>
  </outline>
</glyph>
<glyph name="plusminus" format="2">
  <advance width="500"/>
  <unicode hex="00B1"/>
  <outline>
    <contour>
      <point x="295" y="218" type="line"/>
      <point x="295" y="219"/>
      <point x="286" y="316"/>
      <point x="286" y="382" type="curve"/>
      <point x="286" y="451"/>
      <point x="293" y="537"/>
      <point x="293" y="537" type="curve"/>
      <point x="224" y="533" type="line"/>
      <point x="224" y="533"/>
      <point x="228" y="446"/>
      <point x="229" y="381" type="curve"/>
      <point x="231" y="319"/>
      <point x="225" y="214"/>
      <point x="225" y="214" type="curve"/>
    </contour>
    <contour>
      <point x="90" y="103" type="line"/>
      <point x="90" y="103"/>
      <point x="210" y="107"/>
      <point x="262" y="107" type="curve"/>
      <point x="317" y="108"/>
      <point x="426" y="106"/>
      <point x="426" y="106" type="curve"/>
      <point x="430" y="169" type="line"/>
      <point x="430" y="169"/>
      <point x="312" y="166"/>
      <point x="254" y="164" type="curve"/>
      <point x="197" y="162"/>
      <point x="86" y="166"/>
      <point x="86" y="166" type="curve"/>
    </contour>
    <contour>
      <point x="85" y="338" type="line"/>
      <point x="85" y="338"/>
      <point x="212" y="344"/>
      <point x="271" y="344" type="curve"/>
      <point x="332" y="344"/>
      <point x="432" y="339"/>
      <point x="432" y="339" type="curve"/>
      <point x="435" y="404" type="line"/>
      <point x="435" y="404"/>
      <point x="327" y="401"/>
      <point x="270" y="400" type="curve"/>
      <point x="215" y="400"/>
      <point x="90" y="401"/>
      <point x="90" y="401" type="curve"/>
    </contour>
  </outline>
</glyph>
<glyph name="twosuperior" format="2">
  <advance width="322"/>
  <unicode hex="00B2"/>
  <outline>
    <contour>
      <point x="130" y="590" type="line"/>
      <point x="175" y="617"/>
      <point x="241" y="666"/>
      <point x="241" y="731" type="curve" smooth="yes"/>
      <point x="241" y="774"/>
      <point x="218" y="805"/>
      <point x="166" y="805" type="curve" smooth="yes"/>
      <point x="112" y="805"/>
      <point x="84" y="770"/>
      <point x="84" y="722" type="curve" smooth="yes"/>
      <point x="84" y="713"/>
      <point x="85" y="703"/>
      <point x="87" y="692" type="curve"/>
      <point x="136" y="693" type="line"/>
      <point x="134" y="704"/>
      <point x="132" y="716"/>
      <point x="132" y="727" type="curve" smooth="yes"/>
      <point x="132" y="750"/>
      <point x="140" y="768"/>
      <point x="162" y="768" type="curve" smooth="yes"/>
      <point x="185" y="768"/>
      <point x="191" y="751"/>
      <point x="191" y="731" type="curve" smooth="yes"/>
      <point x="191" y="676"/>
      <point x="146" y="645"/>
      <point x="83" y="604" type="curve"/>
    </contour>
    <contour>
      <point x="82" y="563" type="line"/>
      <point x="82" y="563"/>
      <point x="133" y="564"/>
      <point x="164" y="565" type="curve"/>
      <point x="195" y="565"/>
      <point x="245" y="565"/>
      <point x="245" y="565" type="curve"/>
      <point x="244" y="607" type="line"/>
      <point x="244" y="607"/>
      <point x="199" y="606"/>
      <point x="169" y="605" type="curve"/>
      <point x="141" y="605"/>
      <point x="83" y="604"/>
      <point x="83" y="604" type="curve"/>
    </contour>
  </outline>
</glyph>
<glyph name="threesuperior" format="2">
  <advance width="322"/>
  <unicode hex="00B3"/>
  <outline>
    <contour>
      <point x="152" y="559" type="curve" smooth="yes"/>
      <point x="212" y="559"/>
      <point x="232" y="593"/>
      <point x="232" y="622" type="curve" smooth="yes"/>
      <point x="232" y="649"/>
      <point x="216" y="664"/>
      <point x="200" y="668" type="curve"/>
      <point x="221" y="682"/>
      <point x="236" y="699"/>
      <point x="236" y="739" type="curve" smooth="yes"/>
      <point x="236" y="775"/>
      <point x="211" y="806"/>
      <point x="158" y="806" type="curve" smooth="yes"/>
      <point x="105" y="806"/>
      <point x="81" y="775"/>
      <point x="81" y="739" type="curve" smooth="yes"/>
      <point x="81" y="732"/>
      <point x="82" y="725"/>
      <point x="84" y="718" type="curve"/>
      <point x="133" y="719" type="line"/>
      <point x="132" y="725"/>
      <point x="131" y="730"/>
      <point x="131" y="736" type="curve" smooth="yes"/>
      <point x="131" y="753"/>
      <point x="138" y="767"/>
      <point x="158" y="767" type="curve" smooth="yes"/>
      <point x="185" y="767"/>
      <point x="188" y="747"/>
      <point x="188" y="724" type="curve" smooth="yes"/>
      <point x="188" y="680"/>
      <point x="171" y="682"/>
      <point x="143" y="682" type="curve"/>
      <point x="135" y="682"/>
      <point x="128" y="682"/>
      <point x="116" y="682" type="curve"/>
      <point x="116" y="651" type="line"/>
      <point x="125" y="651"/>
      <point x="142" y="651"/>
      <point x="149" y="651" type="curve"/>
      <point x="175" y="651"/>
      <point x="183" y="644"/>
      <point x="183" y="627" type="curve" smooth="yes"/>
      <point x="183" y="612"/>
      <point x="178" y="595"/>
      <point x="154" y="595" type="curve" smooth="yes"/>
      <point x="129" y="595"/>
      <point x="125" y="614"/>
      <point x="125" y="626" type="curve"/>
      <point x="78" y="625" type="line"/>
      <point x="78" y="607"/>
      <point x="81" y="559"/>
    </contour>
  </outline>
</glyph>
<glyph name="acute" format="2">
  <advance width="212"/>
  <unicode hex="00B4"/>
  <anchor x="91" y="555" name="_top"/>
  <outline>
    <contour>
      <point x="41" y="613" type="line"/>
      <point x="63" y="623"/>
      <point x="90" y="636"/>
      <point x="118" y="648" type="curve" smooth="yes"/>
      <point x="146" y="661"/>
      <point x="176" y="673"/>
      <point x="204" y="686" type="curve"/>
      <point x="168" y="743" type="line"/>
      <point x="145" y="727"/>
      <point x="118" y="709"/>
      <point x="92" y="693" type="curve" smooth="yes"/>
      <point x="66" y="678"/>
      <point x="41" y="663"/>
      <point x="19" y="651" type="curve"/>
    </contour>
  </outline>
</glyph>
<glyph name="paragraph" format="2">
  <advance width="600"/>
  <unicode hex="00B6"/>
  <outline>
    <contour>
      <point x="345" y="211" type="curve"/>
      <point x="393" y="710" type="line"/>
      <point x="361" y="712"/>
      <point x="295" y="713"/>
      <point x="258" y="713" type="curve"/>
      <point x="129" y="713"/>
      <point x="78" y="654"/>
      <point x="78" y="457" type="curve"/>
      <point x="78" y="261"/>
      <point x="175" y="211"/>
    </contour>
    <contour>
      <point x="320" y="-103" type="curve"/>
      <point x="394" y="-100" type="line"/>
      <point x="394" y="-100"/>
      <point x="390" y="186"/>
      <point x="390" y="357" type="curve"/>
      <point x="390" y="528"/>
      <point x="393" y="710"/>
      <point x="393" y="710" type="curve"/>
      <point x="318" y="703" type="line"/>
      <point x="318" y="703"/>
      <point x="324" y="475"/>
      <point x="324" y="359" type="curve"/>
      <point x="324" y="243"/>
      <point x="320" y="-103"/>
    </contour>
    <contour>
      <point x="442" y="-103" type="curve"/>
      <point x="516" y="-100" type="line"/>
      <point x="516" y="-100"/>
      <point x="512" y="186"/>
      <point x="512" y="357" type="curve"/>
      <point x="512" y="528"/>
      <point x="515" y="710"/>
      <point x="515" y="710" type="curve"/>
      <point x="440" y="703" type="line"/>
      <point x="440" y="703"/>
      <point x="446" y="475"/>
      <point x="446" y="359" type="curve"/>
      <point x="446" y="243"/>
      <point x="442" y="-103"/>
    </contour>
  </outline>
</glyph>
<glyph name="cedilla" format="2">
  <advance width="305"/>
  <unicode hex="00B8"/>
  <anchor x="153" y="0" name="_bottom"/>
  <outline>
    <contour>
      <point x="104" y="-162" type="curve" smooth="yes"/>
      <point x="183" y="-162"/>
      <point x="257" y="-147"/>
      <point x="257" y="-98" type="curve" smooth="yes"/>
      <point x="257" y="-64"/>
      <point x="218" y="-37"/>
      <point x="114" y="-39" type="curve"/>
      <point x="100" y="-76" type="line"/>
      <point x="171" y="-76"/>
      <point x="194" y="-85"/>
      <point x="194" y="-99" type="curve" smooth="yes"/>
      <point x="194" y="-115"/>
      <point x="158" y="-120"/>
      <point x="121" y="-120" type="curve" smooth="yes"/>
      <point x="97" y="-120"/>
      <point x="73" y="-118"/>
      <point x="57" y="-115" type="curve"/>
      <point x="47" y="-160" type="line"/>
      <point x="65" y="-162"/>
      <point x="86" y="-162"/>
    </contour>
    <contour>
      <point x="169" y="0" type="line"/>
      <point x="122" y="0" type="line"/>
      <point x="100" y="-76" type="line"/>
      <point x="147" y="-76" type="line"/>
    </contour>
  </outline>
</glyph>
<glyph name="onesuperior" format="2">
  <advance width="322"/>
  <unicode hex="00B9"/>
  <outline>
    <contour>
      <point x="160" y="567" type="curve"/>
      <point x="216" y="567" type="line"/>
      <point x="213" y="645"/>
      <point x="213" y="721"/>
      <point x="217" y="801" type="curve"/>
      <point x="187" y="801" type="line"/>
      <point x="162" y="751" type="line"/>
      <point x="164" y="691"/>
      <point x="163" y="621"/>
    </contour>
    <contour>
      <point x="88" y="723" type="line"/>
      <point x="122" y="723"/>
      <point x="162" y="730"/>
      <point x="183" y="738" type="curve"/>
      <point x="187" y="801" type="line"/>
      <point x="167" y="781"/>
      <point x="120" y="761"/>
      <point x="85" y="756" type="curve"/>
    </contour>
  </outline>
</glyph>
<glyph name="ordmasculine" format="2">
  <advance width="362"/>
  <unicode hex="00BA"/>
  <outline>
    <contour>
      <point x="177" y="469" type="curve" smooth="yes"/>
      <point x="249" y="469"/>
      <point x="282" y="519"/>
      <point x="282" y="590" type="curve" smooth="yes"/>
      <point x="282" y="654"/>
      <point x="256" y="703"/>
      <point x="184" y="703" type="curve" smooth="yes"/>
      <point x="119" y="703"/>
      <point x="80" y="658"/>
      <point x="80" y="588" type="curve" smooth="yes"/>
      <point x="80" y="510"/>
      <point x="115" y="469"/>
    </contour>
    <contour>
      <point x="179" y="514" type="curve" smooth="yes"/>
      <point x="149" y="514"/>
      <point x="128" y="534"/>
      <point x="128" y="589" type="curve" smooth="yes"/>
      <point x="128" y="636"/>
      <point x="145" y="661"/>
      <point x="183" y="661" type="curve" smooth="yes"/>
      <point x="214" y="661"/>
      <point x="234" y="644"/>
      <point x="234" y="593" type="curve" smooth="yes"/>
      <point x="234" y="543"/>
      <point x="226" y="514"/>
    </contour>
  </outline>
</glyph>
<glyph name="guillemetright" format="2">
  <advance width="746"/>
  <unicode hex="00BB"/>
  <outline>
    <contour>
      <point x="646" y="281" type="curve"/>
      <point x="639" y="345" type="line"/>
      <point x="613" y="358"/>
      <point x="563" y="383"/>
      <point x="521" y="405" type="curve" smooth="yes"/>
      <point x="460" y="437"/>
      <point x="417" y="463"/>
      <point x="397" y="477" type="curve"/>
      <point x="370" y="418" type="line"/>
      <point x="395" y="406"/>
      <point x="446" y="381"/>
      <point x="491" y="358" type="curve" smooth="yes"/>
      <point x="547" y="330"/>
      <point x="646" y="279"/>
    </contour>
    <contour>
      <point x="376" y="281" type="curve"/>
      <point x="369" y="345" type="line"/>
      <point x="343" y="358"/>
      <point x="293" y="383"/>
      <point x="251" y="405" type="curve" smooth="yes"/>
      <point x="190" y="437"/>
      <point x="147" y="463"/>
      <point x="127" y="477" type="curve"/>
      <point x="100" y="418" type="line"/>
      <point x="125" y="406"/>
      <point x="176" y="381"/>
      <point x="221" y="358" type="curve" smooth="yes"/>
      <point x="277" y="330"/>
      <point x="376" y="279"/>
    </contour>
    <contour>
      <point x="407" y="117" type="line"/>
      <point x="444" y="145"/>
      <point x="486" y="174"/>
      <point x="531" y="206" type="curve" smooth="yes"/>
      <point x="568" y="232"/>
      <point x="618" y="264"/>
      <point x="646" y="281" type="curve"/>
      <point x="639" y="345" type="line"/>
      <point x="610" y="322"/>
      <point x="553" y="281"/>
      <point x="505" y="250" type="curve" smooth="yes"/>
      <point x="462" y="222"/>
      <point x="405" y="189"/>
      <point x="374" y="171" type="curve"/>
    </contour>
    <contour>
      <point x="137" y="117" type="line"/>
      <point x="174" y="145"/>
      <point x="216" y="174"/>
      <point x="261" y="206" type="curve" smooth="yes"/>
      <point x="298" y="232"/>
      <point x="348" y="264"/>
      <point x="376" y="281" type="curve"/>
      <point x="369" y="345" type="line"/>
      <point x="340" y="322"/>
      <point x="283" y="281"/>
      <point x="235" y="250" type="curve" smooth="yes"/>
      <point x="192" y="222"/>
      <point x="135" y="189"/>
      <point x="104" y="171" type="curve"/>
    </contour>
  </outline>
</glyph>
<glyph name="onequarter" format="2">
  <advance width="726"/>
  <unicode hex="00BC"/>
  <outline>
    <contour>
      <point x="125" y="-1" type="curve"/>
      <point x="198" y="0" type="line"/>
      <point x="262" y="113"/>
      <point x="325" y="227"/>
      <point x="389" y="340" type="curve" smooth="yes"/>
      <point x="456" y="458"/>
      <point x="529" y="577"/>
      <point x="599" y="695" type="curve"/>
      <point x="525" y="697" type="line"/>
      <point x="460" y="578"/>
      <point x="399" y="458"/>
      <point x="330" y="339" type="curve" smooth="yes"/>
      <point x="263" y="224"/>
      <point x="193" y="112"/>
    </contour>
    <contour>
      <point x="158" y="462" type="curve"/>
      <point x="214" y="462" type="line"/>
      <point x="211" y="540"/>
      <point x="211" y="616"/>
      <point x="215" y="696" type="curve"/>
      <point x="185" y="696" type="line"/>
      <point x="165" y="676"/>
      <point x="118" y="656"/>
      <point x="83" y="651" type="curve"/>
      <point x="86" y="618" type="line"/>
      <point x="111" y="618"/>
      <point x="139" y="622"/>
      <point x="161" y="627" type="curve"/>
      <point x="162" y="572"/>
      <point x="161" y="510"/>
    </contour>
    <contour>
      <point x="536" y="-1" type="line"/>
      <point x="581" y="0" type="line"/>
      <point x="580" y="49" type="line"/>
      <point x="614" y="49" type="line"/>
      <point x="614" y="91" type="line"/>
      <point x="580" y="90" type="line"/>
      <point x="580" y="127" type="line" smooth="yes"/>
      <point x="580" y="169"/>
      <point x="581" y="214"/>
      <point x="581" y="235" type="curve"/>
      <point x="504" y="236" type="line"/>
      <point x="493" y="212"/>
      <point x="481" y="181"/>
      <point x="469" y="153" type="curve"/>
      <point x="439" y="89" type="line"/>
      <point x="444" y="48" type="line"/>
      <point x="537" y="49" type="line"/>
    </contour>
    <contour>
      <point x="486" y="88" type="line"/>
      <point x="536" y="211" type="line"/>
      <point x="537" y="88" type="line"/>
    </contour>
  </outline>
</glyph>
<glyph name="onehalf" format="2">
  <advance width="726"/>
  <unicode hex="00BD"/>
  <outline>
    <contour>
      <point x="125" y="-1" type="curve"/>
      <point x="198" y="0" type="line"/>
      <point x="262" y="113"/>
      <point x="325" y="227"/>
      <point x="389" y="340" type="curve" smooth="yes"/>
      <point x="456" y="458"/>
      <point x="529" y="577"/>
      <point x="599" y="695" type="curve"/>
      <point x="525" y="697" type="line"/>
      <point x="460" y="578"/>
      <point x="399" y="458"/>
      <point x="330" y="339" type="curve" smooth="yes"/>
      <point x="263" y="224"/>
      <point x="193" y="112"/>
    </contour>
    <contour>
      <point x="472" y="-2" type="line"/>
      <point x="494" y="-2"/>
      <point x="531" y="0"/>
      <point x="554" y="0" type="curve" smooth="yes"/>
      <point x="635" y="0" type="line"/>
      <point x="634" y="42" type="line"/>
      <point x="615" y="42"/>
      <point x="577" y="41"/>
      <point x="543" y="40" type="curve"/>
      <point x="585" y="68"/>
      <point x="631" y="112"/>
      <point x="631" y="166" type="curve" smooth="yes"/>
      <point x="631" y="209"/>
      <point x="608" y="240"/>
      <point x="556" y="240" type="curve" smooth="yes"/>
      <point x="502" y="240"/>
      <point x="474" y="205"/>
      <point x="474" y="157" type="curve" smooth="yes"/>
      <point x="474" y="148"/>
      <point x="475" y="138"/>
      <point x="477" y="127" type="curve"/>
      <point x="526" y="128" type="line"/>
      <point x="524" y="139"/>
      <point x="522" y="151"/>
      <point x="522" y="162" type="curve" smooth="yes"/>
      <point x="522" y="185"/>
      <point x="530" y="203"/>
      <point x="552" y="203" type="curve" smooth="yes"/>
      <point x="575" y="203"/>
      <point x="581" y="186"/>
      <point x="581" y="166" type="curve" smooth="yes"/>
      <point x="581" y="111"/>
      <point x="536" y="80"/>
      <point x="473" y="39" type="curve"/>
    </contour>
    <contour>
      <point x="158" y="462" type="curve"/>
      <point x="214" y="462" type="line"/>
      <point x="211" y="540"/>
      <point x="211" y="616"/>
      <point x="215" y="696" type="curve"/>
      <point x="185" y="696" type="line"/>
      <point x="165" y="676"/>
      <point x="118" y="656"/>
      <point x="83" y="651" type="curve"/>
      <point x="86" y="618" type="line"/>
      <point x="111" y="618"/>
      <point x="139" y="622"/>
      <point x="161" y="627" type="curve"/>
      <point x="162" y="572"/>
      <point x="161" y="510"/>
    </contour>
  </outline>
</glyph>
<glyph name="threequarters" format="2">
  <advance width="726"/>
  <unicode hex="00BE"/>
  <outline>
    <contour>
      <point x="125" y="-1" type="curve"/>
      <point x="198" y="0" type="line"/>
      <point x="262" y="113"/>
      <point x="325" y="227"/>
      <point x="389" y="340" type="curve" smooth="yes"/>
      <point x="456" y="458"/>
      <point x="529" y="577"/>
      <point x="599" y="695" type="curve"/>
      <point x="525" y="697" type="line"/>
      <point x="460" y="578"/>
      <point x="399" y="458"/>
      <point x="330" y="339" type="curve" smooth="yes"/>
      <point x="263" y="224"/>
      <point x="193" y="112"/>
    </contour>
    <contour>
      <point x="167" y="455" type="curve" smooth="yes"/>
      <point x="227" y="455"/>
      <point x="247" y="489"/>
      <point x="247" y="518" type="curve" smooth="yes"/>
      <point x="247" y="545"/>
      <point x="231" y="560"/>
      <point x="215" y="564" type="curve"/>
      <point x="236" y="578"/>
      <point x="251" y="595"/>
      <point x="251" y="635" type="curve" smooth="yes"/>
      <point x="251" y="671"/>
      <point x="226" y="702"/>
      <point x="173" y="702" type="curve" smooth="yes"/>
      <point x="120" y="702"/>
      <point x="96" y="671"/>
      <point x="96" y="635" type="curve" smooth="yes"/>
      <point x="96" y="628"/>
      <point x="97" y="621"/>
      <point x="99" y="614" type="curve"/>
      <point x="148" y="615" type="line"/>
      <point x="147" y="621"/>
      <point x="146" y="626"/>
      <point x="146" y="632" type="curve" smooth="yes"/>
      <point x="146" y="649"/>
      <point x="153" y="663"/>
      <point x="173" y="663" type="curve" smooth="yes"/>
      <point x="200" y="663"/>
      <point x="203" y="643"/>
      <point x="203" y="620" type="curve" smooth="yes"/>
      <point x="203" y="576"/>
      <point x="186" y="578"/>
      <point x="158" y="578" type="curve"/>
      <point x="150" y="578"/>
      <point x="143" y="578"/>
      <point x="131" y="578" type="curve"/>
      <point x="131" y="547" type="line"/>
      <point x="140" y="547"/>
      <point x="157" y="547"/>
      <point x="164" y="547" type="curve"/>
      <point x="190" y="547"/>
      <point x="198" y="540"/>
      <point x="198" y="523" type="curve" smooth="yes"/>
      <point x="198" y="508"/>
      <point x="193" y="491"/>
      <point x="169" y="491" type="curve" smooth="yes"/>
      <point x="144" y="491"/>
      <point x="140" y="510"/>
      <point x="140" y="522" type="curve"/>
      <point x="93" y="521" type="line"/>
      <point x="93" y="503"/>
      <point x="96" y="455"/>
    </contour>
    <contour>
      <point x="536" y="-1" type="line"/>
      <point x="581" y="0" type="line"/>
      <point x="580" y="49" type="line"/>
      <point x="614" y="49" type="line"/>
      <point x="614" y="91" type="line"/>
      <point x="580" y="90" type="line"/>
      <point x="580" y="127" type="line" smooth="yes"/>
      <point x="580" y="169"/>
      <point x="581" y="214"/>
      <point x="581" y="235" type="curve"/>
      <point x="504" y="236" type="line"/>
      <point x="493" y="212"/>
      <point x="481" y="181"/>
      <point x="469" y="153" type="curve"/>
      <point x="439" y="89" type="line"/>
      <point x="444" y="48" type="line"/>
      <point x="537" y="49" type="line"/>
    </contour>
    <contour>
      <point x="486" y="88" type="line"/>
      <point x="536" y="211" type="line"/>
      <point x="537" y="88" type="line"/>
    </contour>
  </outline>
</glyph>
<glyph name="questiondown" format="2">
  <advance width="546"/>
  <unicode hex="00BF"/>
  <outline>
    <contour>
      <point x="241" y="341" type="line"/>
      <point x="245" y="321"/>
      <point x="248" y="305"/>
      <point x="248" y="280" type="curve" smooth="yes"/>
      <point x="248" y="238"/>
      <point x="229" y="211"/>
      <point x="205" y="186" type="curve" smooth="yes"/>
      <point x="161" y="141"/>
      <point x="100" y="102"/>
      <point x="100" y="-7" type="curve" smooth="yes"/>
      <point x="100" y="-109"/>
      <point x="171" y="-160"/>
      <point x="265" y="-160" type="curve" smooth="yes"/>
      <point x="359" y="-160"/>
      <point x="446" y="-102"/>
      <point x="446" y="14" type="curve" smooth="yes"/>
      <point x="446" y="41"/>
      <point x="442" y="70"/>
      <point x="433" y="100" type="curve"/>
      <point x="364" y="101" type="line"/>
      <point x="374" y="70"/>
      <point x="378" y="41"/>
      <point x="378" y="16" type="curve" smooth="yes"/>
      <point x="378" y="-62"/>
      <point x="329" y="-98"/>
      <point x="272" y="-98" type="curve" smooth="yes"/>
      <point x="211" y="-98"/>
      <point x="171" y="-68"/>
      <point x="171" y="-2" type="curve" smooth="yes"/>
      <point x="171" y="63"/>
      <point x="210" y="97"/>
      <point x="248" y="134" type="curve" smooth="yes"/>
      <point x="284" y="169"/>
      <point x="318" y="206"/>
      <point x="318" y="274" type="curve" smooth="yes"/>
      <point x="318" y="299"/>
      <point x="315" y="325"/>
      <point x="312" y="340" type="curve"/>
    </contour>
    <contour>
      <point x="313" y="561" type="line"/>
      <point x="233" y="555" type="line"/>
      <point x="242" y="428" type="line"/>
      <point x="307" y="430" type="line"/>
    </contour>
  </outline>
</glyph>
<glyph name="AE" format="2">
  <advance width="653"/>
  <unicode hex="00C6"/>
  <anchor x="392" y="693" name="top"/>
  <outline>
    <contour>
      <point x="31" y="1" type="curve"/>
      <point x="116" y="-1" type="line"/>
      <point x="133" y="52"/>
      <point x="149" y="104"/>
      <point x="166" y="157" type="curve"/>
      <point x="308" y="159" type="line"/>
      <point x="305" y="-4" type="line"/>
      <point x="605" y="0" type="line"/>
      <point x="605" y="61" type="line"/>
      <point x="384" y="65" type="line"/>
      <point x="382" y="204" type="line"/>
      <point x="600" y="207" type="line"/>
      <point x="602" y="268" type="line"/>
      <point x="382" y="271" type="line"/>
      <point x="382" y="393" type="line" smooth="yes"/>
      <point x="382" y="470"/>
      <point x="383" y="548"/>
      <point x="383" y="625" type="curve"/>
      <point x="593" y="626" type="line"/>
      <point x="593" y="693" type="line"/>
      <point x="257" y="698" type="line"/>
      <point x="238" y="621"/>
      <point x="196" y="473"/>
      <point x="153" y="346" type="curve" smooth="yes"/>
      <point x="111" y="220"/>
      <point x="59" y="75"/>
    </contour>
    <contour>
      <point x="308" y="217" type="line"/>
      <point x="184" y="218" type="line"/>
      <point x="195" y="255"/>
      <point x="207" y="293"/>
      <point x="219" y="330" type="curve" smooth="yes"/>
      <point x="251" y="432"/>
      <point x="284" y="542"/>
      <point x="306" y="605" type="curve"/>
      <point x="308" y="552"/>
      <point x="309" y="466"/>
      <point x="309" y="391" type="curve" smooth="yes"/>
    </contour>
  </outline>
</glyph>
<glyph name="Eth" format="2">
  <advance width="477"/>
  <unicode hex="00D0"/>
  <outline>
    <contour>
      <point x="6" y="317" type="line"/>
      <point x="32" y="318"/>
      <point x="90" y="319"/>
      <point x="152" y="319" type="curve"/>
      <point x="193" y="319"/>
      <point x="264" y="318"/>
      <point x="307" y="317" type="curve"/>
      <point x="304" y="373" type="line"/>
      <point x="268" y="371"/>
      <point x="203" y="369"/>
      <point x="158" y="370" type="curve"/>
      <point x="94" y="371"/>
      <point x="37" y="372"/>
      <point x="12" y="373" type="curve"/>
    </contour>
    <component base="D"/>
  </outline>
</glyph>
<glyph name="multiply" format="2">
  <advance width="500"/>
  <unicode hex="00D7"/>
  <outline>
    <contour>
      <point x="400.087" y="194.964" type="line"/>
      <point x="400.087" y="194.964"/>
      <point x="310.991" y="271.332"/>
      <point x="263.615" y="318.708" type="curve"/>
      <point x="214.825" y="367.498"/>
      <point x="144.821" y="447.401"/>
      <point x="144.821" y="447.401" type="curve"/>
      <point x="98.859" y="395.782" type="line"/>
      <point x="98.859" y="395.782"/>
      <point x="177.348" y="322.95"/>
      <point x="224.017" y="277.696" type="curve"/>
      <point x="269.272" y="235.269"/>
      <point x="353.418" y="142.638"/>
      <point x="353.418" y="142.638" type="curve"/>
    </contour>
    <contour>
      <point x="143" y="135" type="line"/>
      <point x="143" y="135"/>
      <point x="238.159" y="239.512"/>
      <point x="279.879" y="281.231" type="curve"/>
      <point x="323.012" y="324.365"/>
      <point x="408" y="404"/>
      <point x="408" y="404" type="curve"/>
      <point x="363" y="450" type="line"/>
      <point x="363" y="450"/>
      <point x="279.172" y="361.134"/>
      <point x="239.574" y="320.122" type="curve"/>
      <point x="200.683" y="281.231"/>
      <point x="98" y="179"/>
      <point x="98" y="179" type="curve"/>
    </contour>
  </outline>
</glyph>
<glyph name="Oslash" format="2">
  <advance width="489"/>
  <unicode hex="00D8"/>
  <anchor x="245" y="0" name="bottom"/>
  <anchor x="245" y="693" name="top"/>
  <outline>
    <contour>
      <point x="237" y="-5" type="curve"/>
      <point x="327" y="-5"/>
      <point x="375" y="44"/>
      <point x="400" y="122" type="curve" smooth="yes"/>
      <point x="420" y="185"/>
      <point x="426" y="266"/>
      <point x="426" y="355" type="curve" smooth="yes"/>
      <point x="426" y="421"/>
      <point x="424" y="489"/>
      <point x="412" y="547" type="curve" smooth="yes"/>
      <point x="394" y="638"/>
      <point x="352" y="705"/>
      <point x="255" y="705" type="curve" smooth="yes"/>
      <point x="153" y="705"/>
      <point x="104" y="639"/>
      <point x="81" y="550" type="curve" smooth="yes"/>
      <point x="67" y="491"/>
      <point x="63" y="423"/>
      <point x="63" y="357" type="curve" smooth="yes"/>
      <point x="63" y="276"/>
      <point x="66" y="203"/>
      <point x="78" y="144" type="curve" smooth="yes"/>
      <point x="98" y="52"/>
      <point x="141" y="-5"/>
    </contour>
    <contour>
      <point x="240" y="56" type="curve"/>
      <point x="185" y="56"/>
      <point x="159" y="99"/>
      <point x="147" y="169" type="curve" smooth="yes"/>
      <point x="139" y="217"/>
      <point x="137" y="277"/>
      <point x="137" y="345" type="curve" smooth="yes"/>
      <point x="137" y="407"/>
      <point x="139" y="466"/>
      <point x="148" y="515" type="curve" smooth="yes"/>
      <point x="161" y="593"/>
      <point x="190" y="647"/>
      <point x="249" y="647" type="curve" smooth="yes"/>
      <point x="307" y="647"/>
      <point x="333" y="597"/>
      <point x="344" y="514" type="curve" smooth="yes"/>
      <point x="349" y="471"/>
      <point x="351" y="419"/>
      <point x="351" y="360" type="curve" smooth="yes"/>
      <point x="351" y="291"/>
      <point x="348" y="228"/>
      <point x="339" y="178" type="curve" smooth="yes"/>
      <point x="325" y="103"/>
      <point x="297" y="56"/>
    </contour>
    <contour>
      <point x="143" y="-52" type="line"/>
      <point x="178" y="54"/>
      <point x="237" y="228"/>
      <point x="269" y="317" type="curve"/>
      <point x="302" y="406"/>
      <point x="386" y="604"/>
      <point x="440" y="728" type="curve"/>
      <point x="376" y="745" type="line"/>
      <point x="341" y="646"/>
      <point x="277" y="466"/>
      <point x="229" y="335" type="curve"/>
      <point x="182" y="204"/>
      <point x="117" y="45"/>
      <point x="81" y="-38" type="curve"/>
    </contour>
  </outline>
</glyph>
<glyph name="Thorn" format="2">
  <advance width="437"/>
  <unicode hex="00DE"/>
  <outline>
    <contour>
      <point x="131" y="141" type="line"/>
      <point x="297" y="141"/>
      <point x="402" y="200"/>
      <point x="402" y="357" type="curve"/>
      <point x="402" y="552"/>
      <point x="321" y="584"/>
      <point x="173" y="584" type="curve" smooth="yes"/>
      <point x="156" y="584"/>
      <point x="139" y="583"/>
      <point x="120" y="582" type="curve"/>
      <point x="120" y="518" type="line"/>
      <point x="146" y="521"/>
      <point x="169" y="522"/>
      <point x="190" y="522" type="curve" smooth="yes"/>
      <point x="287" y="522"/>
      <point x="332" y="492"/>
      <point x="332" y="354" type="curve"/>
      <point x="332" y="231"/>
      <point x="260" y="206"/>
      <point x="127" y="206" type="curve"/>
    </contour>
    <contour>
      <point x="77" y="-6" type="curve"/>
      <point x="156" y="-2" type="line"/>
      <point x="154" y="103"/>
      <point x="152" y="274"/>
      <point x="152" y="359" type="curve"/>
      <point x="152" y="457"/>
      <point x="156" y="608"/>
      <point x="158" y="703" type="curve"/>
      <point x="78" y="710" type="line"/>
      <point x="79" y="632"/>
      <point x="81" y="482"/>
      <point x="81" y="357" type="curve"/>
      <point x="81" y="232"/>
      <point x="79" y="77"/>
    </contour>
  </outline>
</glyph>
<glyph name="germandbls" format="2">
  <advance width="490"/>
  <unicode hex="00DF"/>
  <outline>
    <contour>
      <point x="67" y="-3" type="curve"/>
      <point x="144" y="0" type="line"/>
      <point x="141" y="55"/>
      <point x="137" y="167"/>
      <point x="137" y="271" type="curve" smooth="yes"/>
      <point x="137" y="415"/>
      <point x="139" y="448"/>
      <point x="142" y="512" type="curve" smooth="yes"/>
      <point x="146" y="595"/>
      <point x="174" y="647"/>
      <point x="260" y="647" type="curve" smooth="yes"/>
      <point x="336" y="647"/>
      <point x="362" y="602"/>
      <point x="362" y="546" type="curve" smooth="yes"/>
      <point x="362" y="468"/>
      <point x="256" y="426"/>
      <point x="256" y="346" type="curve" smooth="yes"/>
      <point x="256" y="284"/>
      <point x="300" y="254"/>
      <point x="341" y="226" type="curve" smooth="yes"/>
      <point x="375" y="202"/>
      <point x="407" y="181"/>
      <point x="407" y="143" type="curve" smooth="yes"/>
      <point x="407" y="82"/>
      <point x="358" y="32"/>
      <point x="236" y="52" type="curve"/>
      <point x="231" y="-1" type="line"/>
      <point x="404" y="-21"/>
      <point x="472" y="51"/>
      <point x="472" y="145" type="curve" smooth="yes"/>
      <point x="472" y="211"/>
      <point x="423" y="246"/>
      <point x="381" y="275" type="curve" smooth="yes"/>
      <point x="348" y="298"/>
      <point x="320" y="318"/>
      <point x="320" y="347" type="curve" smooth="yes"/>
      <point x="320" y="412"/>
      <point x="425" y="450"/>
      <point x="425" y="552" type="curve" smooth="yes"/>
      <point x="425" y="618"/>
      <point x="386" y="701"/>
      <point x="259" y="701" type="curve" smooth="yes"/>
      <point x="130" y="701"/>
      <point x="76" y="614"/>
      <point x="76" y="509" type="curve" smooth="yes"/>
      <point x="76" y="418"/>
      <point x="75" y="416"/>
      <point x="75" y="270" type="curve" smooth="yes"/>
      <point x="75" y="163"/>
      <point x="70" y="52"/>
    </contour>
  </outline>
</glyph>
<glyph name="ae" format="2">
  <advance width="610"/>
  <unicode hex="00E6"/>
  <anchor x="327" y="515" name="top"/>
  <outline>
    <contour>
      <point x="154" y="-7" type="curve" smooth="yes"/>
      <point x="221" y="-7"/>
      <point x="263" y="29"/>
      <point x="286" y="83" type="curve"/>
      <point x="307" y="26"/>
      <point x="346" y="-12"/>
      <point x="414" y="-12" type="curve" smooth="yes"/>
      <point x="505" y="-12"/>
      <point x="552" y="46"/>
      <point x="552" y="125" type="curve" smooth="yes"/>
      <point x="552" y="138"/>
      <point x="551" y="151"/>
      <point x="548" y="165" type="curve"/>
      <point x="489" y="165" type="line"/>
      <point x="491" y="154"/>
      <point x="492" y="143"/>
      <point x="492" y="133" type="curve" smooth="yes"/>
      <point x="492" y="87"/>
      <point x="473" y="44"/>
      <point x="418" y="44" type="curve" smooth="yes"/>
      <point x="371" y="44"/>
      <point x="349" y="78"/>
      <point x="338" y="129" type="curve" smooth="yes"/>
      <point x="332" y="160"/>
      <point x="330" y="198"/>
      <point x="329" y="238" type="curve"/>
      <point x="401" y="240"/>
      <point x="491" y="242"/>
      <point x="538" y="243" type="curve"/>
      <point x="545" y="283"/>
      <point x="550" y="322"/>
      <point x="550" y="359" type="curve" smooth="yes"/>
      <point x="550" y="451"/>
      <point x="520" y="524"/>
      <point x="425" y="524" type="curve" smooth="yes"/>
      <point x="368" y="524"/>
      <point x="329" y="499"/>
      <point x="303" y="459" type="curve"/>
      <point x="285" y="498"/>
      <point x="251" y="525"/>
      <point x="190" y="525" type="curve" smooth="yes"/>
      <point x="107" y="525"/>
      <point x="63" y="472"/>
      <point x="63" y="393" type="curve" smooth="yes"/>
      <point x="63" y="373"/>
      <point x="65" y="352"/>
      <point x="71" y="329" type="curve"/>
      <point x="129" y="332" type="line"/>
      <point x="124" y="350"/>
      <point x="121" y="369"/>
      <point x="121" y="386" type="curve" smooth="yes"/>
      <point x="121" y="435"/>
      <point x="142" y="476"/>
      <point x="188" y="476" type="curve" smooth="yes"/>
      <point x="228" y="476"/>
      <point x="260" y="445"/>
      <point x="261" y="366" type="curve" smooth="yes"/>
      <point x="261" y="323"/>
      <point x="208" y="300"/>
      <point x="155" y="269" type="curve" smooth="yes"/>
      <point x="102" y="237"/>
      <point x="47" y="197"/>
      <point x="47" y="120" type="curve" smooth="yes"/>
      <point x="47" y="46"/>
      <point x="88" y="-7"/>
    </contour>
    <contour>
      <point x="162" y="50" type="curve" smooth="yes"/>
      <point x="123" y="50"/>
      <point x="109" y="79"/>
      <point x="109" y="123" type="curve" smooth="yes"/>
      <point x="109" y="179"/>
      <point x="152" y="208"/>
      <point x="197" y="236" type="curve" smooth="yes"/>
      <point x="220" y="250"/>
      <point x="244" y="264"/>
      <point x="262" y="282" type="curve"/>
      <point x="263" y="256"/>
      <point x="263" y="229"/>
      <point x="264" y="203" type="curve" smooth="yes"/>
      <point x="266" y="109"/>
      <point x="221" y="50"/>
    </contour>
    <contour>
      <point x="330" y="295" type="line"/>
      <point x="331" y="332"/>
      <point x="335" y="370"/>
      <point x="345" y="400" type="curve" smooth="yes"/>
      <point x="358" y="440"/>
      <point x="381" y="469"/>
      <point x="419" y="469" type="curve" smooth="yes"/>
      <point x="472" y="469"/>
      <point x="487" y="430"/>
      <point x="487" y="375" type="curve" smooth="yes"/>
      <point x="487" y="352"/>
      <point x="484" y="325"/>
      <point x="480" y="297" type="curve"/>
    </contour>
  </outline>
</glyph>
<glyph name="eth" format="2">
  <advance width="443"/>
  <unicode hex="00F0"/>
  <outline>
    <contour>
      <point x="207" y="-10" type="curve" smooth="yes"/>
      <point x="342" y="-10"/>
      <point x="383" y="88"/>
      <point x="383" y="321" type="curve"/>
      <point x="383" y="606"/>
      <point x="278" y="680"/>
      <point x="171" y="719" type="curve"/>
      <point x="137" y="657" type="line"/>
      <point x="267" y="627"/>
      <point x="312" y="496"/>
      <point x="312" y="370" type="curve" smooth="yes"/>
      <point x="312" y="297"/>
      <point x="312" y="269"/>
      <point x="312" y="242" type="curve"/>
      <point x="312" y="114"/>
      <point x="287" y="50"/>
      <point x="217" y="50" type="curve" smooth="yes"/>
      <point x="142" y="50"/>
      <point x="128" y="104"/>
      <point x="128" y="211" type="curve" smooth="yes"/>
      <point x="128" y="300"/>
      <point x="144" y="364"/>
      <point x="213" y="364" type="curve" smooth="yes"/>
      <point x="289" y="364"/>
      <point x="312" y="317"/>
      <point x="312" y="243" type="curve"/>
      <point x="344" y="322" type="line"/>
      <point x="326" y="394"/>
      <point x="272" y="425"/>
      <point x="217" y="425" type="curve" smooth="yes"/>
      <point x="116" y="425"/>
      <point x="58" y="342"/>
      <point x="58" y="203" type="curve" smooth="yes"/>
      <point x="58" y="66"/>
      <point x="107" y="-10"/>
    </contour>
    <contour>
      <point x="175" y="493" type="line"/>
      <point x="175" y="493"/>
      <point x="233" y="529"/>
      <point x="288" y="561" type="curve"/>
      <point x="325" y="582"/>
      <point x="418" y="634"/>
      <point x="418" y="634" type="curve"/>
      <point x="384" y="687" type="line"/>
      <point x="384" y="687"/>
      <point x="305" y="636"/>
      <point x="265" y="613" type="curve"/>
      <point x="205" y="580"/>
      <point x="147" y="549"/>
      <point x="147" y="549" type="curve"/>
    </contour>
  </outline>
</glyph>
<glyph name="divide" format="2">
  <advance width="500"/>
  <unicode hex="00F7"/>
  <outline>
    <contour>
      <point x="79" y="259" type="line"/>
      <point x="79" y="259"/>
      <point x="199" y="262"/>
      <point x="251" y="263" type="curve"/>
      <point x="306" y="264"/>
      <point x="415" y="262"/>
      <point x="415" y="262" type="curve"/>
      <point x="422" y="324" type="line"/>
      <point x="422" y="324"/>
      <point x="304" y="321"/>
      <point x="246" y="320" type="curve"/>
      <point x="189" y="318"/>
      <point x="78" y="322"/>
      <point x="78" y="322" type="curve"/>
    </contour>
    <contour>
      <point x="251" y="116" type="curve"/>
      <point x="280" y="116"/>
      <point x="300" y="139"/>
      <point x="300" y="165" type="curve"/>
      <point x="300" y="193"/>
      <point x="277" y="218"/>
      <point x="242" y="218" type="curve"/>
      <point x="215" y="218"/>
      <point x="194" y="200"/>
      <point x="194" y="171" type="curve"/>
      <point x="194" y="138"/>
      <point x="222" y="116"/>
    </contour>
    <contour>
      <point x="251" y="371" type="curve"/>
      <point x="280" y="371"/>
      <point x="300" y="394"/>
      <point x="300" y="420" type="curve"/>
      <point x="300" y="448"/>
      <point x="277" y="473"/>
      <point x="242" y="473" type="curve"/>
      <point x="215" y="473"/>
      <point x="194" y="455"/>
      <point x="194" y="426" type="curve"/>
      <point x="194" y="393"/>
      <point x="222" y="371"/>
    </contour>
  </outline>
</glyph>
<glyph name="Hbar" format="2">
  <advance width="502"/>
  <unicode hex="0126"/>
  <anchor x="248" y="459" name="_center"/>
  <outline>
    <contour>
      <point x="21" y="430" type="line"/>
      <point x="21" y="430"/>
      <point x="160" y="432"/>
      <point x="245" y="432" type="curve"/>
      <point x="301" y="432"/>
      <point x="478" y="430"/>
      <point x="478" y="430" type="curve"/>
      <point x="476" y="481" type="line"/>
      <point x="476" y="481"/>
      <point x="313" y="477"/>
      <point x="251" y="478" type="curve"/>
      <point x="163" y="479"/>
      <point x="23" y="481"/>
      <point x="23" y="481" type="curve"/>
    </contour>
    <component base="H"/>
  </outline>
</glyph>
<glyph name="idotless" format="2">
  <advance width="234"/>
  <unicode hex="0131"/>
  <anchor x="119" y="0" name="bottom"/>
  <anchor x="118" y="515" name="top"/>
  <outline>
    <contour>
      <point x="159" y="0" type="line"/>
      <point x="159" y="0"/>
      <point x="150" y="121"/>
      <point x="150" y="265" type="curve"/>
      <point x="150" y="408"/>
      <point x="155" y="517"/>
      <point x="155" y="517" type="curve"/>
      <point x="79" y="516" type="line"/>
      <point x="79" y="516"/>
      <point x="88" y="412"/>
      <point x="88" y="266" type="curve"/>
      <point x="88" y="120"/>
      <point x="79" y="1"/>
      <point x="79" y="1" type="curve"/>
    </contour>
  </outline>
</glyph>
<glyph name="kgreenlandic" format="2">
  <advance width="418"/>
  <unicode hex="0138"/>
  <outline>
    <contour>
      <point x="344" y="0" type="curve"/>
      <point x="423" y="3" type="line"/>
      <point x="333" y="103"/>
      <point x="264" y="184"/>
      <point x="189" y="275" type="curve"/>
      <point x="270" y="371"/>
      <point x="325" y="438"/>
      <point x="395" y="519" type="curve"/>
      <point x="323" y="521" type="line"/>
      <point x="265" y="445"/>
      <point x="216" y="384"/>
      <point x="120" y="269" type="curve"/>
      <point x="199" y="177"/>
      <point x="274" y="88"/>
    </contour>
    <contour>
      <point x="75" y="0" type="curve"/>
      <point x="150" y="1" type="line"/>
      <point x="147" y="53"/>
      <point x="143" y="162"/>
      <point x="143" y="269" type="curve"/>
      <point x="143" y="375"/>
      <point x="147" y="474"/>
      <point x="150" y="520" type="curve"/>
      <point x="78" y="514" type="line"/>
      <point x="79" y="470"/>
      <point x="81" y="372"/>
      <point x="81" y="267" type="curve"/>
      <point x="81" y="163"/>
      <point x="78" y="53"/>
    </contour>
  </outline>
</glyph>
<glyph name="ldot" format="2">
  <advance width="261"/>
  <unicode hex="0140"/>
  <outline>
    <contour>
      <point x="75" y="2" type="curve"/>
      <point x="150" y="10" type="line"/>
      <point x="150" y="10"/>
      <point x="140" y="212"/>
      <point x="140" y="358" type="curve"/>
      <point x="140" y="504"/>
      <point x="150" y="698"/>
      <point x="150" y="698" type="curve"/>
      <point x="76" y="697" type="line"/>
      <point x="76" y="697"/>
      <point x="78" y="500"/>
      <point x="78" y="357" type="curve"/>
      <point x="78" y="221"/>
      <point x="78" y="63"/>
    </contour>
    <contour>
      <point x="282" y="308" type="line"/>
      <point x="279" y="400" type="line"/>
      <point x="200" y="395" type="line"/>
      <point x="205" y="310" type="line"/>
    </contour>
  </outline>
</glyph>
<glyph name="Eng" format="2">
  <advance width="509"/>
  <unicode hex="014A"/>
  <outline>
    <contour>
      <point x="312" y="-156" type="line"/>
      <point x="388" y="-156"/>
      <point x="431" y="-108"/>
      <point x="430" y="-17" type="curve" smooth="yes"/>
      <point x="429" y="112"/>
      <point x="428" y="240"/>
      <point x="427" y="369" type="curve" smooth="yes"/>
      <point x="426" y="503"/>
      <point x="429" y="633"/>
      <point x="432" y="715" type="curve"/>
      <point x="357" y="715" type="line"/>
      <point x="359" y="598"/>
      <point x="360" y="482"/>
      <point x="360" y="374" type="curve" smooth="yes"/>
      <point x="360" y="328"/>
      <point x="361" y="296"/>
      <point x="361" y="215" type="curve"/>
      <point x="338" y="275"/>
      <point x="313" y="344"/>
      <point x="287" y="413" type="curve" smooth="yes"/>
      <point x="249" y="516"/>
      <point x="211" y="622"/>
      <point x="185" y="704" type="curve"/>
      <point x="77" y="704" type="line"/>
      <point x="80" y="614"/>
      <point x="82" y="481"/>
      <point x="82" y="349" type="curve" smooth="yes"/>
      <point x="82" y="220"/>
      <point x="81" y="91"/>
      <point x="80" y="1" type="curve"/>
      <point x="152" y="0" type="line"/>
      <point x="150" y="121"/>
      <point x="150" y="239"/>
      <point x="149" y="342" type="curve" smooth="yes"/>
      <point x="149" y="441"/>
      <point x="148" y="528"/>
      <point x="148" y="593" type="curve"/>
      <point x="167" y="540"/>
      <point x="203" y="447"/>
      <point x="241" y="345" type="curve" smooth="yes"/>
      <point x="283" y="231"/>
      <point x="329" y="106"/>
      <point x="363" y="8" type="curve"/>
      <point x="363" y="-76"/>
      <point x="353" y="-102"/>
      <point x="306" y="-102" type="curve"/>
    </contour>
  </outline>
</glyph>
<glyph name="eng" format="2">
  <advance width="440"/>
  <unicode hex="014B"/>
  <outline>
    <contour>
      <point x="214" y="-156" type="line"/>
      <point x="301" y="-156"/>
      <point x="358" y="-110"/>
      <point x="362" y="3" type="curve" smooth="yes"/>
      <point x="365" y="94"/>
      <point x="364" y="144"/>
      <point x="364" y="260" type="curve" smooth="yes"/>
      <point x="364" y="370" type="line" smooth="yes"/>
      <point x="364" y="480"/>
      <point x="321" y="522"/>
      <point x="260" y="522" type="curve" smooth="yes"/>
      <point x="204" y="522"/>
      <point x="167" y="488"/>
      <point x="145" y="440" type="curve"/>
      <point x="145" y="466"/>
      <point x="146" y="493"/>
      <point x="146" y="519" type="curve"/>
      <point x="79" y="516" type="line"/>
      <point x="81" y="463"/>
      <point x="83" y="353"/>
      <point x="83" y="246" type="curve" smooth="yes"/>
      <point x="83" y="103"/>
      <point x="77" y="57"/>
      <point x="74" y="1" type="curve"/>
      <point x="149" y="1" type="line"/>
      <point x="148" y="58"/>
      <point x="145" y="103"/>
      <point x="145" y="258" type="curve" smooth="yes"/>
      <point x="145" y="413"/>
      <point x="199" y="464"/>
      <point x="246" y="464" type="curve" smooth="yes"/>
      <point x="280" y="464"/>
      <point x="302" y="440"/>
      <point x="302" y="365" type="curve" smooth="yes"/>
      <point x="302" y="259" type="line" smooth="yes"/>
      <point x="302" y="145"/>
      <point x="301" y="48"/>
      <point x="298" y="-15" type="curve" smooth="yes"/>
      <point x="295" y="-87"/>
      <point x="255" y="-104"/>
      <point x="212" y="-104" type="curve"/>
    </contour>
  </outline>
</glyph>
<glyph name="OE" format="2">
  <advance width="684"/>
  <unicode hex="0152"/>
  <outline>
    <contour>
      <point x="237" y="-5" type="curve" smooth="yes"/>
      <point x="308" y="-5"/>
      <point x="346" y="0"/>
      <point x="383" y="0" type="curve" smooth="yes"/>
      <point x="636" y="0" type="line"/>
      <point x="636" y="61" type="line"/>
      <point x="415" y="65" type="line"/>
      <point x="413" y="204" type="line"/>
      <point x="631" y="207" type="line"/>
      <point x="633" y="268" type="line"/>
      <point x="413" y="271" type="line"/>
      <point x="412" y="393" type="line" smooth="yes"/>
      <point x="412" y="433"/>
      <point x="413" y="593"/>
      <point x="414" y="625" type="curve"/>
      <point x="624" y="626" type="line"/>
      <point x="624" y="693" type="line"/>
      <point x="404" y="693" type="line" smooth="yes"/>
      <point x="342" y="693"/>
      <point x="300" y="705"/>
      <point x="255" y="705" type="curve" smooth="yes"/>
      <point x="98" y="705"/>
      <point x="63" y="553"/>
      <point x="63" y="357" type="curve" smooth="yes"/>
      <point x="63" y="146"/>
      <point x="81" y="-5"/>
    </contour>
    <contour>
      <point x="262" y="55" type="curve" smooth="yes"/>
      <point x="141" y="55"/>
      <point x="137" y="182"/>
      <point x="137" y="345" type="curve" smooth="yes"/>
      <point x="137" y="500"/>
      <point x="147" y="647"/>
      <point x="258" y="647" type="curve" smooth="yes"/>
      <point x="282" y="647"/>
      <point x="309" y="642"/>
      <point x="339" y="634" type="curve"/>
      <point x="340" y="580"/>
      <point x="341" y="492"/>
      <point x="341" y="391" type="curve" smooth="yes"/>
      <point x="341" y="278"/>
      <point x="340" y="144"/>
      <point x="339" y="66" type="curve"/>
      <point x="312" y="60"/>
      <point x="286" y="55"/>
    </contour>
  </outline>
</glyph>
<glyph name="oe" format="2">
  <advance width="650"/>
  <unicode hex="0153"/>
  <outline>
    <contour>
      <point x="209" y="-10" type="curve"/>
      <point x="294" y="-10"/>
      <point x="335" y="36"/>
      <point x="354" y="108" type="curve" smooth="yes"/>
      <point x="366" y="152"/>
      <point x="369" y="205"/>
      <point x="369" y="263" type="curve" smooth="yes"/>
      <point x="369" y="315"/>
      <point x="364" y="367"/>
      <point x="352" y="410" type="curve" smooth="yes"/>
      <point x="333" y="478"/>
      <point x="294" y="526"/>
      <point x="222" y="526" type="curve" smooth="yes"/>
      <point x="150" y="526"/>
      <point x="107" y="487"/>
      <point x="84" y="430" type="curve" smooth="yes"/>
      <point x="66" y="385"/>
      <point x="59" y="329"/>
      <point x="59" y="270" type="curve" smooth="yes"/>
      <point x="59" y="209"/>
      <point x="63" y="150"/>
      <point x="77" y="102" type="curve" smooth="yes"/>
      <point x="96" y="35"/>
      <point x="135" y="-10"/>
    </contour>
    <contour>
      <point x="216" y="49" type="curve" smooth="yes"/>
      <point x="167" y="49"/>
      <point x="144" y="86"/>
      <point x="133" y="137" type="curve" smooth="yes"/>
      <point x="126" y="171"/>
      <point x="124" y="212"/>
      <point x="124" y="251" type="curve" smooth="yes"/>
      <point x="124" y="301"/>
      <point x="127" y="360"/>
      <point x="142" y="403" type="curve" smooth="yes"/>
      <point x="155" y="441"/>
      <point x="178" y="468"/>
      <point x="216" y="468" type="curve" smooth="yes"/>
      <point x="259" y="468"/>
      <point x="282" y="432"/>
      <point x="293" y="382" type="curve" smooth="yes"/>
      <point x="302" y="342"/>
      <point x="304" y="292"/>
      <point x="304" y="244" type="curve" smooth="yes"/>
      <point x="304" y="205"/>
      <point x="303" y="166"/>
      <point x="296" y="133" type="curve" smooth="yes"/>
      <point x="287" y="84"/>
      <point x="265" y="49"/>
    </contour>
    <contour>
      <point x="455" y="-12" type="curve" smooth="yes"/>
      <point x="546" y="-12"/>
      <point x="593" y="46"/>
      <point x="593" y="125" type="curve" smooth="yes"/>
      <point x="593" y="138"/>
      <point x="592" y="151"/>
      <point x="589" y="165" type="curve"/>
      <point x="530" y="165" type="line"/>
      <point x="532" y="154"/>
      <point x="533" y="143"/>
      <point x="533" y="133" type="curve" smooth="yes"/>
      <point x="533" y="87"/>
      <point x="514" y="44"/>
      <point x="459" y="44" type="curve" smooth="yes"/>
      <point x="412" y="44"/>
      <point x="390" y="78"/>
      <point x="379" y="129" type="curve" smooth="yes"/>
      <point x="371" y="168"/>
      <point x="370" y="218"/>
      <point x="370" y="268" type="curve" smooth="yes"/>
      <point x="370" y="313"/>
      <point x="374" y="362"/>
      <point x="386" y="400" type="curve" smooth="yes"/>
      <point x="399" y="440"/>
      <point x="422" y="469"/>
      <point x="460" y="469" type="curve" smooth="yes"/>
      <point x="513" y="469"/>
      <point x="528" y="430"/>
      <point x="528" y="375" type="curve" smooth="yes"/>
      <point x="528" y="351"/>
      <point x="525" y="323"/>
      <point x="521" y="294" type="curve"/>
      <point x="579" y="243" type="line"/>
      <point x="586" y="283"/>
      <point x="591" y="322"/>
      <point x="591" y="359" type="curve" smooth="yes"/>
      <point x="591" y="451"/>
      <point x="561" y="524"/>
      <point x="466" y="524" type="curve" smooth="yes"/>
      <point x="389" y="524"/>
      <point x="345" y="479"/>
      <point x="323" y="414" type="curve" smooth="yes"/>
      <point x="309" y="372"/>
      <point x="304" y="322"/>
      <point x="304" y="269" type="curve" smooth="yes"/>
      <point x="304" y="205"/>
      <point x="308" y="145"/>
      <point x="323" y="96" type="curve" smooth="yes"/>
      <point x="343" y="31"/>
      <point x="382" y="-12"/>
    </contour>
    <contour>
      <point x="331" y="236" type="line"/>
      <point x="438" y="241"/>
      <point x="579" y="243"/>
      <point x="579" y="243" type="curve"/>
      <point x="579" y="297" type="line"/>
      <point x="330" y="295" type="line"/>
    </contour>
  </outline>
</glyph>
<glyph name="longs" format="2">
  <advance width="317"/>
  <unicode hex="017F"/>
  <outline>
    <contour>
      <point x="23" y="452" type="line"/>
      <point x="23" y="452"/>
      <point x="80" y="455"/>
      <point x="145" y="455" type="curve"/>
      <point x="147" y="511" type="line"/>
      <point x="84" y="511"/>
      <point x="28" y="513"/>
      <point x="28" y="513" type="curve"/>
    </contour>
    <contour>
      <point x="248" y="716" type="curve" smooth="yes"/>
      <point x="157" y="716"/>
      <point x="107" y="644"/>
      <point x="107" y="532" type="curve" smooth="yes"/>
      <point x="107" y="423"/>
      <point x="107" y="393"/>
      <point x="107" y="270" type="curve" smooth="yes"/>
      <point x="107" y="125"/>
      <point x="98" y="-3"/>
      <point x="98" y="-3" type="curve"/>
      <point x="177" y="0" type="line"/>
      <point x="177" y="0"/>
      <point x="170" y="128"/>
      <point x="170" y="272" type="curve" smooth="yes"/>
      <point x="170" y="361"/>
      <point x="168" y="415"/>
      <point x="174" y="548" type="curve" smooth="yes"/>
      <point x="177" y="612"/>
      <point x="190" y="666"/>
      <point x="243" y="666" type="curve" smooth="yes"/>
      <point x="275" y="666"/>
      <point x="301" y="648"/>
      <point x="303" y="601" type="curve"/>
      <point x="369" y="598" type="line"/>
      <point x="374" y="660"/>
      <point x="327" y="716"/>
    </contour>
  </outline>
</glyph>
